<?xml version="1.0" encoding="utf-8"?>
<!-- Generator: Adobe Illustrator 21.1.0, SVG Export Plug-In . SVG Version: 6.00 Build 0)  -->
<svg version="1.1" id="Capa_1" xmlns="http://www.w3.org/2000/svg" xmlns:xlink="http://www.w3.org/1999/xlink" x="0px" y="0px"
	 viewBox="0 0 1797.5 1200" style="enable-background:new 0 0 1797.5 1200;" xml:space="preserve">
<style type="text/css">
	.st0{opacity:0.16;}
	.st1{fill:#4D1415;}
</style>
<g transform="translate(0.000000,853.000000) scale(0.100000,-0.100000)" class="st0">
	<path class="st1" d="M258.4,8443c103.9-206.4,366.5-499.9,581.4-654.4c238.7-171.3,536.4-299.1,831.3-355.3
		c199.4-37.9,533.6-35.1,741.5,5.6c512.6,102.5,960.5,387.6,1261,803.3c60.4,82.9,160.1,244.3,160.1,258.4
		c0,4.2-193.8,8.4-429.7,8.4h-429.7l-73-66c-136.2-123.6-316-221.9-509.8-279.5c-94.1-28.1-165.7-37.9-306.1-43.5
		c-214.9-8.4-380.6,19.7-561.7,94.1c-120.8,52-327.2,182.6-391.8,251.4l-42.1,43.5H657.2H224.7L258.4,8443z"/>
	<path class="st1" d="M5902.2,8400.9c21.1-314.6,227.5-553.3,532.2-616.5c175.5-36.5,367.9,5.6,514,112.3
		c165.7,122.2,255.6,286.5,266.8,487.3l7,125H6558h-664.2L5902.2,8400.9z"/>
	<path class="st1" d="M9050.6,8471.1c16.9-71.6,146-313.2,234.5-443.8c228.9-334.2,622.1-629.1,1013.9-761.1
		c226.1-75.8,359.5-96.9,640.4-96.9c280.9-1.4,401.6,15.4,623.5,85.7c563.1,176.9,1056,636.1,1272.3,1183.8l28.1,70.2h-390.4h-391.8
		l-54.8-80c-119.4-172.7-331.4-349.7-530.8-439.5c-189.6-85.7-287.9-105.3-542.1-105.3c-269.6,0-351.1,16.9-560.3,113.7
		c-214.9,101.1-389,244.3-526.6,438.1l-53.4,73H9427h-386.2L9050.6,8471.1z"/>
	<path class="st1" d="M13967,8466.9c57.6-59,125-67.4,186.8-25.3c85.7,57.6,74.4,67.4-84.3,67.4h-146L13967,8466.9z"/>
	<path class="st1" d="M15868.4,8443c1.4-230.3,157.3-519.6,363.7-669.8c165.7-122.2,342.6-179.7,549.1-181.2
		c261.2,0,457.8,82.9,646,271c165.7,165.7,248.6,337,273.8,565.9l8.4,80h-160.1h-160.1l-16.9-94.1
		c-47.7-262.6-242.9-455-505.5-497.1c-311.8-49.2-633.3,189.6-672.7,499.9l-9.8,84.3l-158.7,4.2l-157.3,4.2V8443z"/>
	<path class="st1" d="M8222.1,8289.9c-101.1-52-151.7-130.6-151.7-237.3c0-151.7,110.9-259.8,265.4-259.8
		c206.4,0,327.2,230.3,212,405.8C8481.9,8296.9,8323.2,8341.9,8222.1,8289.9z M8446.8,8243.6c66-37.9,105.3-106.7,105.3-186.8
		c0-82.9-26.7-137.6-88.5-185.4c-109.5-84.3-266.8-47.7-328.6,75.8c-39.3,77.2-40.7,129.2-4.2,202.2
		C8191.2,8273.1,8326,8312.4,8446.8,8243.6z"/>
	<path class="st1" d="M14148.2,8232.3c-278-101.1-429.7-397.4-345.5-675.5c67.4-221.9,254.2-374.9,481.7-391.8
		c425.5-32.3,720.4,401.6,536.4,790.6c-44.9,94.1-144.6,193.8-250,248.6c-74.4,37.9-102.5,43.5-219.1,47.7
		C14249.3,8256.2,14201.6,8250.6,14148.2,8232.3z M14488,8030.1c108.1-52,200.8-198,200.8-317.4c0-126.4-84.3-261.2-198-318.8
		c-233.1-116.6-516.8,50.6-518.2,306.1c0,103.9,26.7,174.1,98.3,250C14181.9,8070.9,14339.2,8101.8,14488,8030.1z"/>
	<path class="st1" d="M4392.6,8228.1c-109.5-32.3-179.7-133.4-179.7-254.2c0-127.8,87.1-228.9,220.5-258.4
		c98.3-19.7,238.7,57.6,279.5,157.3C4798.4,8076.5,4603.3,8291.3,4392.6,8228.1z M4604.7,8159.3c184-132,71.6-426.9-154.5-405.8
		c-174.1,16.9-259.8,203.6-162.9,349.7C4353.3,8202.9,4506.4,8229.5,4604.7,8159.3z"/>
	<path class="st1" d="M13158.2,8141.1c-164.3-84.3-207.8-287.9-89.9-418.5c171.3-189.6,473.2-78.6,474.6,175.5
		c0,103.9-53.4,189.6-148.9,237.3C13304.2,8180.4,13239.6,8181.8,13158.2,8141.1z"/>
	<path class="st1" d="M5222.5,7929c-438.1-148.9-471.8-747.1-54.8-960.5c68.8-35.1,91.3-39.3,217.7-39.3
		c122.2,0,150.3,4.2,220.5,37.9c110.9,52,199.4,137.6,254.2,248.6c42.1,85.7,44.9,102.5,43.5,226.1c0,103.9-7,147.4-29.5,196.6
		c-70.2,151.7-178.3,250-330,297.7C5433.2,7969.7,5336.3,7966.9,5222.5,7929z"/>
	<path class="st1" d="M7404.8,7819.5c-300.5-28.1-587-223.3-717.6-490.1c-77.2-155.9-101.1-258.4-101.1-421.3
		c0-161.5,23.9-265.4,96.9-414.3c134.8-272.4,396-457.8,706.4-498.5c474.6-63.2,922.6,264,1016.7,742.9
		c39.3,198,14,374.9-82.9,577.2c-44.9,96.9-77.2,140.4-169.9,233.1c-61.8,61.8-148.9,132-191,155.9
		C7796.6,7798.4,7607,7836.3,7404.8,7819.5z M7667.4,7481.1c155.9-46.3,301.9-169.9,370.7-308.9c113.7-231.7,67.4-501.3-116.6-686.7
		c-292.1-290.7-775.2-207.8-959.1,165.7c-44.9,91.3-46.3,101.1-46.3,257c0,153.1,2.8,165.7,44.9,254.2
		c54.8,110.9,182.6,237.3,289.3,286.5C7378.1,7507.7,7536.8,7520.4,7667.4,7481.1z"/>
	<path class="st1" d="M8928.5,7611.7c-108.1-35.1-206.4-99.7-290.7-192.4c-349.7-382-129.2-1002.7,389-1089.7
		c327.2-54.8,654.4,160.1,741.5,487.3c40.7,153.1,15.4,352.5-64.6,491.5c-49.1,85.7-182.6,216.3-259.8,257
		C9293.6,7641.1,9081.5,7660.8,8928.5,7611.7z"/>
	<path class="st1" d="M2899.9,7533c-223.3-42.1-449.4-134.8-634.7-262.6c-119.4-81.4-325.8-293.5-404.4-411.5
		c-123.6-186.8-212-414.3-245.8-627.7c-28.1-172.7-11.2-492.9,33.7-655.8c287.9-1040.6,1494.2-1488.5,2392.9-890.3
		c828.5,550.5,929.6,1745.5,205,2432.2c-202.2,192.4-431.1,318.8-706.4,390.4C3366.1,7552.7,3068.4,7563.9,2899.9,7533z
		 M3447.5,6964.3c349.7-108.1,616.5-382,705-723.2c39.3-154.5,33.7-417.1-12.6-557.5c-57.6-171.3-127.8-286.5-262.6-418.5
		c-203.6-202.2-426.9-294.9-710.6-294.9c-568.7,0-1018.1,445.2-1018.1,1006.9c0,505.5,349.7,925.4,845.4,1015.3
		C3109.1,7012,3335.2,6998,3447.5,6964.3z"/>
	<path class="st1" d="M15483.7,7538.6c-525.2-77.2-1001.3-440.9-1211.9-926.8c-182.6-422.7-169.9-918.4,35.1-1325.6
		c349.7-699.3,1151.5-1033.6,1898.6-790.6c228.9,74.4,477.5,233.1,648.8,415.7c719,765.3,497.1,2006.7-445.2,2477.2
		C16132.4,7527.4,15788.4,7583.6,15483.7,7538.6z M15868.4,6991c226.1-36.5,389-120.8,561.7-293.5
		c203.6-202.2,294.9-424.1,294.9-713.4c0-171.3-25.3-287.9-91.3-431.1c-165.7-359.5-521-582.8-925.4-582.8
		c-179.7,0-290.7,26.7-456.4,106.7c-106.7,52-153.1,85.7-247.2,178.3c-257,255.6-360.9,575.8-296.3,914.2
		c40.7,210.6,132,382,283.7,533.6C15226.7,6937.6,15546.9,7042.9,15868.4,6991z"/>
	<path class="st1" d="M4427.7,7499.3c-54.8-35.1-74.4-68.8-74.4-134.8c0-70.2,74.4-147.5,143.2-147.5
		c141.8,0,210.6,162.9,110.9,258.4C4554.1,7526,4485.3,7535.8,4427.7,7499.3z"/>
	<path class="st1" d="M17230.6,7433.3c-102.5-44.9-157.3-126.4-160.1-237.3c-1.4-126.4,88.5-234.5,219.1-265.4
		c108.1-25.3,258.4,70.2,292.1,184C17644.9,7325.2,17430,7520.4,17230.6,7433.3z M17435.6,7391.2c70.2-33.7,108.1-95.5,115.2-186.8
		c5.6-85.7-23.9-147.5-96.9-202.2c-89.9-66-230.3-39.3-304.7,57.6c-49.2,66-53.4,189.6-8.4,251.4
		C17213.8,7409.4,17330.3,7440.3,17435.6,7391.2z"/>
	<path class="st1" d="M400.2,7305.5c-61.8-32.3-103.9-74.4-134.8-133.4c-81.4-158.7,35.1-363.7,219.1-384.8
		c59-7,81.4-1.4,147.5,32.3c61.8,32.3,84.3,54.8,116.6,116.6c33.7,66,39.3,88.5,32.3,147.5C759.7,7263.4,551.9,7385.6,400.2,7305.5z
		"/>
	<path class="st1" d="M1327.1,7266.2c-30.9-11.2-73-40.7-95.5-66c-133.4-158.7-26.7-390.4,181.2-390.4
		c174.1,0,283.7,184,206.4,346.9C1572.8,7255,1436.6,7306.9,1327.1,7266.2z M1481.5,7194.6c161.5-75.8,106.7-314.6-70.2-314.6
		c-78.6,0-154.5,60.4-167.1,134.8c-14,67.4,26.7,146,89.9,176.9C1394.5,7222.7,1422.5,7222.7,1481.5,7194.6z"/>
	<path class="st1" d="M12788.8,7103.3c-172.7-40.7-287.9-171.3-300.5-342.6c-12.6-155.9,50.6-282.3,182.6-363.7
		c94.1-57.6,238.7-67.4,344.1-22.5c81.4,35.1,175.5,129.2,209.2,207.8c32.3,75.8,29.5,219.1-5.6,299.1
		C13145.5,7044.3,12954.5,7142.6,12788.8,7103.3z"/>
	<path class="st1" d="M13610.3,7047.1c-91.3-44.9-136.2-122.2-136.2-230.3c0-70.2,7-96.9,39.3-144.6
		c87.1-133.4,279.5-155.9,393.2-47.7c59,56.2,84.3,112.3,84.3,192.4C13990.9,7016.2,13791.5,7135.6,13610.3,7047.1z M13856.1,7005
		c52-32.3,102.5-127.8,102.5-196.6c-1.4-106.7-118-223.3-224.7-223.3c-56.2,0-158.7,59-192.4,110.9
		c-37.9,56.2-43.5,164.3-12.6,223.3C13589.3,7037.3,13739.5,7076.6,13856.1,7005z"/>
	<path class="st1" d="M17880.8,6882.8c-227.5-118-358.1-335.6-358.1-592.6c1.4-191,70.2-349.7,212-481.7
		c63.2-59,191-136.2,226.1-136.2c9.8,0,14,203.6,14,624.9c0,344.1-4.2,624.9-9.8,624.9C17958,6922.1,17920.1,6903.9,17880.8,6882.8z
		"/>
	<path class="st1" d="M10728.8,6828.1c-39.3-14-96.9-78.6-105.3-116.6c-12.6-56.2,25.3-134.8,75.8-160.1
		c70.2-36.5,123.6-29.5,178.3,25.3c81.4,81.4,59,198-44.9,241.5C10783.5,6839.3,10763.9,6840.7,10728.8,6828.1z"/>
	<path class="st1" d="M4919.2,6788.7c-52-22.5-88.5-84.3-88.5-148.9c0-66,78.6-139,150.3-139c64.6,0,108.1,28.1,139,87.1
		C5181.8,6707.3,5045.6,6844.9,4919.2,6788.7z"/>
	<path class="st1" d="M11529.2,6738.2c-227.5-44.9-436.7-247.2-498.5-483.1c-89.9-349.7,136.2-726,485.9-806.1
		c157.3-36.5,356.7-7,492.9,73c75.8,43.5,209.2,182.6,247.2,255.6c68.8,136.2,91.3,323,57.6,469
		C12235.6,6587.9,11884.5,6807,11529.2,6738.2z"/>
	<path class="st1" d="M6087.6,6719.9c-103.9-47.7-165.7-172.7-134.8-275.2c44.9-153.1,200.8-224.7,338.4-154.5
		c74.4,37.9,116.6,101.1,123.6,188.2c7,92.7-21.1,161.5-88.5,212C6265.9,6738.2,6155,6752.2,6087.6,6719.9z M6263.1,6648.3
		c59-30.9,84.3-74.4,84.3-148.9c0-53.4-8.4-74.4-39.3-108.1c-71.6-77.2-184-77.2-247.2-1.4c-68.8,81.4-64.6,155.9,12.6,233.1
		C6125.5,6675,6192.9,6684.8,6263.1,6648.3z"/>
	<path class="st1" d="M758.3,6614.6c-119.4-36.5-226.1-146-261.2-265.4c-89.9-306.1,226.1-582.8,522.4-459.2
		c64.6,26.7,157.3,115.2,191,181.2c44.9,87.1,50.6,226.1,12.6,310.3c-47.7,106.7-92.7,155.9-185.4,202.2
		C947.9,6628.7,842.6,6639.9,758.3,6614.6z"/>
	<path class="st1" d="M9952.2,6467.2c-127.8-35.1-250-165.7-276.6-296.3c-37.9-181.2,56.2-365.1,224.7-440.9
		c95.5-43.5,240.1-40.7,334.2,7c244.3,122.2,293.5,452.2,94.1,636.1C10223.2,6470,10084.2,6505.1,9952.2,6467.2z M10160,6319.7
		c226.1-102.5,196.6-425.5-43.5-478.9c-182.6-40.7-353.9,134.8-301.9,310.3c32.3,105.3,144.6,195.2,247.2,195.2
		C10085.6,6346.4,10129.1,6333.8,10160,6319.7z"/>
	<path class="st1" d="M5305.4,6352c-106.7-57.6-103.9-223.3,2.8-279.5c70.2-36.5,136.2-28.1,191,26.7
		c40.7,40.7,47.7,57.6,47.7,113.7s-7,73-47.7,113.7c-37.9,37.9-59,47.7-101.1,47.7C5367.2,6373.1,5326.5,6364.6,5305.4,6352z
		 M5476.7,6319.7c80-57.6,64.6-184-28.1-228.9c-96.9-46.3-196.6,15.4-196.6,120.8c1.4,66,19.7,96.9,78.6,127.8
		C5377,6363.2,5424.8,6357.6,5476.7,6319.7z"/>
	<path class="st1" d="M13465.7,6300.1c-162.9-85.7-165.7-321.6-5.6-412.9c193.8-109.5,425.5,92.7,338.4,294.9
		c-9.8,25.3-36.5,61.8-59,82.9C13659.5,6339.4,13564,6352,13465.7,6300.1z M13684.8,6217.2c148.9-137.6-9.8-363.7-189.6-271
		c-108.1,56.2-110.9,235.9-2.8,293.5C13559.8,6276.2,13630,6267.8,13684.8,6217.2z"/>
	<path class="st1" d="M8622.3,6227c-212-67.4-318.8-328.6-219.1-532.2c68.8-140.4,185.4-210.6,345.5-212
		c91.3,0,115.2,5.6,179.7,40.7c168.5,94.1,241.5,287.9,178.3,473.2C9043.6,6183.5,8817.5,6290.2,8622.3,6227z"/>
	<path class="st1" d="M6722.3,5863.3c-193.8-71.6-238.7-328.6-81.4-462c176.9-147.5,443.8-22.5,443.8,207.8
		C7084.6,5795.9,6896.5,5927.9,6722.3,5863.3z"/>
	<path class="st1" d="M7685.7,5777.7c-85.7-52-123.6-120.8-123.6-226.1c0-68.8,7-95.5,37.9-141.8c66-99.7,212-144.6,324.4-96.9
		c80,32.3,164.3,155.9,164.3,240.1c0,84.3-84.3,207.8-164.3,240.1C7851.4,5824,7753.1,5817,7685.7,5777.7z M7941.2,5744
		c22.5-12.6,56.2-49.1,73-80c85.7-150.3-21.1-334.2-192.4-334.2c-127.8,0-212,81.4-221.9,212c-7,101.1,29.5,164.3,123.6,212
		C7795.2,5790.3,7868.2,5787.5,7941.2,5744z"/>
	<path class="st1" d="M5413.5,5736.9c-157.3-37.9-304.7-155.9-372.1-299.1c-127.8-272.4-18.3-589.8,252.8-726
		c332.8-165.7,721.8,30.9,786.4,400.2c50.6,286.5-143.2,568.7-432.5,629.1C5556.8,5760.8,5504.8,5759.4,5413.5,5736.9z
		 M5695.8,5520.7c126.4-66,193.8-176.9,193.8-318.8c0-109.5-21.1-165.7-95.5-242.9c-71.6-77.2-141.8-106.7-254.2-108.1
		c-115.2,0-182.6,28.1-261.2,108.1c-179.7,186.8-92.7,509.8,157.3,585.6C5504.8,5565.6,5631.2,5553,5695.8,5520.7z"/>
	<path class="st1" d="M1221.7,5710.3c-71.6-37.9-126.4-126.4-126.4-206.4c0-122.2,116.6-238.7,238.7-238.7s238.7,116.6,238.7,238.7
		c0,122.2-116.6,238.7-238.7,238.7C1306,5742.5,1255.4,5728.5,1221.7,5710.3z M1418.3,5649.9c147.5-88.5,87.1-314.6-84.3-314.6
		c-126.4,0-209.2,143.2-146,251.4C1235.8,5668.1,1339.7,5696.2,1418.3,5649.9z"/>
	<path class="st1" d="M9566,5676.5c-66-32.3-118-105.3-125-178.3C9420,5317,9591.3,5178,9757,5244
		c148.9,60.4,200.8,227.5,110.9,358.1C9806.1,5693.4,9668.5,5727.1,9566,5676.5z M9759.8,5609.1c122.2-63.2,103.9-247.2-29.5-301.9
		c-95.5-40.7-223.3,44.9-223.3,148.9c0,59,30.9,122.2,73,151.7C9619.4,5635.8,9706.4,5635.8,9759.8,5609.1z"/>
	<path class="st1" d="M12989.7,5663.9c-323-85.7-578.6-341.2-660-660c-33.7-132-36.5-330-7-448c33.7-134.8,123.6-300.5,216.3-403
		c445.2-484.5,1228.8-365.1,1511,230.3c52,109.5,91.3,278,91.3,391.8c0,116.6-40.7,279.5-101.1,405.8
		c-46.3,98.3-78.6,140.4-178.3,238.7c-134.8,133.4-261.2,206.4-422.7,244.3C13323.9,5692,13092.2,5690.6,12989.7,5663.9z
		 M13471.3,5311.4c240.1-113.7,380.6-376.3,337-630.5c-44.9-261.2-241.5-456.4-501.3-499.9c-248.6-40.7-512.6,98.3-627.7,334.2
		c-40.7,81.4-47.7,112.3-52,223.3c-8.4,192.4,35.1,311.8,164.3,446.6c130.6,136.2,242.9,181.2,443.8,174.1
		C13359,5356.4,13387.1,5350.8,13471.3,5311.4z"/>
	<path class="st1" d="M323,5325.5c-84.3-12.6-167.1-36.5-241.5-70.2L0,5218.7v-203.6v-202.2l57.6,52
		c74.4,67.4,186.8,118,301.9,137.6c251.4,43.5,514-98.3,627.7-337c42.1-89.9,44.9-103.9,44.9-257c0-150.3-2.8-167.1-40.7-245.8
		c-113.7-230.3-325.8-353.9-582.8-341.2c-137.6,7-217.7,36.5-334.2,125L0,4002.6v-198v-198l74.4-33.7
		c255.6-119.4,598.2-98.3,848.2,52c102.5,60.4,251.4,209.2,311.8,310.3c87.1,147.5,116.6,251.4,123.6,431.1
		c12.6,296.3-60.4,487.3-262.6,689.5c-98.3,98.3-143.2,132-238.7,178.3C685.3,5315.6,483.1,5350.8,323,5325.5z"/>
	<path class="st1" d="M17490.4,5325.5c-15.4-4.2-44.9-19.7-66-35.1c-146-102.5-140.4-310.3,11.2-398.8
		c119.4-70.2,276.6-23.9,334.2,96.9C17856.9,5172.4,17688.4,5374.6,17490.4,5325.5z M17632.2,5242.6c59-28.1,89.9-82.9,89.9-161.5
		c0-46.3-8.4-66-47.7-105.3c-39.3-39.3-59-47.7-105.3-47.7c-32.3,0-77.2,9.8-98.3,21.1c-42.1,21.1-85.7,96.9-85.7,147.5
		c0,75.8,91.3,168.5,165.7,168.5C17569,5265.1,17605.5,5255.3,17632.2,5242.6z"/>
	<path class="st1" d="M10150.2,5224.4c-221.9-140.4-123.6-492.9,139-492.9c95.5,0,154.5,25.3,210.6,88.5
		c40.7,46.3,74.4,126.4,74.4,178.3c0,91.3-81.4,213.5-164.3,247.2C10329.9,5279.1,10223.2,5270.7,10150.2,5224.4z"/>
	<path class="st1" d="M8060.6,5166.8c-528-95.5-1004.1-403-1306-844c-332.8-485.9-440.9-1071.5-300.5-1640.2
		c191-776.6,828.5-1369.2,1624.8-1513.8c176.9-32.3,522.4-30.9,690.9,1.4c425.5,81.4,789.2,271,1088.3,570.1
		c278,276.6,464.8,619.3,554.7,1018.1c35.1,151.7,43.5,544.9,16.9,717.6c-47.7,294.9-146,554.7-303.3,794.8
		c-306.1,464.8-747.1,768.1-1293.3,888.9C8664.5,5197.7,8246,5201.9,8060.6,5166.8z M8590,4477.3
		c308.9-40.7,557.5-167.1,776.6-390.4c143.2-147.5,238.7-301.9,303.3-490.1c158.7-460.6,49.1-969-280.9-1320
		c-133.4-139-241.5-220.5-403-297.7c-200.8-95.5-307.5-118-567.3-118c-203.6,1.4-235.9,4.2-351.1,39.3
		c-455,139-778,460.6-914.2,914.2c-35.1,115.2-37.9,147.4-39.3,351.1c0,259.8,22.5,366.5,118,567.3
		c78.6,162.9,160.1,272.4,300.5,404.4C7817.7,4404.3,8206.7,4529.2,8590,4477.3z"/>
	<path class="st1" d="M11137.4,5055.9c-94.1-36.5-181.2-102.5-245.8-189.6c-70.2-95.5-96.9-196.6-89.9-337
		c4.2-95.5,14-127.8,52-202.2c57.6-105.3,144.6-189.6,251.4-238.7c67.4-30.9,99.7-37.9,206.4-37.9c112.3,0,136.2,4.2,220.5,44.9
		c118,56.2,199.4,136.2,254.2,254.2c39.3,82.9,44.9,108.1,43.5,213.5c0,213.5-98.3,374.9-283.7,466.2
		c-80,39.3-110.9,46.3-213.5,50.6C11241.3,5082.5,11195,5076.9,11137.4,5055.9z"/>
	<path class="st1" d="M6423.2,4992.7c-59-26.7-89.9-73-89.9-139c0-71.6,73-150.3,139-150.3c108.1,0,186.8,95.5,155.9,188.2
		C6598.7,4984.2,6506.1,5029.2,6423.2,4992.7z"/>
	<path class="st1" d="M1633.2,4746.9c-59-42.1-102.5-126.4-102.5-195.2c0-21.1,12.6-63.2,26.7-95.5
		c67.4-148.9,247.2-185.4,372.1-75.8c63.2,56.2,84.3,110.9,75.8,198c-12.6,127.8-103.9,209.2-235.9,209.2
		C1703.4,4787.6,1679.5,4780.6,1633.2,4746.9z M1835.4,4710.4c16.9-4.2,47.7-28.1,67.4-50.6c108.1-129.2-37.9-325.8-193.8-261.2
		c-60.4,25.3-108.1,95.5-108.1,158.7c0,60.4,54.8,136.2,112.3,155.9C1761,4728.7,1772.2,4728.7,1835.4,4710.4z"/>
	<path class="st1" d="M17848.5,4673.9c-542.1-294.9-915.6-814.5-1033.6-1438c-32.3-168.5-33.7-514-1.4-690.9
		c77.2-422.7,265.4-780.8,570.1-1085.5c167.1-165.7,290.7-259.8,483.1-365.1l108.1-59v421.3V1878l-47.7,36.5
		c-77.2,57.6-223.3,251.4-286.5,377.8c-87.1,172.7-129.2,338.4-139,529.4c-16.9,373.5,103.9,702.1,360.9,973.2l112.3,119.4v408.6
		c0,224.7-4.2,408.6-9.8,408.6C17958,4731.5,17906.1,4704.8,17848.5,4673.9z"/>
	<path class="st1" d="M14452.9,4628.9c-85.7-47.7-103.9-165.7-37.9-234.5c98.3-103.9,259.8-39.3,259.8,102.5
		c0,43.5-9.8,64.6-47.7,102.5C14575.1,4651.4,14513.3,4661.2,14452.9,4628.9z"/>
	<path class="st1" d="M4872.9,4568.6c-108.1-46.3-160.1-136.2-151.7-261.2c9.8-137.6,116.6-235.9,257-235.9
		c141.8,0,247.2,96.9,257,235.9C5249.2,4511,5058.2,4648.6,4872.9,4568.6z M5084.9,4526.4c139-70.2,160.1-254.2,42.1-360.9
		c-96.9-88.5-226.1-81.4-314.6,16.9c-64.6,71.6-78.6,146-40.7,228.9C4830.7,4543.3,4959.9,4591,5084.9,4526.4z"/>
	<path class="st1" d="M16602.9,4352.3c-96.9-59-88.5-212,14-261.2c102.5-49.2,220.5,22.5,220.5,133.4c0,60.4-28.1,105.3-84.3,134.8
		C16698.4,4387.4,16656.2,4386,16602.9,4352.3z"/>
	<path class="st1" d="M2289,4175.4c-321.6-84.3-585.6-349.7-667-672.7c-26.7-106.7-26.7-328.6,0-435.3
		c146-575.8,786.4-870.7,1313-603.8c297.7,150.3,505.5,488.7,505.5,822.9c0,116.6-40.7,279.5-101.1,405.8
		c-46.3,95.5-80,140.4-178.3,238.7c-134.8,133.4-259.8,206.4-422.7,244.3C2624.6,4203.5,2391.5,4202,2289,4175.4z M2777.7,3818.7
		c292.1-136.2,418.5-492.9,279.5-789.2c-108.1-231.7-370.7-374.9-616.5-337c-205,30.9-373.5,153.1-463.4,335.6
		c-44.9,91.3-46.3,101.1-46.3,257c0,153.1,2.8,165.7,44.9,254.2c54.8,112.3,182.6,237.3,290.7,287.9
		C2418.2,3895.9,2619,3893.1,2777.7,3818.7z"/>
	<path class="st1" d="M5736.5,4178.2c-54.8-25.3-112.3-87.1-139-151.7c-73-174.1,59-366.5,251.4-366.5
		c153.1,0,275.2,123.6,273.8,276.6c-1.4,92.7-85.7,213.5-172.7,245.8C5895.2,4203.5,5787.1,4200.6,5736.5,4178.2z"/>
	<path class="st1" d="M14517.5,4169.7c-151.7-80-186.8-290.7-70.2-421.3c123.6-139,353.9-109.5,438.1,56.2
		c49.2,96.9,32.3,231.7-40.7,314.6C14775.9,4196.4,14617.2,4221.7,14517.5,4169.7z"/>
	<path class="st1" d="M3794.4,4091.1c-254.2-126.4-155.9-512.6,129.2-511.2c92.7,1.4,213.5,85.7,245.8,172.7
		c8.4,22.5,15.4,67.4,15.4,101.1c0,113.7-54.8,198-161.5,247.2C3946,4137.4,3880,4134.6,3794.4,4091.1z"/>
	<path class="st1" d="M15656.4,4051.8c-89.9-23.9-179.7-80-247.2-153.1c-77.2-84.3-112.3-157.3-133.4-273.8
		c-40.7-238.7,101.1-476.1,335.6-564.5c115.2-43.5,287.9-36.5,400.2,16.9c316,147.5,397.4,565.9,160.1,822.9
		C16041.2,4042,15840.4,4102.3,15656.4,4051.8z"/>
	<path class="st1" d="M10761.1,4022.3c-66-39.3-130.6-151.7-130.6-223.3c1.4-105.3,106.7-237.3,203.6-255.6
		c132-23.9,238.7,28.1,297.7,146c40.7,82.9,39.3,143.2-4.2,234.5C11068.6,4049,10887.4,4096.7,10761.1,4022.3z M10995.6,3998.4
		c91.3-47.7,119.4-94.1,119.4-198c0-68.8-7-96.9-32.3-133.4c-43.5-60.4-108.1-92.7-185.4-92.7c-77.2,0-141.8,32.3-185.4,92.7
		c-25.3,36.5-32.3,64.6-32.3,130.6c0,102.5,37.9,165.7,125,205C10880.4,4036.3,10921.1,4036.3,10995.6,3998.4z"/>
	<path class="st1" d="M12088.1,3888.9c-205-64.6-271-287.9-133.4-445.2c54.8-61.8,115.2-88.5,199.4-88.5s144.6,26.7,199.4,88.5
		c82.9,94.1,95.5,224.7,30.9,327.2C12329.6,3859.4,12180.8,3919.8,12088.1,3888.9z"/>
	<path class="st1" d="M12645.6,3676.8c-148.9-43.5-209.2-244.3-112.3-370.7c50.6-67.4,119.4-95.5,212-88.5
		c89.9,7,154.5,52,189.6,129.2c60.4,132,12.6,257-120.8,318.8C12753.7,3693.7,12711.6,3696.5,12645.6,3676.8z M12808.5,3589.8
		c148.9-99.7,84.3-304.7-95.5-304.7c-134.8,0-209.2,162.9-120.8,266.8C12656.8,3629.1,12731.3,3641.7,12808.5,3589.8z"/>
	<path class="st1" d="M4722.6,3665.6c-280.9-73-390.4-421.3-199.4-639c77.2-87.1,151.7-123.6,269.6-132
		c118-8.4,200.8,21.1,287.9,101.1c80,73,118,148.9,126.4,255.6c12.6,161.5-68.8,307.5-212,380.6
		C4917.8,3669.8,4799.9,3685.3,4722.6,3665.6z M4922,3511.1c101.1-46.3,147.5-120.8,147.5-235.9c0-136.2-109.5-242.9-251.4-242.9
		c-147.5,0-254.2,106.7-254.2,254.2C4563.9,3467.6,4754.9,3588.4,4922,3511.1z"/>
	<path class="st1" d="M13905.3,3620.7c-54.8-16.9-101.1-84.3-101.1-150.3c0-71.6,75.8-143.2,151.7-143.2
		c105.3,0,185.4,115.2,141.8,203.6C14061.1,3606.6,13982.5,3641.7,13905.3,3620.7z"/>
	<path class="st1" d="M11058.8,3356.7c-148.9-36.5-228.9-147.5-214.9-297.7c22.5-234.5,325.8-321.6,478.9-139
		c35.1,40.7,66,120.8,66,168.5c0,85.7-75.8,205-153.1,244.3C11185.1,3358.1,11109.3,3367.9,11058.8,3356.7z"/>
	<path class="st1" d="M13197.5,3307.5c-175.5-47.7-278-186.8-278-372.1c0-404.4,546.3-526.6,723.2-162.9
		c33.7,67.4,37.9,89.9,32.3,178.3c-5.6,118-36.5,189.6-106.7,261.2C13475.5,3303.3,13323.9,3344,13197.5,3307.5z"/>
	<path class="st1" d="M14531.6,3266.8c-132-37.9-231.7-136.2-272.4-271c-40.7-134.8-11.2-259.8,85.7-367.9
		c87.1-96.9,176.9-133.4,307.5-126.4c213.5,11.2,356.7,150.3,370.7,358.1C15041.3,3130.6,14790,3338.4,14531.6,3266.8z
		 M14738,3117.9c64.6-29.5,110.9-75.8,132-132c22.5-59,18.3-160.1-7-216.3c-47.7-98.3-181.2-158.7-287.9-130.6
		c-71.6,19.7-160.1,99.7-182.6,164.3c-37.9,116.6,19.7,257,130.6,311.8C14597.6,3151.6,14663.6,3153,14738,3117.9z"/>
	<path class="st1" d="M3648.3,3249.9c-43.5-23.9-81.4-87.1-81.4-133.4c0-75.8,80-154.5,157.3-154.5c87.1,0,162.9,96.9,146,186.8
		C3852,3244.3,3734,3297.7,3648.3,3249.9z"/>
	<path class="st1" d="M266.8,3224.7C158.7,3189.6,98.3,3108.1,98.3,3000c0-112.3,70.2-203.6,178.3-233.1
		c115.2-32.3,252.8,49.2,285.1,168.5C609.5,3112.3,438.1,3280.8,266.8,3224.7z M438.1,3129.2c44.9-32.3,73-109.5,60.4-167.1
		c-12.6-54.8-78.6-120.8-133.4-132c-96.9-18.3-196.6,64.6-196.6,162.9C168.5,3139,317.4,3213.4,438.1,3129.2z"/>
	<path class="st1" d="M891.7,3075.8c-129.2-80-178.3-220.5-120.8-345.5c49.2-106.7,133.4-161.5,247.2-161.5
		c77.2,0,129.2,19.7,181.2,67.4c136.2,127.8,115.2,337-44.9,433.9C1086.9,3112.3,953.5,3115.1,891.7,3075.8z"/>
	<path class="st1" d="M5539.9,3054.7c-59-25.3-91.3-80-91.3-153.1c0-75.8,36.5-127.8,105.3-150.3c99.7-32.3,199.4,30.9,212,134.8
		C5781.4,3009.8,5650.9,3105.3,5539.9,3054.7z M5711.2,2997.2c47.7-54.8,43.5-137.6-8.4-191c-89.9-88.5-240.1-22.5-240.1,108.1
		c0,22.5,18.3,54.8,49.1,85.7c44.9,44.9,54.8,49.2,109.5,42.1C5660.7,3036.5,5690.2,3022.4,5711.2,2997.2z"/>
	<path class="st1" d="M11794.6,3042.1c-74.4-21.1-132-60.4-193.8-129.2c-64.6-74.4-89.9-141.8-89.9-245.8
		c-1.4-164.3,88.5-300.5,240.1-367.9c91.3-40.7,254.2-30.9,344,21.1c127.8,75.8,191,188.2,192.4,339.8
		c0,122.2-40.7,214.9-123.6,290.7C12061.4,3043.5,11922.4,3077.2,11794.6,3042.1z M11999.6,2893.3c87.1-39.3,161.5-146,161.5-233.1
		c0-40.7-33.7-123.6-66-161.5c-95.5-115.2-278-120.8-379.2-11.2c-98.3,103.9-95.5,252.8,5.6,353.9
		C11801.6,2919.9,11899.9,2939.6,11999.6,2893.3z"/>
	<path class="st1" d="M12582.4,2882c-39.3-44.9-44.9-57.6-37.9-108.1c16.9-122.2,154.5-176.9,247.2-98.3
		c44.9,36.5,67.4,106.7,52,157.3c-5.6,15.4-25.3,44.9-46.3,64.6c-28.1,29.5-49.1,36.5-102.5,36.5
		C12634.4,2934,12621.7,2928.4,12582.4,2882z"/>
	<path class="st1" d="M3600.6,2568.9c-49.2-19.7-89.9-82.9-89.9-141.8c0-161.5,227.5-207.8,290.7-59
		C3854.8,2497.2,3729.8,2620.8,3600.6,2568.9z"/>
	<path class="st1" d="M4200.2,2532.3c-181.2-47.7-337-178.3-417.1-348.3c-92.7-196.6-91.3-387.6,2.8-581.4
		c237.3-487.3,932.4-490.1,1175.4-5.6c96.9,195.2,98.3,391.8,2.8,589.8C4830.7,2466.3,4503.5,2613.8,4200.2,2532.3z"/>
	<path class="st1" d="M15744.9,2491.6c-95.5-49.2-147.5-130.6-147.5-235.9c-2.8-251.4,296.3-369.3,466.2-185.4
		c153.1,167.1,52,425.5-176.9,450.8C15831.9,2526.7,15805.3,2522.5,15744.9,2491.6z"/>
	<path class="st1" d="M0,2213.6v-276.6h67.4c37.9,0,116.6-12.6,176.9-28.1c342.6-87.1,610.9-335.6,723.2-668.4
		C1123.4,775.6,903,237.7,463.4,13.1C356.7-40.3,210.6-83.8,96.9-93.7L0-103.5v-273.8v-273.8l122.2,8.4
		c749.9,56.2,1355.1,650.2,1438,1408.5c50.6,471.8-140.4,976-492.9,1301.8c-261.2,241.5-598.2,391.8-929.6,412.9L0,2488.8V2213.6z"
		/>
	<path class="st1" d="M14110.3,2345.6c-303.3-96.9-499.9-417.1-446.6-730.2c60.4-358.1,398.8-608.1,747.1-550.5
		c609.5,99.7,771,887.5,250,1216.1C14516.1,2372.3,14280.2,2398.9,14110.3,2345.6z"/>
	<path class="st1" d="M12826.8,2223.4c-91.3-44.9-118-165.7-53.4-242.9c52-61.8,127.8-81.4,193.8-50.6
		c122.2,59,123.6,244.3,1.4,296.3C12908.2,2251.5,12881.5,2250.1,12826.8,2223.4z M12992.5,2177.1c37.9-33.7,46.3-50.6,46.3-99.7
		c0-49.2-8.4-66-46.3-99.7c-78.6-70.2-181.2-46.3-221.9,52c-16.9,40.7-16.9,54.8,0,95.5
		C12811.3,2223.4,12913.8,2247.3,12992.5,2177.1z"/>
	<path class="st1" d="M5903.6,2206.6c-161.5-57.6-258.4-193.8-257-360.9c1.4-148.9,70.2-268.2,193.8-335.6
		c261.2-140.4,567.3,39.3,568.7,337C6409.2,2105.4,6146.6,2293.6,5903.6,2206.6z"/>
	<path class="st1" d="M10852.3,2216.4c-192.4-28.1-391.8-172.7-480.3-349.7c-266.8-533.6,240.1-1117.8,804.7-924
		c265.4,89.9,440.9,338.4,440.9,622.1C11617.7,1972,11259.6,2276.8,10852.3,2216.4z"/>
	<path class="st1" d="M1923.9,2078.8c-82.9-44.9-130.6-116.6-137.6-209.2c-8.4-126.4,44.9-216.3,155.9-262.6
		c185.4-77.2,372.1,59,358.1,262.6c-7,92.7-56.2,169.9-139,210.6C2098,2113.9,1985.7,2112.5,1923.9,2078.8z M2124.7,2057.7
		c61.8-25.3,130.6-106.7,141.8-168.5c21.1-113.7-53.4-227.5-169.9-259.8c-105.3-29.5-219.1,32.3-262.6,141.8
		C1762.4,1946.8,1950.6,2130.7,2124.7,2057.7z"/>
	<path class="st1" d="M12175.2,2025.4c-43.5-16.9-98.3-81.4-106.7-123.6c-9.8-57.6,23.9-137.6,70.2-168.5
		c19.7-14,61.8-23.9,92.7-23.9c151.7,2.8,217.7,178.3,106.7,282.3C12304.4,2024,12215.9,2042.3,12175.2,2025.4z M12331,1966.4
		c64.6-66,50.6-169.9-29.5-216.3c-140.4-84.3-285.1,99.7-169.9,216.3c32.3,32.3,53.4,40.7,99.7,40.7
		C12277.7,2007.1,12298.7,1998.7,12331,1966.4z"/>
	<path class="st1" d="M13144.1,1813.4c-68.8-33.7-106.7-112.3-84.3-178.3c30.9-91.3,126.4-130.6,217.7-88.5
		c71.6,32.3,101.1,153.1,54.8,220.5c-21.1,28.1-96.9,71.6-127.8,71.6C13198.9,1838.6,13170.8,1827.4,13144.1,1813.4z"/>
	<path class="st1" d="M2956,1699.6c-110.9-28.1-214.9-110.9-268.2-216.3c-14-23.9-26.7-91.3-30.9-147.5
		c-5.6-92.7-2.8-109.5,39.3-193.8c70.2-144.6,184-213.5,351.1-214.9c228.9-2.8,414.3,200.8,387.6,425.5
		C3406.8,1590.1,3180.7,1754.4,2956,1699.6z M3156.8,1542.3c146-71.6,188.2-266.8,84.3-386.2c-57.6-66-115.2-92.7-193.8-92.7
		c-139,0-238.7,88.5-250,220.5c-2.8,42.1-2.8,91.3,2.8,110.9c21.1,87.1,146,175.5,245.8,176.9
		C3072.6,1571.8,3121.7,1557.8,3156.8,1542.3z"/>
	<path class="st1" d="M16729.3,1496c-328.6-80-550.5-407.2-499.9-737.3c75.8-485.9,619.3-723.2,1029.3-449.4
		c179.8,120.8,280.9,316,280.9,549.1C17539.5,1281.1,17140.7,1595.7,16729.3,1496z"/>
	<path class="st1" d="M15417.7,1446.8c-390.4-125-512.6-620.7-223.3-910c37.9-37.9,105.3-88.5,150.3-110.9
		c75.8-37.9,92.7-40.7,235.9-40.7c137.6,0,162.9,4.2,231.7,36.5c119.4,57.6,202.2,139,262.6,262.6c50.6,99.7,53.4,115.2,53.4,233.1
		c-1.4,99.7-8.4,146-33.7,207.8c-36.5,94.1-146,220.5-234.5,272.4C15730.8,1473.5,15560.9,1493.2,15417.7,1446.8z M15735,1243.2
		c137.6-63.2,213.5-193.8,200.8-349.7c-8.4-99.7-32.3-155.9-96.9-219.1c-144.6-146-360.9-146-504.1-1.4
		c-119.4,118-141.8,275.2-60.4,422.7C15362.9,1258.7,15563.7,1323.3,15735,1243.2z"/>
	<path class="st1" d="M2053.1,1417.3c-162.9-99.7-26.7-344.1,147.5-261.2c102.5,49.2,110.9,202.2,14,261.2
		C2157,1452.5,2110.6,1452.5,2053.1,1417.3z"/>
	<path class="st1" d="M9750,1368.2c-52-22.5-88.5-84.3-88.5-148.9c0-66,78.6-139,150.3-139c64.6,0,108.1,28.1,139,87.1
		C10012.6,1286.7,9876.4,1424.4,9750,1368.2z"/>
	<path class="st1" d="M12565.6,1375.2c-831.3-98.3-1459.1-873.5-1373.4-1700.6c40.7-405.8,193.8-716.2,490.1-999.9
		c235.9-224.7,515.4-360.9,839.8-410.1c321.6-49.2,612.3-4.2,910,139c526.6,252.8,860.8,755.5,887.5,1336.9
		c21.1,455-137.6,865-459.2,1185.2C13517.7,1267.1,13045.8,1430,12565.6,1375.2z M12993.9,803.7c205-50.6,355.3-139,505.5-299.1
		c115.2-122.2,199.4-273.8,242.9-435.3c33.7-123.6,35.1-380.6,1.4-505.5c-74.4-280.9-268.2-519.6-530.8-655.8
		c-146-75.8-289.3-108.1-469-108.1c-168.5,1.4-282.3,28.1-435.3,102.5c-276.6,136.2-477.5,387.6-549.1,685.3
		c-36.5,157.3-22.5,408.6,32.3,561.7c74.4,206.4,196.6,370.7,362.3,488.7C12404.1,816.3,12704.6,876.7,12993.9,803.7z"/>
	<path class="st1" d="M5659.3,1274.1c-155.9-43.5-235.9-212-169.9-355.3c43.5-95.5,143.2-161.5,240.1-161.5
		c54.8,0,137.6,33.7,179.7,74.4c85.7,78.6,103.9,210.6,44.9,318.8C5898,1250.2,5768.8,1305,5659.3,1274.1z M5860.1,1202.5
		c130.6-99.7,122.2-276.6-18.3-370.7c-87.1-60.4-234.5-32.3-297.7,54.8c-30.9,44.9-47.7,141.8-33.7,199.4
		c11.2,47.7,75.8,120.8,127.8,143.2C5701.4,1258.7,5802.5,1246,5860.1,1202.5z"/>
	<path class="st1" d="M2099.4,907.6c-59-26.7-129.2-110.9-148.9-179.7c-32.3-105.3,19.7-224.7,125-289.3
		c165.7-102.5,396,33.7,396,234.5c0,59-64.6,172.7-120.8,209.2C2290.4,924.4,2164,937.1,2099.4,907.6z M2318.5,861.2
		c139-70.2,146-290.7,12.6-380.6c-98.3-67.4-231.7-47.7-303.3,44.9C1877.5,722.2,2098,976.4,2318.5,861.2z"/>
	<path class="st1" d="M3642.7,897.8c-238.7-77.2-398.8-261.2-450.8-515.4c-28.1-137.6-9.8-265.4,59-405.8
		c196.6-404.4,733-494.3,1051.8-178.3c283.7,282.3,257,749.9-57.6,990c-123.6,92.7-220.5,126.4-383.4,133.4
		C3757.9,924.4,3710.1,920.2,3642.7,897.8z"/>
	<path class="st1" d="M9404.5,910.4c-289.3-37.9-570.1-242.9-696.5-506.9c-71.6-151.7-91.3-241.5-91.3-404.4s19.7-252.8,92.7-404.4
		C8774-543,8924.2-710.2,9049.2-786c362.3-217.7,807.5-171.3,1116.4,118c235.9,220.5,337,561.7,262.6,883.3
		C10324.3,663.2,9869.3,972.2,9404.5,910.4z M9710.6,567.8c147.5-40.7,287.9-162.9,362.3-316c42.1-85.7,44.9-98.3,44.9-252.8
		c0-155.9-1.4-165.7-46.3-257C9955-493.9,9686.8-635.7,9441-592.2c-483.1,88.5-671.2,660-331.4,1008.3
		C9264.1,574.8,9483.2,629.5,9710.6,567.8z"/>
	<path class="st1" d="M7923,805.1c-94.1-56.2-143.2-179.7-115.2-285.1c39.3-150.3,214.9-237.3,355.3-178.3
		c57.6,23.9,127.8,103.9,150.3,169.9c36.5,109.5-22.5,248.6-126.4,303.3C8114,854.2,7998.8,850,7923,805.1z M8185.6,775.6
		c133.4-99.7,133.4-290.7,0-379.2c-46.3-30.9-66-35.1-136.2-29.5c-94.1,7-141.8,35.1-186.8,113.7
		c-60.4,108.1-11.2,252.8,105.3,306.1C8038.1,820.5,8130.8,814.9,8185.6,775.6z"/>
	<path class="st1" d="M6942.8,695.5c-259.8-66-433.9-332.8-386.2-591.2c30.9-165.7,123.6-293.5,271-373.5
		c84.3-46.3,94.1-47.7,235.9-47.7c130.6,0,157.3,4.2,227.5,37.9c334.2,155.9,400.2,605.2,127.8,853.8
		C7293.9,688.5,7102.9,737.7,6942.8,695.5z"/>
	<path class="st1" d="M5011.9,640.8c-175.5-66-269.6-196.6-269.6-374.9c0-153.1,77.2-279.5,219.1-353.9
		c84.3-44.9,258.4-44.9,342.6,0c141.8,74.4,219.1,200.8,219.1,353.9c0,151.7-71.6,272.4-202.2,342.6
		C5233.8,656.2,5093.3,670.3,5011.9,640.8z M5252,490.5c181.2-92.7,178.3-359.5-2.8-448c-78.6-37.9-154.5-37.9-233.1,0
		c-179.7,87.1-184,353.9-7,446.6C5079.3,527,5181.8,527,5252,490.5z"/>
	<path class="st1" d="M2631.6,527c-64.6-64.6-67.4-141.8-7-207.8c35.1-39.3,50.6-46.3,106.7-46.3c56.2,0,71.6,7,106.7,46.3
		c68.8,77.2,50.6,193.8-39.3,240.1C2739.8,588.8,2682.2,577.6,2631.6,527z"/>
	<path class="st1" d="M14895.3,350.1c-64.6-19.7-137.6-84.3-165.7-146c-103.9-228.9,130.6-464.8,359.5-360.9
		c193.8,87.1,213.5,355.3,35.1,473.2C15066.6,354.3,14958.5,371.2,14895.3,350.1z"/>
	<path class="st1" d="M10862.2,323.4c-75.8-32.3-110.9-133.4-71.6-209.2c23.9-47.7,85.7-87.1,134.8-87.1
		c74.4,0,154.5,80,154.5,154.5C11079.8,285.5,10960.5,362.7,10862.2,323.4z"/>
	<path class="st1" d="M17925.7,285.5c-56.2-60.4-52-147.5,8.4-209.2l40.7-42.1v144.6c0,78.6-2.8,143.2-7,143.2
		S17944,305.1,17925.7,285.5z"/>
	<path class="st1" d="M1803.1,184.4c-115.2-92.7-59-268.2,85.7-269.6c70.2,0,116.6,30.9,143.2,94.1c25.3,60.4,5.6,130.6-47.7,172.7
		C1939.3,216.7,1843.8,218.1,1803.1,184.4z"/>
	<path class="st1" d="M17087.4,77.7c-175.5-49.2-278-188.2-278-379.2c0-397.4,547.7-515.4,723.2-155.9
		c33.7,67.4,37.9,89.9,32.3,178.3c-5.6,118-36.5,189.6-106.7,261.2C17365.4,73.4,17213.8,114.2,17087.4,77.7z"/>
	<path class="st1" d="M2443.5-22C2282-68.4,2159.8-172.3,2086.8-324c-39.3-82.9-43.5-103.9-43.5-231.7c0-123.6,4.2-150.3,37.9-220.5
		c105.3-226.1,356.7-362.3,591.2-320.2c400.2,73,589.8,522.4,362.3,858c-56.2,82.9-191,184-279.5,209.2
		C2662.5-2.4,2526.3,0.4,2443.5-22z M2731.3-231.3c132-60.4,207.8-181.2,207.8-324.4c-1.4-106.7-43.5-200.8-119.4-266.8
		c-235.9-200.8-587-40.7-587,268.2c0,47.7,9.8,109.5,21.1,136.2C2331.1-234.1,2551.6-147,2731.3-231.3z"/>
	<path class="st1" d="M15725.2-41.7c-154.5-50.6-271-136.2-355.3-261.2c-101.1-151.7-134.8-325.8-99.7-495.7
		c108.1-519.6,735.8-714.8,1109.4-344.1c199.4,198,252.8,492.9,133.4,747.1c-54.8,120.8-120.8,196.6-224.7,266.8
		C16124-19.2,15903.6,14.5,15725.2-41.7z"/>
	<path class="st1" d="M10721.7-217.2c-82.9-36.5-116.6-105.3-91.3-184c22.5-66,74.4-105.3,143.2-105.3c73,0,151.7,71.6,151.7,139
		c0,66-37.9,127.8-91.3,150.3C10776.5-193.4,10775.1-193.4,10721.7-217.2z"/>
	<path class="st1" d="M5891-280.4c-92.7-22.5-176.9-103.9-202.2-193.8c-18.3-66-18.3-82.9-1.4-147.5
		c30.9-110.9,143.2-193.8,261.2-193.8c317.4,0,374.9,448,68.8,532.2C5955.6-266.4,5951.4-266.4,5891-280.4z"/>
	<path class="st1" d="M8060.6-283.2c-84.3-33.7-154.5-141.8-154.5-238.7c0-248.6,320.2-358.1,470.4-160.1
		c42.1,53.4,61.8,164.3,43.5,237.3c-11.2,44.9-85.7,130.6-136.2,157.3C8239-265,8114-262.2,8060.6-283.2z M8271.3-326.8
		c125-63.2,161.5-231.7,74.4-334.2c-19.7-23.9-53.4-52-75.8-63.2c-50.6-26.7-157.3-26.7-209.2,0c-126.4,64.6-157.3,244.3-60.4,346.9
		C8078.9-291.7,8170.1-276.2,8271.3-326.8z"/>
	<path class="st1" d="M3683.4-641.3c-143.2-71.6-85.7-286.5,78.6-286.5c33.7,0,59,12.6,94.1,47.7
		C3978.3-757.9,3837.9-562.7,3683.4-641.3z"/>
	<path class="st1" d="M10543.4-632.9c-120.8-36.5-193.8-130.6-193.8-251.4c0-139,91.3-244.3,228.9-262.6
		c84.3-12.6,198,40.7,247.2,113.7c39.3,59,53.4,165.7,30.9,235.9c-21.1,63.2-109.5,143.2-179.7,162.9
		C10616.4-617.5,10596.8-616.1,10543.4-632.9z M10713.3-689.1c143.2-73,160.1-286.5,28.1-380.6c-53.4-37.9-146-49.2-213.5-26.7
		c-101.1,32.3-168.5,162.9-139,265.4C10433.9-684.9,10579.9-620.3,10713.3-689.1z"/>
	<path class="st1" d="M1341.1-652.6c-53.4-23.9-126.4-101.1-146-153.1c-75.8-199.4,116.6-415.7,320.2-360.9
		c191,50.6,271,287.9,146,435.3C1586.8-641.3,1443.6-606.2,1341.1-652.6z"/>
	<path class="st1" d="M14648.1-739.6c-50.6-36.5-75.8-110.9-57.6-168.5c22.5-67.4,74.4-103.9,150.3-103.9
		c113.7,0,176.9,109.5,127.8,217.7C14836.3-722.8,14715.5-693.3,14648.1-739.6z"/>
	<path class="st1" d="M4196-941.9c-212-112.3-179.7-429.7,52-498.5c237.3-71.6,436.7,192.4,303.3,403
		C4478.3-923.6,4315.4-878.7,4196-941.9z"/>
	<path class="st1" d="M7274.2-957.3c-332.8-85.7-588.4-345.5-667-676.9c-26.7-112.3-26.7-316,1.4-431.1
		c37.9-161.5,110.9-287.9,244.3-422.7c96.9-98.3,141.8-132,238.7-179.7c155.9-75.8,292.1-105.3,456.4-95.5
		c389,22.5,700.7,261.2,829.9,634.7c33.7,98.3,39.3,133.4,39.3,280.9c0,148.9-5.6,182.6-40.7,287.9
		C8219.3-1099.1,7739-836.5,7274.2-957.3z M7687.1-1278.9c209.2-64.6,365.1-248.6,404.4-476.1c57.6-332.8-202.2-660-543.5-685.3
		c-254.2-19.7-481.7,116.6-592.6,355.3c-35.1,74.4-39.3,98.3-39.3,237.3c0,144.6,2.8,160.1,44.9,248.6
		C7093.1-1319.6,7390.8-1187.6,7687.1-1278.9z"/>
	<path class="st1" d="M1963.2-1006.5c-49.2-26.7-67.4-60.4-67.4-130.6c0-64.6,49.2-133.4,106.7-147.5
		c87.1-22.5,188.2,53.4,188.2,140.4C2190.7-1016.3,2074.1-944.7,1963.2-1006.5z"/>
	<path class="st1" d="M366.5-1055.6c-178.3-35.1-310.3-198-310.3-382c0-96.9,22.5-164.3,82.9-242.9
		c175.5-231.7,542.1-188.2,667,78.6c39.3,87.1,39.3,235.9,0,324.4C731.6-1116,543.5-1020.5,366.5-1055.6z M567.3-1215.7
		c81.4-39.3,127.8-119.4,127.8-224.7s-44.9-185.4-129.2-226.1c-66-32.3-176.9-33.7-238.7-1.4c-139,73-175.5,275.2-70.2,394.6
		C335.6-1182,452.2-1160.9,567.3-1215.7z"/>
	<path class="st1" d="M17469.3-1097.7c-153.1-46.3-238.7-223.3-176.9-367.9c23.9-54.8,99.7-129.2,153.1-148.9
		c146-56.2,321.6,33.7,362.3,184C17861.1-1232.5,17664.5-1040.2,17469.3-1097.7z"/>
	<path class="st1" d="M5129.9-1130c-261.2-84.3-424.1-348.3-382-613.7c28.1-176.9,151.7-339.8,318.8-417.1
		c70.2-33.7,96.9-37.9,227.5-37.9c134.8,0,154.5,4.2,231.7,40.7c110.9,54.8,209.2,154.5,264,272.4c40.7,85.7,44.9,106.7,44.9,227.5
		c0,123.6-4.2,141.8-46.3,227.5c-60.4,123.6-148.9,213.5-266.8,268.2c-77.2,36.5-113.7,44.9-213.5,47.7
		C5233.8-1111.8,5166.4-1117.4,5129.9-1130z M5407.9-1323.8c172.7-50.6,276.6-262.6,220.5-449.4c-22.5-74.4-123.6-185.4-196.6-214.9
		c-203.6-84.3-442.4,39.3-490.1,252.8C4881.3-1464.3,5134.1-1241,5407.9-1323.8z"/>
	<path class="st1" d="M8866.7-1270.5c-23.9-11.2-61.8-42.1-82.9-71.6c-89.9-116.6-49.2-293.5,81.4-356.7
		c74.4-36.5,126.4-36.5,199.4-2.8c141.8,64.6,186.8,213.5,103.9,348.3C9112.4-1263.4,8972-1225.5,8866.7-1270.5z M9057.7-1342.1
		c74.4-37.9,105.3-140.4,66-217.7c-22.5-44.9-102.5-98.3-146-98.3c-105.3,0-182.6,91.3-168.5,198
		C8824.5-1342.1,8946.7-1284.5,9057.7-1342.1z"/>
	<path class="st1" d="M14791.4-1329.4c-209.2-77.2-308.9-334.2-206.4-533.6c118-231.7,425.5-283.7,608.1-102.5
		c188.2,186.8,134.8,508.4-103.9,623.5C15016-1307,14870-1300,14791.4-1329.4z"/>
	<path class="st1" d="M10999.8-1351.9c-64.6-16.9-102.5-71.6-102.5-147.5c0-87.1,59-144.6,147.5-144.6c47.7,0,70.2,8.4,103.9,40.7
		c36.5,33.7,43.5,52,43.5,103.9C11192.2-1391.2,11103.7-1323.8,10999.8-1351.9z"/>
	<path class="st1" d="M2280.6-1447.4c-886.1-94.1-1599.5-733-1787.7-1603.7c-15.4-74.4-33.7-199.4-37.9-276.6l-9.8-141.8h358.1
		h358.1l8.4,123.6c37.9,546.3,456.4,1025.1,1015.3,1164.2c133.4,32.3,455,32.3,584.2,0c518.2-129.2,893.1-512.6,1001.3-1025.1
		c11.2-53.4,21.1-119.4,21.1-147.5c0-28.1,4.2-66,8.4-84.3l8.4-30.9h349.7h349.7v82.9c0,196.6-63.2,480.3-154.5,699.3
		C4010.6-1867.3,3155.4-1356.1,2280.6-1447.4z"/>
	<path class="st1" d="M10136.1-1450.2c-231.7-29.5-422.7-219.1-462-459.2c-54.8-339.8,234.5-655.8,575.8-629.1
		c148.9,11.2,247.2,56.2,353.9,162.9c122.2,122.2,157.3,209.2,158.7,389c1.4,119.4-1.4,133.4-52,233.1
		C10601-1531.7,10386.1-1417.9,10136.1-1450.2z M10377.7-1672.1c70.2-35.1,160.1-139,179.7-207.8c71.6-237.3-96.9-466.2-341.2-466.2
		c-330,0-480.3,408.6-228.9,623.5C10095.4-1628.6,10254.1-1608.9,10377.7-1672.1z"/>
	<path class="st1" d="M15622.7-1627.1c-56.2-35.1-116.6-108.1-127.8-151.7c-5.6-19.7-5.6-68.8-2.8-110.9
		c11.2-141.8,134.8-242.9,279.5-228.9c235.9,22.5,320.2,324.4,132,469C15833.3-1596.3,15688.7-1585,15622.7-1627.1z M15867-1667.9
		c139-103.9,134.8-303.3-8.4-387.6c-158.7-91.3-369.3,54.8-335.6,233.1C15552.5-1665.1,15744.9-1578,15867-1667.9z"/>
	<path class="st1" d="M16914.6-1776c-502.7-82.9-939.5-400.2-1161.3-844c-116.6-230.3-165.7-438.1-165.7-689.5v-160.1h272.4h271
		l7,172.7c5.6,136.2,15.4,193.8,44.9,283.7c98.3,289.3,313.2,519.6,591.2,630.5c52,21.1,154.5,47.7,228.9,60.4
		c115.2,19.7,154.5,19.7,262.6,5.6c244.3-32.3,442.4-129.2,610.9-297.7l98.3-98.3v363.7v363.7l-115.2,57.6
		c-224.7,109.5-411.5,157.3-664.2,164.3C17094.4-1759.2,16982-1764.8,16914.6-1776z"/>
	<path class="st1" d="M11602.2-1920.6c-70.2-44.9-129.2-151.7-129.2-227.5c1.4-99.7,82.9-219.1,172.7-252.8
		c54.8-21.1,155.9-19.7,210.6,4.2c57.6,23.9,127.8,103.9,150.3,169.9s9.8,164.3-29.5,226.1
		C11904.1-1882.7,11720.2-1844.8,11602.2-1920.6z"/>
	<path class="st1" d="M13274.7-1902.4c-146-47.7-259.8-148.9-325.8-287.9c-30.9-67.4-36.5-96.9-36.5-212
		c0-122.2,4.2-141.8,44.9-226.1c54.8-110.9,143.2-196.6,254.2-248.6c68.8-32.3,98.3-37.9,213.5-37.9s144.6,5.6,213.5,37.9
		c110.9,52,199.4,137.6,254.2,248.6c40.7,84.3,44.9,103.9,44.9,226.1c0,122.2-4.2,141.8-44.9,226.1
		c-88.5,179.7-247.2,280.9-446.6,289.3C13377.2-1884.1,13311.2-1891.2,13274.7-1902.4z"/>
	<path class="st1" d="M0-2683.2c0-383.4,4.2-491.5,18.3-491.5c32.3,0,157.3,81.4,209.2,136.2c28.1,29.5,68.8,88.5,91.3,130.6
		c36.5,70.2,39.3,89.9,39.3,224.7c-1.4,175.5-25.3,241.5-129.2,352.5c-60.4,64.6-175.5,139-214.9,139C4.2-2191.7,0-2354.6,0-2683.2z
		"/>
	<path class="st1" d="M8977.6-2218.4c-257-95.5-397.4-374.9-321.6-636.1c85.7-297.7,425.5-456.4,705-328.6
		c105.3,47.7,164.3,96.9,221.9,181.2c176.9,261.2,89.9,603.8-191,755.5c-78.6,40.7-102.5,46.3-214.9,50.6
		C9078.7-2191.7,9035.2-2197.3,8977.6-2218.4z"/>
	<path class="st1" d="M5798.3-2336.3c-178.3-50.6-289.3-212-276.6-401.6c15.4-220.5,189.6-366.5,410.1-349.7
		c203.6,16.9,351.1,178.3,349.7,384.8C6280-2454.3,6037-2270.3,5798.3-2336.3z"/>
	<path class="st1" d="M15075-2372.8c-168.5-75.8-207.8-292.1-77.2-422.7c203.6-203.6,543.5,28.1,422.7,287.9
		C15357.3-2370,15208.4-2312.4,15075-2372.8z M15287.1-2410.7c70.2-33.7,108.1-95.5,115.2-186.8c4.2-64.6,0-87.1-28.1-126.4
		c-54.8-81.4-101.1-106.7-193.8-106.7c-88.5,0-133.4,22.5-188.2,96.9c-40.7,54.8-40.7,186.8,0,242.9
		C15065.2-2392.5,15181.7-2361.6,15287.1-2410.7z"/>
	<path class="st1" d="M11437.9-2782.9c-331.4-42.1-653-195.2-888.9-424.1c-95.5-94.1-213.5-233.1-213.5-252.8
		c0-5.6,171.3-9.8,379.2-9.8h380.6l80,40.7c172.7,87.1,380.6,123.6,571.5,99.7c118-14,316-75.8,380.6-119.4
		c26.7-16.9,98.3-21.1,419.9-21.1c448,0,418.5-16.9,264,161.5C12479.9-2924.7,11943.5-2719.7,11437.9-2782.9z"/>
	<path class="st1" d="M8149.1-2938.8c-105.3-28.1-140.4-171.3-61.8-251.4c59-57.6,148.9-57.6,210.6,0c36.5,33.7,43.5,52,43.5,103.9
		C8341.5-2978.1,8253-2910.7,8149.1-2938.8z"/>
	<path class="st1" d="M14415-2941.6c-213.5-67.4-370.7-250-396-456.4l-8.4-71.6h101.1c92.7,0,99.7,2.8,99.7,29.5
		c0,106.7,92.7,240.1,203.6,293.5c95.5,46.3,244.3,36.5,338.4-21.1c78.6-49.2,151.7-155.9,165.7-245.8l8.4-56.2h91.3h91.3v56.2
		c0,126.4-91.3,285.1-217.7,383.4C14766.1-2934.5,14558.2-2896.6,14415-2941.6z"/>
	<path class="st1" d="M5089.1-3039.9c-56.2-56.2-63.2-116.6-19.7-186.8c64.6-105.3,235.9-75.8,273.8,49.1
		c12.6,43.5-16.9,123.6-59,157.3C5225.4-2973.9,5146.7-2982.3,5089.1-3039.9z"/>
	<path class="st1" d="M7105.7-3176.1c-125-21.1-264-96.9-359.5-198l-82.9-88.5l276.6-4.2c151.7-1.4,403-1.4,557.5,0l282.3,4.2
		l-63.2,71.6C7569.1-3221,7330.4-3138.2,7105.7-3176.1z"/>
</g>
</svg>
