<?xml version="1.0" encoding="utf-8"?>
<!-- Generator: Adobe Illustrator 21.1.0, SVG Export Plug-In . SVG Version: 6.00 Build 0)  -->
<svg version="1.1" id="Capa_1" xmlns="http://www.w3.org/2000/svg" xmlns:xlink="http://www.w3.org/1999/xlink" x="0px" y="0px"
	 viewBox="0 0 2000 1200" style="enable-background:new 0 0 2000 1200;" xml:space="preserve">
<style type="text/css">
	.st0{opacity:0.47;}
	.st1{fill:#C4423F;}
</style>
<g class="st0">
	<path class="st1" d="M3031.1,1001.3c4.1-1.7,8.5-1.3,12.8-0.7c-1.5-0.6-3-1.3-4.4-1.9c-0.6-0.3-1.3-0.6-1.9-0.9
		c-5.6-2.5-11-4.6-16.6-2.7c-6.6,2.3-12.4,7.7-16.7,12.2c-0.2,0.2-0.3,0.4-0.4,0.5c-0.3,0.4-0.6,0.8-1,1.2
		c-8.1,7.4-24.3,15.4-35.7,6.8c-3.7-2.8-6.3-6.6-8.5-10c-6.6-10.2-14.5-19-26.9-15.2c-0.3,0.1-0.6,0.2-0.9,0.4
		c-0.4,0.2-0.8,0.4-1.2,0.5c-0.2,0.1-0.4,0.2-0.7,0.3c-1.6,0.6-2.8,1.1-3.8,0.9c-0.7-0.1-1.3-0.6-1.5-1.2c-0.8-2.1,1-3.7,2-4.6
		c0.2-0.1,0.3-0.3,0.4-0.4c0.6-0.7,1.3-1.2,1.9-1.7c0.7-0.6,1.4-1.1,1.9-1.8c4.3-6.8,4.4-13.4,0.3-19.3c-6.4-9-21.7-14.3-33.5-11.6
		c-5.7,1.3-13,5.1-14.6,15.3l-1.2,7.5c-0.2,1.1-1.2,1.8-2.3,1.6c-1.1-0.2-1.8-1.2-1.6-2.2c1-6.4,2-13.7-0.1-20.2
		c-1.4-4.1-4.2-8.1-8.6-12.4c-15.9-15.3-39.9-21.6-61.2-16c-10,2.6-18.2,7.9-25.8,16.8c-4.9,5.7-10.8,13.4-12.9,22.3
		c-3.1,13,2.3,27.7,13.5,36.7c10.4,8.4,25.2,11.5,39.4,8.3c4.1-0.9,7.7-2.3,10.9-4c1.8-1.5,3.8-2.9,6-4.2c0.4-0.4,0.9-0.8,1.3-1.2
		c9.1-9.5,7.8-24.7,1.3-33.2c-5.7-7.6-14.1-9.2-23.1-4.5c-2.8,1.5-6.1,4.6-6.7,8c-0.3,1.8,0.2,3.4,1.5,4.8c0.7,0.8,0.7,2-0.1,2.8
		c-0.8,0.7-2,0.7-2.8-0.1c-2.2-2.3-3.1-5.2-2.6-8.2c0.8-4.8,5-8.9,8.7-10.8c10.7-5.6,21.2-3.5,28.1,5.7c6.4,8.5,8.4,22.7,2,33.5
		c6.1-1.9,13.4-2.6,21.8-1.5c8.7,1.1,20.3,6.3,24.4,17.2c4.4,11.7-2.7,24.1-11.6,29.7c-5.9,3.7-14.1,4.6-20,2.1
		c-4.5-1.9-7.5-5.4-8.6-10.2c-1.7-7.4,2.7-15.1,9.7-16.7c3.8-0.9,7.4-0.3,9.6,1.5c1.2,1,2.5,2.8,2.4,5.9c-0.1,1.9-1.2,3.9-2.9,5
		c-1.6,1.1-3.4,1.3-5.1,0.8c-1-0.4-1.6-1.5-1.2-2.5c0.4-1,1.5-1.6,2.5-1.2c0.6,0.2,1.3-0.1,1.5-0.3c0.7-0.5,1.1-1.2,1.2-1.9
		c0.1-1.2-0.3-2.1-1-2.7c-1.2-1-3.6-1.3-6.2-0.7c-5.4,1.3-7.8,7.2-6.7,12c0.8,3.5,2.9,6,6.3,7.4c4.8,2,11.6,1.2,16.4-1.8
		c7.6-4.8,13.7-15.2,10-25c-3.5-9.3-13.6-13.7-21.2-14.7c-11.2-1.4-20,0.5-26.8,4.2c-1.7,1.5-3.7,2.9-5.9,4.1
		c-3.9,3.4-6.6,7.4-8.3,11.4c-5.3,12.5-2.1,29.6,6.8,41.7c0.2,0.1,0.3,0.1,0.5,0.2c0.5,0.4,0.8,0.9,0.9,1.5c2.2,2.7,4.6,5.1,7.3,7
		c11.7,8.5,31.1,10.5,43.2,4.4c8.4-4.3,15.5-12,20-22c-2.2-0.7-4.1-1.6-5.8-2.8c-4.2-3-6.8-7.7-6.9-12.3c0-1.1,0.9-2,2-2
		c0,0,0,0,0,0c1.1,0,2,0.9,2,2c0,3.4,2,6.8,5.2,9c2.8,2,6.6,3.1,10.9,3.3c9.4,0.4,18-3.6,27.3-12.4c0.8-0.7,2-0.7,2.8,0.1
		c0.7,0.8,0.7,2-0.1,2.8c-9.6,9.1-19,13.5-28.9,13.5c-0.4,0-0.9,0-1.3,0c-1.1,0-2.1-0.1-3.1-0.3c-1.4,6.5,5.2,12.8,9.6,15.7
		c7.3,4.7,17.3,5.5,26.2,2.1c8.2-3.2,15.4-10.5,20.1-20.6c-3-3.4-4.2-7.9-3.8-11.8c0.6-5.1,4.2-10.5,12.7-10.7c1,0,4.6,0.1,7.4,3.1
		c2.3,2.5,3.3,6,2.8,10.5c-0.1,1.1-1.1,1.9-2.1,1.8c-1.1-0.1-1.9-1.1-1.8-2.1c0.3-3.3-0.3-5.8-1.8-7.4c-1.3-1.4-3.2-1.9-4.5-1.9
		c-7.2,0.2-8.6,5.1-8.8,7.2c-0.6,4.7,2.4,10.5,8.2,12c7.6,2,19.7-0.7,24.9-7.8c1.2-1.7,1-3,0.7-5c-0.3-1.6-0.5-3.5,0-5.6
		c1.4-5.3,6.1-5,9-4.9c0.9,0.1,1.8,0.1,2.8,0.1c0.7,0,1.5,0.1,1.9,0c3.9-1.2,4.9-5,5.9-10.6c0.3-1.5,0.5-2.9,0.9-4.2
		C3020.7,1008.3,3024.7,1003.9,3031.1,1001.3z"/>
	<path class="st1" d="M2822.3,1019.1c0.9-2.1,2.1-4.2,3.5-6.3c-1.3,0.4-2.6,0.8-4,1.1c-15.4,3.4-31.4,0-42.8-9.1
		c-6.2-5-10.8-11.6-13.4-18.8c-10,0.2-18.8,2.9-24.9,7.8c-7.8,6.2-14.7,18.3-13.1,29.4c0.8,5.1,3.5,10,7.6,13.2
		c5.8,4.6,16.9,5.9,24.3,2.8c4.6-1.9,7.2-5.2,7.6-9.7c0.6-5.9-3.6-9.9-7.8-11.1c-3.6-1.1-8.4-0.4-11,4.8c-0.5,1-1.7,1.4-2.7,0.9
		c-1-0.5-1.4-1.7-0.9-2.7c3-6,9.2-8.7,15.6-6.8c5.7,1.7,11.4,7.2,10.6,15.3c-0.6,5.9-4.2,10.5-10,13c-3.2,1.4-7,2-10.8,2
		c-6.5,0-13.1-1.9-17.5-5.3c-4.8-3.9-8.1-9.6-9.1-15.7c-0.3-2.3-0.4-4.5-0.1-6.8c-8-5.6-19.6-5.5-27.7,0.4c-3.4,2.5-5.8,6.1-8.3,9.8
		c-3.2,4.8-6.6,9.7-12.2,12.5c-2.8,1.4-5.8,1.7-8.7,1.9c-4.8,0.4-7.8-1-11-2.4c-1.3-0.6-2.6-1.1-4-1.6c-0.6-0.2-1.1-0.4-1.6-0.6
		c-1.3-0.5-2.4-0.9-3.6-1c-2.2-0.1-3.9,0.1-5.6,0.6c-0.1,0-0.3,0.1-0.4,0.1c5.5,2,8.3,8.1,9.9,11.6c3.7,8.2,7.7,13.4,16.3,13.9
		c7.9,0.4,14-3.5,20.4-7.7c3.4-2.2,7-4.6,10.9-6.2c1.1-0.4,2.1-0.8,3.1-1.1c0.3-0.2,0.6-0.4,1-0.5c1.5-0.3,3-0.4,4.4-0.4
		c8.9-0.5,17,4,25,8.3c6.1,3.3,12.4,6.8,18.8,7.7c9.8,1.4,19.5-1.1,25.9-6.9c0.8-0.7,2.1-0.7,2.8,0.1c0.7,0.8,0.7,2.1-0.1,2.8
		c-5.9,5.4-14.3,8.3-23.2,8.3c-1.9,0-3.9-0.1-5.9-0.4c-7-1-13.6-4.6-19.9-8.1c1.3,1.2,2.5,2.4,3.6,3.6c1.8,1.8,3.4,3.5,5,4.8
		c0.9,0.8,1.7,1.5,2.6,2.2c6.6,5.8,11.4,10,20.2,11.6c5.6,1,11.9,0.4,17.2-1.8c5.5-2.2,8.6-5.9,12.2-10.1c0.6-0.7,1.3-1.5,2-2.3
		c0,0,0,0,0,0c0.7-0.8,2-0.9,2.8-0.2c0.5,0.5,0.8,1.2,0.6,1.8c0.7,1,3.2,3,5.7,4.6c10.1,6.7,21.2,0.8,27.8-7.9
		C2819.7,1051.5,2816.4,1033,2822.3,1019.1z"/>
</g>
<g class="st0">
	<path class="st1" d="M2786.4,243c4.1-1.7,8.5-1.3,12.8-0.7c-1.5-0.6-3-1.3-4.4-1.9c-0.6-0.3-1.3-0.6-1.9-0.9
		c-5.6-2.5-11-4.6-16.6-2.7c-6.6,2.3-12.4,7.7-16.7,12.2c-0.2,0.2-0.3,0.4-0.4,0.5c-0.3,0.4-0.6,0.8-1,1.2
		c-8.1,7.4-24.3,15.4-35.7,6.8c-3.7-2.8-6.3-6.6-8.5-10c-6.6-10.2-14.5-19-26.9-15.2c-0.3,0.1-0.6,0.2-0.9,0.4
		c-0.4,0.2-0.8,0.4-1.2,0.5c-0.2,0.1-0.4,0.2-0.7,0.3c-1.6,0.6-2.8,1.1-3.8,0.9c-0.7-0.1-1.3-0.6-1.5-1.2c-0.8-2.1,1-3.7,2-4.6
		c0.2-0.1,0.3-0.3,0.4-0.4c0.6-0.7,1.3-1.2,1.9-1.7c0.7-0.6,1.4-1.1,1.9-1.8c4.3-6.8,4.4-13.4,0.3-19.3c-6.4-9-21.7-14.3-33.5-11.6
		c-5.8,1.3-13,5.1-14.6,15.3l-1.2,7.5c-0.2,1.1-1.2,1.8-2.2,1.6c-1.1-0.2-1.8-1.2-1.6-2.2c1-6.4,2-13.7-0.1-20.2
		c-1.4-4.1-4.2-8.1-8.6-12.4c-15.9-15.3-39.9-21.6-61.2-16c-10,2.6-18.2,7.9-25.8,16.8c-4.9,5.7-10.8,13.4-12.9,22.3
		c-3.1,13,2.3,27.7,13.5,36.7c10.4,8.4,25.2,11.5,39.4,8.3c4.1-0.9,7.7-2.3,10.9-4c1.8-1.5,3.8-2.9,6-4.2c0.4-0.4,0.9-0.8,1.3-1.2
		c9.1-9.5,7.8-24.7,1.3-33.2c-5.7-7.6-14.1-9.2-23.1-4.5c-2.8,1.5-6.1,4.6-6.7,8c-0.3,1.8,0.2,3.4,1.5,4.8c0.7,0.8,0.7,2-0.1,2.8
		c-0.8,0.7-2,0.7-2.8-0.1c-2.2-2.3-3.1-5.2-2.6-8.2c0.8-4.8,5-8.9,8.8-10.8c10.7-5.6,21.2-3.5,28.1,5.7c6.4,8.5,8.4,22.7,2,33.5
		c6.1-1.9,13.4-2.6,21.8-1.5c8.7,1.1,20.3,6.3,24.4,17.2c4.4,11.7-2.7,24.1-11.6,29.7c-5.9,3.7-14.1,4.6-20,2.1
		c-4.5-1.9-7.5-5.4-8.6-10.2c-1.7-7.4,2.7-15.1,9.7-16.7c3.8-0.9,7.4-0.3,9.6,1.5c1.2,1,2.5,2.8,2.4,5.9c-0.1,1.9-1.2,3.9-2.9,5
		c-1.6,1.1-3.4,1.3-5.1,0.8c-1-0.4-1.6-1.5-1.2-2.5c0.4-1,1.5-1.6,2.5-1.2c0.6,0.2,1.3-0.1,1.5-0.3c0.7-0.5,1.1-1.2,1.2-1.9
		c0.1-1.2-0.3-2.1-1-2.7c-1.2-1-3.6-1.3-6.2-0.7c-5.4,1.3-7.8,7.2-6.7,12c0.8,3.5,2.9,6,6.3,7.4c4.8,2,11.6,1.2,16.4-1.8
		c7.6-4.8,13.7-15.2,10-25c-3.5-9.3-13.6-13.7-21.2-14.7c-11.2-1.4-20,0.5-26.8,4.2c-1.7,1.5-3.7,2.9-5.9,4.1
		c-3.9,3.4-6.6,7.4-8.3,11.4c-5.3,12.5-2.1,29.6,6.8,41.7c0.2,0.1,0.3,0.1,0.5,0.2c0.5,0.4,0.8,0.9,0.9,1.5c2.2,2.7,4.6,5.1,7.3,7
		c11.7,8.5,31.1,10.5,43.2,4.4c8.4-4.3,15.5-12,20-22c-2.2-0.7-4.1-1.6-5.8-2.8c-4.2-3-6.8-7.7-6.9-12.3c0-1.1,0.9-2,2-2
		c0,0,0,0,0,0c1.1,0,2,0.9,2,2c0,3.4,2,6.8,5.2,9c2.8,2,6.6,3.1,10.9,3.3c9.4,0.4,18-3.6,27.3-12.4c0.8-0.7,2-0.7,2.8,0.1
		c0.7,0.8,0.7,2-0.1,2.8c-9.6,9.1-19,13.5-28.9,13.5c-0.4,0-0.9,0-1.3,0c-1.1,0-2.1-0.1-3.1-0.3c-1.4,6.5,5.2,12.8,9.6,15.7
		c7.3,4.7,17.3,5.5,26.2,2.1c8.2-3.2,15.4-10.5,20.1-20.6c-3-3.4-4.2-7.9-3.8-11.8c0.6-5.1,4.2-10.5,12.7-10.7c1,0,4.6,0.1,7.4,3.1
		c2.3,2.5,3.3,6,2.8,10.5c-0.1,1.1-1.1,1.9-2.1,1.8c-1.1-0.1-1.9-1.1-1.8-2.1c0.3-3.3-0.3-5.8-1.8-7.4c-1.3-1.4-3.2-1.9-4.5-1.9
		c-7.2,0.2-8.6,5.1-8.8,7.2c-0.6,4.7,2.4,10.5,8.2,12c7.6,2,19.7-0.7,24.9-7.8c1.2-1.7,1-3,0.7-5c-0.3-1.6-0.5-3.5,0-5.6
		c1.4-5.3,6.1-5,9-4.9c0.9,0.1,1.8,0.1,2.8,0.1c0.7,0,1.5,0.1,1.9,0c3.9-1.2,4.9-5,5.9-10.6c0.3-1.5,0.5-2.9,0.9-4.2
		C2776,250,2780,245.6,2786.4,243z"/>
	<path class="st1" d="M2577.6,260.9c0.9-2.1,2.1-4.2,3.5-6.3c-1.3,0.4-2.6,0.8-4,1.1c-15.4,3.4-31.4,0-42.8-9.1
		c-6.2-5-10.8-11.6-13.4-18.8c-10,0.2-18.8,2.9-24.9,7.8c-7.8,6.2-14.7,18.3-13.1,29.4c0.8,5.1,3.5,10,7.6,13.2
		c5.8,4.6,16.9,5.9,24.3,2.8c4.6-1.9,7.2-5.2,7.6-9.7c0.6-5.9-3.6-9.9-7.8-11.1c-3.6-1.1-8.4-0.4-11,4.8c-0.5,1-1.7,1.4-2.7,0.9
		c-1-0.5-1.4-1.7-0.9-2.7c3-6,9.2-8.7,15.6-6.8c5.7,1.7,11.4,7.2,10.6,15.3c-0.6,5.9-4.2,10.5-10,13c-3.2,1.4-7,2-10.8,2
		c-6.5,0-13.1-1.9-17.5-5.3c-4.8-3.9-8.1-9.6-9.1-15.7c-0.3-2.3-0.4-4.5-0.1-6.8c-8-5.6-19.6-5.5-27.7,0.4c-3.4,2.5-5.8,6.1-8.3,9.8
		c-3.2,4.8-6.6,9.7-12.2,12.5c-2.8,1.4-5.8,1.7-8.7,1.9c-4.8,0.4-7.8-1-11-2.4c-1.3-0.6-2.6-1.1-4-1.6c-0.6-0.2-1.1-0.4-1.6-0.6
		c-1.3-0.5-2.4-0.9-3.6-1c-2.2-0.1-3.9,0.1-5.6,0.6c-0.1,0-0.3,0.1-0.4,0.1c5.5,2,8.3,8.1,9.9,11.6c3.7,8.2,7.7,13.4,16.3,13.9
		c7.9,0.4,14-3.5,20.4-7.7c3.4-2.2,7-4.6,10.9-6.2c1.1-0.4,2.1-0.8,3.1-1.1c0.3-0.2,0.6-0.4,1-0.5c1.5-0.3,3-0.4,4.4-0.4
		c8.9-0.5,17,4,25,8.3c6.1,3.3,12.4,6.8,18.8,7.7c9.8,1.4,19.5-1.1,25.9-6.9c0.8-0.7,2.1-0.7,2.8,0.1c0.7,0.8,0.7,2.1-0.1,2.8
		c-5.9,5.4-14.3,8.3-23.2,8.3c-1.9,0-3.9-0.1-5.9-0.4c-7-1-13.6-4.6-19.9-8.1c1.3,1.2,2.5,2.4,3.6,3.6c1.8,1.8,3.4,3.5,5,4.8
		c0.9,0.8,1.7,1.5,2.6,2.2c6.6,5.8,11.4,10,20.2,11.6c5.6,1,11.9,0.4,17.2-1.8c5.5-2.2,8.6-5.9,12.2-10.1c0.6-0.7,1.3-1.5,2-2.3
		c0,0,0,0,0,0c0.7-0.8,2-0.9,2.8-0.2c0.5,0.5,0.8,1.2,0.6,1.8c0.7,1,3.2,3,5.7,4.6c10.1,6.7,21.2,0.8,27.8-7.9
		C2575,293.2,2571.7,274.8,2577.6,260.9z"/>
</g>
<g class="st0">
	<path class="st1" d="M622.6,308.5c-6.9-2-12.5-6.2-17.9-10.4c-3.6-2.8-7-5.3-10.7-7.3c-9.7-5.2-18.8-7.1-26.9-5.8
		c-5.2,0.9-10.2,4.1-16.2,10.6c-0.1,0.1-0.1,0.1-0.2,0.1c-0.4,2.1-1.5,4.1-3.2,5.4c-1.8,1.5-4.1,2-6.3,1.6c-2.8-0.6-4.5-2.4-4.3-4.8
		c0.1-1.1,1-1.9,2.1-1.9c1.1,0.1,1.9,1,1.9,2.1c0,0.3,0.6,0.6,1.1,0.7c1.4,0.3,2.4-0.3,3.1-0.8c1.2-0.9,1.9-2.5,1.9-4
		c0-3.2-1.3-5.7-4-7.4c-4.3-2.7-11.6-2.8-16.5-0.3c-4.1,2.1-7.6,5.6-11.2,9.3c-2.6,2.7-5.4,5.5-8.4,7.7c-7.9,5.7-16.3,8.7-25,8.8
		c-9.9,0.1-18.2-3.3-26.8-7.1c-1.8-0.8-3.6-1.5-5.4-2.3c-8.1-3.3-16.1-5.8-23.9-7.6c-16.4-3.8-32.9-4.7-48.9-2.8
		c-9.4,1.1-18.9,3.3-28.1,6.3c-10.3,3.5-20.6,7.8-30.5,12c-4.9,2.1-10,4.2-15,6.2c-5.6,2.2-11.1,4-16.6,5.3
		c-6.8,1.6-13.4,2.4-19.6,2.4c-5.4,0-10.5-0.6-15.3-1.8c0,0-0.1,0-0.1,0c15.2,6.1,30.2,8,45.7,6c15.3-2.1,30.8-6.4,45.8-10.7
		c6.8-1.9,13.9-3.9,20.9-5.7c42.4-10.7,74.2-8.1,97.3,7.8c17.3,11.9,36.1,22.9,58.3,14.8c7.8-2.8,14.3-7.5,21.2-12.5
		c4.9-3.5,9.9-7.1,15.4-10c13.2-7,29.7-7.8,45.1-2.3c1.1,0.4,2.2,0.8,3.3,1.2c8.9,3.3,18.2,6.8,25.8,1c1.6-1.2,2.9-2.6,4.1-4.1
		C630.7,309.5,626.4,309.6,622.6,308.5z"/>
	<path class="st1" d="M284.6,312.2c-10.7,2.8-21.4,4.2-31.9,4.2c-2.9,0-5.8-0.1-8.6-0.3c3,1.1,5.9,2.1,8.7,2.8
		c9.8,2.4,20.9,2.2,33-0.6c5.3-1.2,10.7-2.9,16-5.1c4.9-2,10-4.1,14.9-6.2c10-4.2,20.4-8.6,30.8-12.1c9.5-3.2,19.2-5.4,28.8-6.5
		c16.5-2,33.4-1,50.3,2.9c8,1.8,16.2,4.5,24.5,7.8c1.9,0.8,3.7,1.5,5.5,2.3c8.3,3.5,16.1,6.9,25.2,6.7c5.1-0.1,10.2-1.3,15-3.5
		c0.1-0.1,0.2-0.2,0.3-0.2c7.1-3.5,10.8-15.5,10.2-21.9c-0.5-4.6-1.6-8.6-3.5-11.9c-4.8-8.4-14.9-13.6-24.6-12.6
		c-8.7,0.9-16.5,8.8-17,17.3c-0.3,4.9,1.2,9.5,3.9,12.4c2.3,2.4,5.5,3.7,9.4,3.7c0.3,0,0.5,0.1,0.7,0.1c3.5-1.1,6.6-3.1,7.7-6.2
		c0.8-2.2,0-5.5-1.7-7.3c-0.6-0.7-2.6-1.4-4.1-1.1c-0.9,0.2-1,0.6-1.1,0.8c-0.4,1-1.6,1.5-2.6,1c-1-0.4-1.5-1.6-1-2.6
		c0.7-1.7,2.1-2.8,4.1-3.1c2.6-0.5,6,0.5,7.7,2.3c2.7,2.8,3.8,7.7,2.6,11.3c-2.9,8.4-14.9,10.8-22.1,9.7c-5.8-0.9-10.9-3.5-15.9-6.1
		c-2-1-3.9-2-5.8-2.9c-9.4-4.2-16.7-7-23.8-8.9c-18.9-5.1-37.7-5.9-57.4-2.3c-14.9,2.7-27.4,10.3-40.7,18.3
		C310.4,301.4,298.3,308.7,284.6,312.2z"/>
</g>
<g class="st0">
	<path class="st1" d="M390.2,205.7c-6.9-2-12.5-6.2-17.9-10.4c-3.6-2.8-7-5.3-10.7-7.3c-9.7-5.2-18.8-7.1-26.9-5.8
		c-5.2,0.9-10.2,4.1-16.2,10.6c-0.1,0.1-0.1,0.1-0.2,0.1c-0.4,2.1-1.5,4.1-3.2,5.4c-1.8,1.5-4.1,2-6.3,1.6c-2.8-0.6-4.5-2.4-4.3-4.8
		c0.1-1.1,1-1.9,2.1-1.9c1.1,0.1,1.9,1,1.9,2.1c0,0.3,0.6,0.6,1.1,0.7c1.4,0.3,2.4-0.3,3.1-0.8c1.2-0.9,1.9-2.5,1.9-4
		c0-3.2-1.3-5.7-4-7.4c-4.3-2.7-11.6-2.8-16.5-0.3c-4.1,2.1-7.6,5.6-11.2,9.3c-2.6,2.7-5.4,5.5-8.4,7.7c-7.9,5.7-16.3,8.7-25,8.8
		c-9.9,0.1-18.2-3.3-26.8-7.1c-1.8-0.8-3.6-1.5-5.4-2.3c-8.1-3.3-16.1-5.8-23.9-7.6c-16.4-3.8-32.9-4.7-48.9-2.8
		c-9.4,1.1-18.9,3.3-28.1,6.3c-10.3,3.5-20.6,7.8-30.5,12c-4.9,2.1-10,4.2-15,6.2c-5.6,2.2-11.1,4-16.6,5.3
		c-6.8,1.6-13.4,2.4-19.6,2.4c-5.4,0-10.5-0.6-15.3-1.8c0,0-0.1,0-0.1,0c15.2,6.1,30.2,8,45.7,6c15.3-2.1,30.8-6.4,45.8-10.7
		c6.8-1.9,13.9-3.9,20.9-5.7c42.4-10.7,74.2-8.1,97.3,7.8c17.3,11.9,36.1,22.9,58.3,14.8c7.8-2.8,14.3-7.5,21.2-12.5
		c4.9-3.5,9.9-7.1,15.4-10c13.2-7,29.7-7.8,45.1-2.3c1.1,0.4,2.2,0.8,3.3,1.2c8.9,3.3,18.2,6.8,25.8,1c1.6-1.2,2.9-2.6,4.1-4.1
		C398.3,206.7,394,206.7,390.2,205.7z"/>
	<path class="st1" d="M52.2,209.4c-10.7,2.8-21.4,4.2-31.9,4.2c-2.9,0-5.8-0.1-8.6-0.3c3,1.1,5.9,2.1,8.7,2.8
		c9.8,2.4,20.9,2.2,33-0.6c5.3-1.2,10.7-2.9,16-5.1c4.9-2,10-4.1,14.9-6.2c10-4.2,20.4-8.6,30.8-12.1c9.5-3.2,19.2-5.4,28.8-6.5
		c16.5-2,33.4-1,50.3,2.9c8,1.8,16.2,4.5,24.5,7.8c1.9,0.8,3.7,1.5,5.5,2.3c8.3,3.5,16.1,6.9,25.2,6.7c5.1-0.1,10.2-1.3,15-3.5
		c0.1-0.1,0.2-0.2,0.3-0.2c7.1-3.5,10.8-15.5,10.2-21.9c-0.5-4.6-1.6-8.6-3.5-11.9c-4.8-8.4-14.9-13.6-24.6-12.6
		c-8.7,0.9-16.5,8.8-17,17.3c-0.3,4.9,1.2,9.5,3.9,12.4c2.3,2.4,5.5,3.7,9.4,3.7c0.3,0,0.5,0.1,0.7,0.1c3.5-1.1,6.6-3.1,7.7-6.2
		c0.8-2.2,0-5.5-1.7-7.3c-0.6-0.7-2.6-1.4-4.1-1.1c-0.9,0.2-1,0.6-1.1,0.8c-0.4,1-1.6,1.5-2.6,1c-1-0.4-1.5-1.6-1-2.6
		c0.7-1.7,2.1-2.8,4.1-3.1c2.6-0.5,6,0.5,7.7,2.3c2.7,2.8,3.8,7.7,2.6,11.3c-2.9,8.4-14.9,10.8-22.1,9.7c-5.8-0.9-10.9-3.5-15.9-6.1
		c-2-1-3.9-2-5.8-2.9c-9.4-4.2-16.7-7-23.8-8.9c-18.9-5.1-37.7-5.9-57.4-2.3c-14.9,2.7-27.4,10.3-40.7,18.3
		C78,198.6,65.9,205.8,52.2,209.4z"/>
</g>
<g class="st0">
	<path class="st1" d="M626.5,87.4c-6.9-2-12.5-6.2-17.9-10.4c-3.6-2.8-7-5.3-10.7-7.3c-9.7-5.2-18.8-7.1-26.9-5.8
		c-5.2,0.9-10.2,4.1-16.2,10.6c-0.1,0.1-0.1,0.1-0.2,0.1c-0.4,2.1-1.5,4.1-3.2,5.4c-1.8,1.5-4.1,2-6.3,1.6c-2.8-0.6-4.5-2.4-4.3-4.8
		c0.1-1.1,1-1.9,2.1-1.9c1.1,0.1,1.9,1,1.9,2.1c0,0.3,0.6,0.6,1.1,0.7c1.4,0.3,2.4-0.3,3.1-0.8c1.2-0.9,1.9-2.5,1.9-4
		c0-3.2-1.3-5.7-4-7.4c-4.3-2.7-11.6-2.8-16.5-0.3c-4.1,2.1-7.6,5.6-11.2,9.3c-2.6,2.7-5.4,5.5-8.4,7.7c-7.9,5.7-16.3,8.7-25,8.8
		c-9.9,0.1-18.2-3.3-26.8-7.1c-1.8-0.8-3.6-1.5-5.4-2.3c-8.1-3.3-16.1-5.8-23.9-7.6c-16.4-3.8-32.9-4.7-48.9-2.8
		c-9.4,1.1-18.9,3.3-28.1,6.3c-10.3,3.5-20.6,7.8-30.5,12c-4.9,2.1-10,4.2-15,6.2c-5.6,2.2-11.1,4-16.6,5.3
		c-6.8,1.6-13.4,2.4-19.6,2.4c-5.4,0-10.5-0.6-15.3-1.8c0,0-0.1,0-0.1,0c15.2,6.1,30.2,8,45.7,6c15.3-2.1,30.8-6.4,45.8-10.7
		c6.8-1.9,13.9-3.9,20.9-5.7c42.4-10.7,74.2-8.1,97.3,7.8c17.3,11.9,36.1,22.9,58.3,14.8c7.8-2.8,14.3-7.5,21.2-12.5
		c4.9-3.5,9.9-7.1,15.4-10c13.2-7,29.7-7.8,45.1-2.3c1.1,0.4,2.2,0.8,3.3,1.2c8.9,3.3,18.2,6.8,25.8,1c1.6-1.2,2.9-2.6,4.1-4.1
		C634.5,88.5,630.3,88.5,626.5,87.4z"/>
	<path class="st1" d="M288.4,91.2c-10.7,2.8-21.4,4.2-31.9,4.2c-2.9,0-5.8-0.1-8.6-0.3c3,1.1,5.9,2.1,8.7,2.8
		c9.8,2.4,20.9,2.2,33-0.6c5.3-1.2,10.7-2.9,16-5.1c4.9-2,10-4.1,14.9-6.2c10-4.2,20.4-8.6,30.8-12.1c9.5-3.2,19.2-5.4,28.8-6.5
		c16.5-2,33.4-1,50.3,2.9c8,1.8,16.2,4.5,24.5,7.8c1.9,0.8,3.7,1.5,5.5,2.3c8.3,3.5,16.1,6.9,25.2,6.7c5.1-0.1,10.2-1.3,15-3.5
		c0.1-0.1,0.2-0.2,0.3-0.2c7.1-3.5,10.8-15.5,10.2-21.9c-0.5-4.6-1.6-8.6-3.5-11.9c-4.8-8.4-14.9-13.6-24.6-12.6
		c-8.7,0.9-16.5,8.8-17,17.3c-0.3,4.9,1.2,9.5,3.9,12.4c2.3,2.4,5.5,3.7,9.4,3.7c0.3,0,0.5,0.1,0.7,0.1c3.5-1.1,6.6-3.1,7.7-6.2
		c0.8-2.2,0-5.5-1.7-7.3c-0.6-0.7-2.6-1.4-4.1-1.1c-0.9,0.2-1,0.6-1.1,0.8c-0.4,1-1.6,1.5-2.6,1c-1-0.4-1.5-1.6-1-2.6
		c0.7-1.7,2.1-2.8,4.1-3.1c2.6-0.5,6,0.5,7.7,2.3c2.7,2.8,3.8,7.7,2.6,11.3c-2.9,8.4-14.9,10.8-22.1,9.7c-5.8-0.9-10.9-3.5-15.9-6.1
		c-2-1-3.9-2-5.8-2.9c-9.4-4.2-16.7-7-23.8-8.9c-18.9-5.1-37.7-5.9-57.4-2.3c-14.9,2.7-27.4,10.3-40.7,18.3
		C314.2,80.3,302.1,87.6,288.4,91.2z"/>
</g>
<g class="st0">
	<path class="st1" d="M1290,308.5c-6.9-2-12.5-6.2-17.9-10.4c-3.6-2.8-7-5.3-10.7-7.3c-9.7-5.2-18.8-7.1-26.9-5.8
		c-5.2,0.9-10.2,4.1-16.2,10.6c-0.1,0.1-0.1,0.1-0.2,0.1c-0.4,2.1-1.5,4.1-3.2,5.4c-1.8,1.5-4.1,2-6.3,1.6c-2.8-0.6-4.5-2.4-4.3-4.8
		c0.1-1.1,1-1.9,2.1-1.9c1.1,0.1,1.9,1,1.9,2.1c0,0.3,0.6,0.6,1.1,0.7c1.4,0.3,2.4-0.3,3.1-0.8c1.2-0.9,1.9-2.5,1.9-4
		c0-3.2-1.3-5.7-4-7.4c-4.3-2.7-11.6-2.8-16.5-0.3c-4.1,2.1-7.6,5.6-11.2,9.3c-2.6,2.7-5.4,5.5-8.4,7.7c-7.9,5.7-16.3,8.7-25,8.8
		c-9.9,0.1-18.2-3.3-26.8-7.1c-1.8-0.8-3.6-1.5-5.4-2.3c-8.1-3.3-16.1-5.8-23.9-7.6c-16.4-3.8-32.9-4.7-48.9-2.8
		c-9.4,1.1-18.9,3.3-28.1,6.3c-10.3,3.5-20.6,7.8-30.5,12c-4.9,2.1-10,4.2-15,6.2c-5.6,2.2-11.1,4-16.6,5.3
		c-6.8,1.6-13.4,2.4-19.6,2.4c-5.4,0-10.5-0.6-15.3-1.8c0,0-0.1,0-0.1,0c15.2,6.1,30.2,8,45.7,6c15.3-2.1,30.8-6.4,45.8-10.7
		c6.8-1.9,13.9-3.9,20.9-5.7c42.4-10.7,74.2-8.1,97.3,7.8c17.3,11.9,36.1,22.9,58.3,14.8c7.8-2.8,14.3-7.5,21.2-12.5
		c4.9-3.5,9.9-7.1,15.4-10c13.2-7,29.7-7.8,45.1-2.3c1.1,0.4,2.2,0.8,3.3,1.2c8.9,3.3,18.2,6.8,25.8,1c1.6-1.2,2.9-2.6,4.1-4.1
		C1298.1,309.5,1293.8,309.6,1290,308.5z"/>
	<path class="st1" d="M951.9,312.2c-10.7,2.8-21.4,4.2-31.9,4.2c-2.9,0-5.8-0.1-8.6-0.3c3,1.1,5.9,2.1,8.7,2.8
		c9.8,2.4,20.9,2.2,33-0.6c5.3-1.2,10.7-2.9,16-5.1c4.9-2,10-4.1,14.9-6.2c10-4.2,20.4-8.6,30.8-12.1c9.5-3.2,19.2-5.4,28.8-6.5
		c16.5-2,33.4-1,50.3,2.9c8,1.8,16.2,4.5,24.5,7.8c1.9,0.8,3.7,1.5,5.5,2.3c8.3,3.5,16.1,6.9,25.2,6.7c5.1-0.1,10.2-1.3,15-3.5
		c0.1-0.1,0.2-0.2,0.3-0.2c7.1-3.5,10.8-15.5,10.2-21.9c-0.5-4.6-1.6-8.6-3.5-11.9c-4.8-8.4-14.9-13.6-24.6-12.6
		c-8.7,0.9-16.5,8.8-17,17.3c-0.3,4.9,1.2,9.5,3.9,12.4c2.3,2.4,5.5,3.7,9.4,3.7c0.3,0,0.5,0.1,0.7,0.1c3.5-1.1,6.6-3.1,7.7-6.2
		c0.8-2.2,0-5.5-1.7-7.3c-0.6-0.7-2.6-1.4-4.1-1.1c-0.9,0.2-1,0.6-1.1,0.8c-0.4,1-1.6,1.5-2.6,1c-1-0.4-1.5-1.6-1-2.6
		c0.7-1.7,2.1-2.8,4.1-3.1c2.6-0.5,6,0.5,7.7,2.3c2.7,2.8,3.8,7.7,2.6,11.3c-2.9,8.4-14.9,10.8-22.1,9.7c-5.8-0.9-10.9-3.5-15.9-6.1
		c-2-1-3.9-2-5.8-2.9c-9.4-4.2-16.7-7-23.8-8.9c-18.9-5.1-37.7-5.9-57.4-2.3c-14.9,2.7-27.4,10.3-40.7,18.3
		C977.7,301.4,965.6,308.7,951.9,312.2z"/>
</g>
<g class="st0">
	<path class="st1" d="M1293.8,87.4c-6.9-2-12.5-6.2-17.9-10.4c-3.6-2.8-7-5.3-10.7-7.3c-9.7-5.2-18.8-7.1-26.9-5.8
		c-5.2,0.9-10.2,4.1-16.2,10.6c-0.1,0.1-0.1,0.1-0.2,0.1c-0.4,2.1-1.5,4.1-3.2,5.4c-1.8,1.5-4.1,2-6.3,1.6c-2.8-0.6-4.5-2.4-4.3-4.8
		c0.1-1.1,1-1.9,2.1-1.9c1.1,0.1,1.9,1,1.9,2.1c0,0.3,0.6,0.6,1.1,0.7c1.4,0.3,2.4-0.3,3.1-0.8c1.2-0.9,1.9-2.5,1.9-4
		c0-3.2-1.3-5.7-4-7.4c-4.3-2.7-11.6-2.8-16.5-0.3c-4.1,2.1-7.6,5.6-11.2,9.3c-2.6,2.7-5.4,5.5-8.4,7.7c-7.9,5.7-16.3,8.7-25,8.8
		c-9.9,0.1-18.2-3.3-26.8-7.1c-1.8-0.8-3.6-1.5-5.4-2.3c-8.1-3.3-16.1-5.8-23.9-7.6c-16.4-3.8-32.9-4.7-48.9-2.8
		c-9.4,1.1-18.9,3.3-28.1,6.3c-10.3,3.5-20.6,7.8-30.5,12c-4.9,2.1-10,4.2-15,6.2c-5.6,2.2-11.1,4-16.6,5.3
		c-6.8,1.6-13.4,2.4-19.6,2.4c-5.4,0-10.5-0.6-15.3-1.8c0,0-0.1,0-0.1,0c15.2,6.1,30.2,8,45.7,6c15.3-2.1,30.8-6.4,45.8-10.7
		c6.8-1.9,13.9-3.9,20.9-5.7c42.4-10.7,74.2-8.1,97.3,7.8c17.3,11.9,36.1,22.9,58.3,14.8c7.8-2.8,14.3-7.5,21.2-12.5
		c4.9-3.5,9.9-7.1,15.4-10c13.2-7,29.7-7.8,45.1-2.3c1.1,0.4,2.2,0.8,3.3,1.2c8.9,3.3,18.2,6.8,25.8,1c1.6-1.2,2.9-2.6,4.1-4.1
		C1301.9,88.5,1297.6,88.5,1293.8,87.4z"/>
	<path class="st1" d="M955.8,91.2c-10.7,2.8-21.4,4.2-31.9,4.2c-2.9,0-5.8-0.1-8.6-0.3c3,1.1,5.9,2.1,8.7,2.8
		c9.8,2.4,20.9,2.2,33-0.6c5.3-1.2,10.7-2.9,16-5.1c4.9-2,10-4.1,14.9-6.2c10-4.2,20.4-8.6,30.8-12.1c9.5-3.2,19.2-5.4,28.8-6.5
		c16.5-2,33.4-1,50.3,2.9c8,1.8,16.2,4.5,24.5,7.8c1.9,0.8,3.7,1.5,5.5,2.3c8.3,3.5,16.1,6.9,25.2,6.7c5.1-0.1,10.2-1.3,15-3.5
		c0.1-0.1,0.2-0.2,0.3-0.2c7.1-3.5,10.8-15.5,10.2-21.9c-0.5-4.6-1.6-8.6-3.5-11.9c-4.8-8.4-14.9-13.6-24.6-12.6
		c-8.7,0.9-16.5,8.8-17,17.3c-0.3,4.9,1.2,9.5,3.9,12.4c2.3,2.4,5.5,3.7,9.4,3.7c0.3,0,0.5,0.1,0.7,0.1c3.5-1.1,6.6-3.1,7.7-6.2
		c0.8-2.2,0-5.5-1.7-7.3c-0.6-0.7-2.6-1.4-4.1-1.1c-0.9,0.2-1,0.6-1.1,0.8c-0.4,1-1.6,1.5-2.6,1c-1-0.4-1.5-1.6-1-2.6
		c0.7-1.7,2.1-2.8,4.1-3.1c2.6-0.5,6,0.5,7.7,2.3c2.7,2.8,3.8,7.7,2.6,11.3c-2.9,8.4-14.9,10.8-22.1,9.7c-5.8-0.9-10.9-3.5-15.9-6.1
		c-2-1-3.9-2-5.8-2.9c-9.4-4.2-16.7-7-23.8-8.9c-18.9-5.1-37.7-5.9-57.4-2.3c-14.9,2.7-27.4,10.3-40.7,18.3
		C981.5,80.3,969.5,87.6,955.8,91.2z"/>
</g>
<g class="st0">
	<path class="st1" d="M1957.3,308.5c-6.9-2-12.5-6.2-17.9-10.4c-3.6-2.8-7-5.3-10.7-7.3c-9.7-5.2-18.8-7.1-26.9-5.8
		c-5.2,0.9-10.2,4.1-16.2,10.6c-0.1,0.1-0.1,0.1-0.2,0.1c-0.4,2.1-1.5,4.1-3.2,5.4c-1.8,1.5-4.1,2-6.3,1.6c-2.8-0.6-4.5-2.4-4.3-4.8
		c0.1-1.1,1-1.9,2.1-1.9c1.1,0.1,1.9,1,1.9,2.1c0,0.3,0.6,0.6,1.1,0.7c1.4,0.3,2.4-0.3,3.1-0.8c1.2-0.9,1.9-2.5,1.9-4
		c0-3.2-1.3-5.7-4-7.4c-4.3-2.7-11.6-2.8-16.5-0.3c-4.1,2.1-7.6,5.6-11.2,9.3c-2.6,2.7-5.4,5.5-8.4,7.7c-7.9,5.7-16.3,8.7-25,8.8
		c-9.9,0.1-18.2-3.3-26.8-7.1c-1.8-0.8-3.6-1.5-5.4-2.3c-8.1-3.3-16.1-5.8-23.9-7.6c-16.4-3.8-32.9-4.7-48.9-2.8
		c-9.4,1.1-18.9,3.3-28.1,6.3c-10.3,3.5-20.6,7.8-30.5,12c-4.9,2.1-10,4.2-15,6.2c-5.6,2.2-11.1,4-16.6,5.3
		c-6.8,1.6-13.4,2.4-19.6,2.4c-5.4,0-10.5-0.6-15.3-1.8c0,0-0.1,0-0.1,0c15.2,6.1,30.2,8,45.7,6c15.3-2.1,30.8-6.4,45.8-10.7
		c6.8-1.9,13.9-3.9,20.9-5.7c42.4-10.7,74.2-8.1,97.3,7.8c17.3,11.9,36.1,22.9,58.3,14.8c7.8-2.8,14.3-7.5,21.2-12.5
		c4.9-3.5,9.9-7.1,15.4-10c13.2-7,29.7-7.8,45.1-2.3c1.1,0.4,2.2,0.8,3.3,1.2c8.9,3.3,18.2,6.8,25.8,1c1.6-1.2,2.9-2.6,4.1-4.1
		C1965.4,309.5,1961.1,309.6,1957.3,308.5z"/>
	<path class="st1" d="M1619.3,312.2c-10.7,2.8-21.4,4.2-31.9,4.2c-2.9,0-5.8-0.1-8.6-0.3c3,1.1,5.9,2.1,8.7,2.8
		c9.8,2.4,20.9,2.2,33-0.6c5.3-1.2,10.7-2.9,16-5.1c4.9-2,10-4.1,14.9-6.2c10-4.2,20.4-8.6,30.8-12.1c9.5-3.2,19.2-5.4,28.8-6.5
		c16.5-2,33.4-1,50.3,2.9c8,1.8,16.2,4.5,24.5,7.8c1.9,0.8,3.7,1.5,5.5,2.3c8.3,3.5,16.1,6.9,25.2,6.7c5.1-0.1,10.2-1.3,15-3.5
		c0.1-0.1,0.2-0.2,0.3-0.2c7.1-3.5,10.8-15.5,10.2-21.9c-0.5-4.6-1.6-8.6-3.5-11.9c-4.8-8.4-14.9-13.6-24.6-12.6
		c-8.7,0.9-16.5,8.8-17,17.3c-0.3,4.9,1.2,9.5,3.9,12.4c2.3,2.4,5.5,3.7,9.4,3.7c0.3,0,0.5,0.1,0.7,0.1c3.5-1.1,6.6-3.1,7.7-6.2
		c0.8-2.2,0-5.5-1.7-7.3c-0.6-0.7-2.6-1.4-4.1-1.1c-0.9,0.2-1,0.6-1.1,0.8c-0.4,1-1.6,1.5-2.6,1c-1-0.4-1.5-1.6-1-2.6
		c0.7-1.7,2.1-2.8,4.1-3.1c2.6-0.5,6,0.5,7.7,2.3c2.7,2.8,3.8,7.7,2.6,11.3c-2.9,8.4-14.9,10.8-22.1,9.7c-5.8-0.9-10.9-3.5-15.9-6.1
		c-2-1-3.9-2-5.8-2.9c-9.4-4.2-16.7-7-23.8-8.9c-18.9-5.1-37.7-5.9-57.4-2.3c-14.9,2.7-27.4,10.3-40.7,18.3
		C1645.1,301.4,1633,308.7,1619.3,312.2z"/>
</g>
<g class="st0">
	<path class="st1" d="M1724.9,205.7c-6.9-2-12.5-6.2-17.9-10.4c-3.6-2.8-7-5.3-10.7-7.3c-9.7-5.2-18.8-7.1-26.9-5.8
		c-5.2,0.9-10.2,4.1-16.2,10.6c-0.1,0.1-0.1,0.1-0.2,0.1c-0.4,2.1-1.5,4.1-3.2,5.4c-1.8,1.5-4.1,2-6.3,1.6c-2.8-0.6-4.5-2.4-4.3-4.8
		c0.1-1.1,1-1.9,2.1-1.9c1.1,0.1,1.9,1,1.9,2.1c0,0.3,0.6,0.6,1.1,0.7c1.4,0.3,2.4-0.3,3.1-0.8c1.2-0.9,1.9-2.5,1.9-4
		c0-3.2-1.3-5.7-4-7.4c-4.3-2.7-11.6-2.8-16.5-0.3c-4.1,2.1-7.6,5.6-11.2,9.3c-2.6,2.7-5.4,5.5-8.4,7.7c-7.9,5.7-16.3,8.7-25,8.8
		c-9.9,0.1-18.2-3.3-26.8-7.1c-1.8-0.8-3.6-1.5-5.4-2.3c-8.1-3.3-16.1-5.8-23.9-7.6c-16.4-3.8-32.9-4.7-48.9-2.8
		c-9.4,1.1-18.9,3.3-28.1,6.3c-10.3,3.5-20.6,7.8-30.5,12c-4.9,2.1-10,4.2-15,6.2c-5.6,2.2-11.1,4-16.6,5.3
		c-6.8,1.6-13.4,2.4-19.6,2.4c-5.4,0-10.5-0.6-15.3-1.8c0,0-0.1,0-0.1,0c15.2,6.1,30.2,8,45.7,6c15.3-2.1,30.8-6.4,45.8-10.7
		c6.8-1.9,13.9-3.9,20.9-5.7c42.4-10.7,74.2-8.1,97.3,7.8c17.3,11.9,36.1,22.9,58.3,14.8c7.8-2.8,14.3-7.5,21.2-12.5
		c4.9-3.5,9.9-7.1,15.4-10c13.2-7,29.7-7.8,45.1-2.3c1.1,0.4,2.2,0.8,3.3,1.2c8.9,3.3,18.2,6.8,25.8,1c1.6-1.2,2.9-2.6,4.1-4.1
		C1733,206.7,1728.7,206.7,1724.9,205.7z"/>
	<path class="st1" d="M1386.9,209.4c-10.7,2.8-21.4,4.2-31.9,4.2c-2.9,0-5.8-0.1-8.6-0.3c3,1.1,5.9,2.1,8.7,2.8
		c9.8,2.4,20.9,2.2,33-0.6c5.3-1.2,10.7-2.9,16-5.1c4.9-2,10-4.1,14.9-6.2c10-4.2,20.4-8.6,30.8-12.1c9.5-3.2,19.2-5.4,28.8-6.5
		c16.5-2,33.4-1,50.3,2.9c8,1.8,16.2,4.5,24.5,7.8c1.9,0.8,3.7,1.5,5.5,2.3c8.3,3.5,16.1,6.9,25.2,6.7c5.1-0.1,10.2-1.3,15-3.5
		c0.1-0.1,0.2-0.2,0.3-0.2c7.1-3.5,10.8-15.5,10.2-21.9c-0.5-4.6-1.6-8.6-3.5-11.9c-4.8-8.4-14.9-13.6-24.6-12.6
		c-8.7,0.9-16.5,8.8-17,17.3c-0.3,4.9,1.2,9.5,3.9,12.4c2.3,2.4,5.5,3.7,9.4,3.7c0.3,0,0.5,0.1,0.7,0.1c3.5-1.1,6.6-3.1,7.7-6.2
		c0.8-2.2,0-5.5-1.7-7.3c-0.6-0.7-2.6-1.4-4.1-1.1c-0.9,0.2-1,0.6-1.1,0.8c-0.4,1-1.6,1.5-2.6,1c-1-0.4-1.5-1.6-1-2.6
		c0.7-1.7,2.1-2.8,4.1-3.1c2.6-0.5,6,0.5,7.7,2.3c2.7,2.8,3.8,7.7,2.6,11.3c-2.9,8.4-14.9,10.8-22.1,9.7c-5.8-0.9-10.9-3.5-15.9-6.1
		c-2-1-3.9-2-5.8-2.9c-9.4-4.2-16.7-7-23.8-8.9c-18.9-5.1-37.7-5.9-57.4-2.3c-14.9,2.7-27.4,10.3-40.7,18.3
		C1412.7,198.6,1400.6,205.8,1386.9,209.4z"/>
</g>
<g class="st0">
	<path class="st1" d="M1961.1,87.4c-6.9-2-12.5-6.2-17.9-10.4c-3.6-2.8-7-5.3-10.7-7.3c-9.7-5.2-18.8-7.1-26.9-5.8
		c-5.2,0.9-10.2,4.1-16.2,10.6c-0.1,0.1-0.1,0.1-0.2,0.1c-0.4,2.1-1.5,4.1-3.2,5.4c-1.8,1.5-4.1,2-6.3,1.6c-2.8-0.6-4.5-2.4-4.3-4.8
		c0.1-1.1,1-1.9,2.1-1.9c1.1,0.1,1.9,1,1.9,2.1c0,0.3,0.6,0.6,1.1,0.7c1.4,0.3,2.4-0.3,3.1-0.8c1.2-0.9,1.9-2.5,1.9-4
		c0-3.2-1.3-5.7-4-7.4c-4.3-2.7-11.6-2.8-16.5-0.3c-4.1,2.1-7.6,5.6-11.2,9.3c-2.6,2.7-5.4,5.5-8.4,7.7c-7.9,5.7-16.3,8.7-25,8.8
		c-9.9,0.1-18.2-3.3-26.8-7.1c-1.8-0.8-3.6-1.5-5.4-2.3c-8.1-3.3-16.1-5.8-23.9-7.6c-16.4-3.8-32.9-4.7-48.9-2.8
		c-9.4,1.1-18.9,3.3-28.1,6.3c-10.3,3.5-20.6,7.8-30.5,12c-4.9,2.1-10,4.2-15,6.2c-5.6,2.2-11.1,4-16.6,5.3
		c-6.8,1.6-13.4,2.4-19.6,2.4c-5.4,0-10.5-0.6-15.3-1.8c0,0-0.1,0-0.1,0c15.2,6.1,30.2,8,45.7,6c15.3-2.1,30.8-6.4,45.8-10.7
		c6.8-1.9,13.9-3.9,20.9-5.7c42.4-10.7,74.2-8.1,97.3,7.8c17.3,11.9,36.1,22.9,58.3,14.8c7.8-2.8,14.3-7.5,21.2-12.5
		c4.9-3.5,9.9-7.1,15.4-10c13.2-7,29.7-7.8,45.1-2.3c1.1,0.4,2.2,0.8,3.3,1.2c8.9,3.3,18.2,6.8,25.8,1c1.6-1.2,2.9-2.6,4.1-4.1
		C1969.2,88.5,1964.9,88.5,1961.1,87.4z"/>
	<path class="st1" d="M1623.1,91.2c-10.7,2.8-21.4,4.2-31.9,4.2c-2.9,0-5.8-0.1-8.6-0.3c3,1.1,5.9,2.1,8.7,2.8
		c9.8,2.4,20.9,2.2,33-0.6c5.3-1.2,10.7-2.9,16-5.1c4.9-2,10-4.1,14.9-6.2c10-4.2,20.4-8.6,30.8-12.1c9.5-3.2,19.2-5.4,28.8-6.5
		c16.5-2,33.4-1,50.3,2.9c8,1.8,16.2,4.5,24.5,7.8c1.9,0.8,3.7,1.5,5.5,2.3c8.3,3.5,16.1,6.9,25.2,6.7c5.1-0.1,10.2-1.3,15-3.5
		c0.1-0.1,0.2-0.2,0.3-0.2c7.1-3.5,10.8-15.5,10.2-21.9c-0.5-4.6-1.6-8.6-3.5-11.9c-4.8-8.4-14.9-13.6-24.6-12.6
		c-8.7,0.9-16.5,8.8-17,17.3c-0.3,4.9,1.2,9.5,3.9,12.4c2.3,2.4,5.5,3.7,9.4,3.7c0.3,0,0.5,0.1,0.7,0.1c3.5-1.1,6.6-3.1,7.7-6.2
		c0.8-2.2,0-5.5-1.7-7.3c-0.6-0.7-2.6-1.4-4.1-1.1c-0.9,0.2-1,0.6-1.1,0.8c-0.4,1-1.6,1.5-2.6,1c-1-0.4-1.5-1.6-1-2.6
		c0.7-1.7,2.1-2.8,4.1-3.1c2.6-0.5,6,0.5,7.7,2.3c2.7,2.8,3.8,7.7,2.6,11.3c-2.9,8.4-14.9,10.8-22.1,9.7c-5.8-0.9-10.9-3.5-15.9-6.1
		c-2-1-3.9-2-5.8-2.9c-9.4-4.2-16.7-7-23.8-8.9c-18.9-5.1-37.7-5.9-57.4-2.3c-14.9,2.7-27.4,10.3-40.7,18.3
		C1648.9,80.3,1636.8,87.6,1623.1,91.2z"/>
</g>
<g class="st0">
	<path class="st1" d="M622.6,1095.7c-6.9-2-12.5-6.2-17.9-10.4c-3.6-2.8-7-5.3-10.7-7.3c-9.7-5.2-18.8-7.1-26.9-5.8
		c-5.2,0.9-10.2,4.1-16.2,10.6c-0.1,0.1-0.1,0.1-0.2,0.1c-0.4,2.1-1.5,4.1-3.2,5.4c-1.8,1.5-4.1,2-6.3,1.6c-2.8-0.6-4.5-2.4-4.3-4.8
		c0.1-1.1,1-1.9,2.1-1.9c1.1,0.1,1.9,1,1.9,2.1c0,0.3,0.6,0.6,1.1,0.7c1.4,0.3,2.4-0.3,3.1-0.8c1.2-0.9,1.9-2.5,1.9-4
		c0-3.2-1.3-5.7-4-7.4c-4.3-2.7-11.6-2.8-16.5-0.3c-4.1,2.1-7.6,5.6-11.2,9.3c-2.6,2.7-5.4,5.5-8.4,7.7c-7.9,5.7-16.3,8.7-25,8.8
		c-9.9,0.1-18.2-3.3-26.8-7.1c-1.8-0.8-3.6-1.5-5.4-2.3c-8.1-3.3-16.1-5.8-23.9-7.6c-16.4-3.8-32.9-4.7-48.9-2.8
		c-9.4,1.1-18.9,3.3-28.1,6.3c-10.3,3.5-20.6,7.8-30.5,12c-4.9,2.1-10,4.2-15,6.2c-5.6,2.2-11.1,4-16.6,5.3
		c-6.8,1.6-13.4,2.4-19.6,2.4c-5.4,0-10.5-0.6-15.3-1.8c0,0-0.1,0-0.1,0c15.2,6.1,30.2,8,45.7,6c15.3-2.1,30.8-6.4,45.8-10.7
		c6.8-1.9,13.9-3.9,20.9-5.7c42.4-10.7,74.2-8.1,97.3,7.8c17.3,11.9,36.1,22.9,58.3,14.8c7.8-2.8,14.3-7.5,21.2-12.5
		c4.9-3.5,9.9-7.1,15.4-10c13.2-7,29.7-7.8,45.1-2.3c1.1,0.4,2.2,0.8,3.3,1.2c8.9,3.3,18.2,6.8,25.8,1c1.6-1.2,2.9-2.6,4.1-4.1
		C630.7,1096.8,626.4,1096.8,622.6,1095.7z"/>
	<path class="st1" d="M284.6,1099.5c-10.7,2.8-21.4,4.2-31.9,4.2c-2.9,0-5.8-0.1-8.6-0.3c3,1.1,5.9,2.1,8.7,2.8
		c9.8,2.4,20.9,2.2,33-0.6c5.3-1.2,10.7-2.9,16-5.1c4.9-2,10-4.1,14.9-6.2c10-4.2,20.4-8.6,30.8-12.1c9.5-3.2,19.2-5.4,28.8-6.5
		c16.5-2,33.4-1,50.3,2.9c8,1.8,16.2,4.5,24.5,7.8c1.9,0.8,3.7,1.5,5.5,2.3c8.3,3.5,16.1,6.9,25.2,6.7c5.1-0.1,10.2-1.3,15-3.5
		c0.1-0.1,0.2-0.2,0.3-0.2c7.1-3.5,10.8-15.5,10.2-21.9c-0.5-4.6-1.6-8.6-3.5-11.9c-4.8-8.4-14.9-13.6-24.6-12.6
		c-8.7,0.9-16.5,8.8-17,17.3c-0.3,4.9,1.2,9.5,3.9,12.4c2.3,2.4,5.5,3.7,9.4,3.7c0.3,0,0.5,0.1,0.7,0.1c3.5-1.1,6.6-3.1,7.7-6.2
		c0.8-2.2,0-5.5-1.7-7.3c-0.6-0.7-2.6-1.4-4.1-1.1c-0.9,0.2-1,0.6-1.1,0.8c-0.4,1-1.6,1.5-2.6,1c-1-0.4-1.5-1.6-1-2.6
		c0.7-1.7,2.1-2.8,4.1-3.1c2.6-0.5,6,0.5,7.7,2.3c2.7,2.8,3.8,7.7,2.6,11.3c-2.9,8.4-14.9,10.8-22.1,9.7c-5.8-0.9-10.9-3.5-15.9-6.1
		c-2-1-3.9-2-5.8-2.9c-9.4-4.2-16.7-7-23.8-8.9c-18.9-5.1-37.7-5.9-57.4-2.3c-14.9,2.7-27.4,10.3-40.7,18.3
		C310.4,1088.7,298.3,1095.9,284.6,1099.5z"/>
</g>
<g class="st0">
	<path class="st1" d="M390.2,992.9c-6.9-2-12.5-6.2-17.9-10.4c-3.6-2.8-7-5.3-10.7-7.3c-9.7-5.2-18.8-7.1-26.9-5.8
		c-5.2,0.9-10.2,4.1-16.2,10.6c-0.1,0.1-0.1,0.1-0.2,0.1c-0.4,2.1-1.5,4.1-3.2,5.4c-1.8,1.5-4.1,2-6.3,1.6c-2.8-0.6-4.5-2.4-4.3-4.8
		c0.1-1.1,1-1.9,2.1-1.9c1.1,0.1,1.9,1,1.9,2.1c0,0.3,0.6,0.6,1.1,0.7c1.4,0.3,2.4-0.3,3.1-0.8c1.2-0.9,1.9-2.5,1.9-4
		c0-3.2-1.3-5.7-4-7.4c-4.3-2.7-11.6-2.8-16.5-0.3c-4.1,2.1-7.6,5.6-11.2,9.3c-2.6,2.7-5.4,5.5-8.4,7.7c-7.9,5.7-16.3,8.7-25,8.8
		c-9.9,0.1-18.2-3.3-26.8-7.1c-1.8-0.8-3.6-1.5-5.4-2.3c-8.1-3.3-16.1-5.8-23.9-7.6c-16.4-3.8-32.9-4.7-48.9-2.8
		c-9.4,1.1-18.9,3.3-28.1,6.3c-10.3,3.5-20.6,7.8-30.5,12c-4.9,2.1-10,4.2-15,6.2c-5.6,2.2-11.1,4-16.6,5.3
		c-6.8,1.6-13.4,2.4-19.6,2.4c-5.4,0-10.5-0.6-15.3-1.8c0,0-0.1,0-0.1,0c15.2,6.1,30.2,8,45.7,6c15.3-2.1,30.8-6.4,45.8-10.7
		c6.8-1.9,13.9-3.9,20.9-5.7c42.4-10.7,74.2-8.1,97.3,7.8c17.3,11.9,36.1,22.9,58.3,14.8c7.8-2.8,14.3-7.5,21.2-12.5
		c4.9-3.5,9.9-7.1,15.4-10c13.2-7,29.7-7.8,45.1-2.3c1.1,0.4,2.2,0.8,3.3,1.2c8.9,3.3,18.2,6.8,25.8,1c1.6-1.2,2.9-2.6,4.1-4.1
		C398.3,993.9,394,994,390.2,992.9z"/>
	<path class="st1" d="M52.2,996.6c-10.7,2.8-21.4,4.2-31.9,4.2c-2.9,0-5.8-0.1-8.6-0.3c3,1.1,5.9,2.1,8.7,2.8
		c9.8,2.4,20.9,2.2,33-0.6c5.3-1.2,10.7-2.9,16-5.1c4.9-2,10-4.1,14.9-6.2c10-4.2,20.4-8.6,30.8-12.1c9.5-3.2,19.2-5.4,28.8-6.5
		c16.5-2,33.4-1,50.3,2.9c8,1.8,16.2,4.5,24.5,7.8c1.9,0.8,3.7,1.5,5.5,2.3c8.3,3.5,16.1,6.9,25.2,6.7c5.1-0.1,10.2-1.3,15-3.5
		c0.1-0.1,0.2-0.2,0.3-0.2c7.1-3.5,10.8-15.5,10.2-21.9c-0.5-4.6-1.6-8.6-3.5-11.9c-4.8-8.4-14.9-13.6-24.6-12.6
		c-8.7,0.9-16.5,8.8-17,17.3c-0.3,4.9,1.2,9.5,3.9,12.4c2.3,2.4,5.5,3.7,9.4,3.7c0.3,0,0.5,0.1,0.7,0.1c3.5-1.1,6.6-3.1,7.7-6.2
		c0.8-2.2,0-5.5-1.7-7.3c-0.6-0.7-2.6-1.4-4.1-1.1c-0.9,0.2-1,0.6-1.1,0.8c-0.4,1-1.6,1.5-2.6,1c-1-0.4-1.5-1.6-1-2.6
		c0.7-1.7,2.1-2.8,4.1-3.1c2.6-0.5,6,0.5,7.7,2.3c2.7,2.8,3.8,7.7,2.6,11.3c-2.9,8.4-14.9,10.8-22.1,9.7c-5.8-0.9-10.9-3.5-15.9-6.1
		c-2-1-3.9-2-5.8-2.9c-9.4-4.2-16.7-7-23.8-8.9c-18.9-5.1-37.7-5.9-57.4-2.3c-14.9,2.7-27.4,10.3-40.7,18.3
		C78,985.8,65.9,993.1,52.2,996.6z"/>
</g>
<g class="st0">
	<path class="st1" d="M626.5,874.7c-6.9-2-12.5-6.2-17.9-10.4c-3.6-2.8-7-5.3-10.7-7.3c-9.7-5.2-18.8-7.1-26.9-5.8
		c-5.2,0.9-10.2,4.1-16.2,10.6c-0.1,0.1-0.1,0.1-0.2,0.1c-0.4,2.1-1.5,4.1-3.2,5.4c-1.8,1.5-4.1,2-6.3,1.6c-2.8-0.6-4.5-2.4-4.3-4.8
		c0.1-1.1,1-1.9,2.1-1.9c1.1,0.1,1.9,1,1.9,2.1c0,0.3,0.6,0.6,1.1,0.7c1.4,0.3,2.4-0.3,3.1-0.8c1.2-0.9,1.9-2.5,1.9-4
		c0-3.2-1.3-5.7-4-7.4c-4.3-2.7-11.6-2.8-16.5-0.3c-4.1,2.1-7.6,5.6-11.2,9.3c-2.6,2.7-5.4,5.5-8.4,7.7c-7.9,5.7-16.3,8.7-25,8.8
		c-9.9,0.1-18.2-3.3-26.8-7.1c-1.8-0.8-3.6-1.5-5.4-2.3c-8.1-3.3-16.1-5.8-23.9-7.6c-16.4-3.8-32.9-4.7-48.9-2.8
		c-9.4,1.1-18.9,3.3-28.1,6.3c-10.3,3.5-20.6,7.8-30.5,12c-4.9,2.1-10,4.2-15,6.2c-5.6,2.2-11.1,4-16.6,5.3
		c-6.8,1.6-13.4,2.4-19.6,2.4c-5.4,0-10.5-0.6-15.3-1.8c0,0-0.1,0-0.1,0c15.2,6.1,30.2,8,45.7,6c15.3-2.1,30.8-6.4,45.8-10.7
		c6.8-1.9,13.9-3.9,20.9-5.7c42.4-10.7,74.2-8.1,97.3,7.8c17.3,11.9,36.1,22.9,58.3,14.8c7.8-2.8,14.3-7.5,21.2-12.5
		c4.9-3.5,9.9-7.1,15.4-10c13.2-7,29.7-7.8,45.1-2.3c1.1,0.4,2.2,0.8,3.3,1.2c8.9,3.3,18.2,6.8,25.8,1c1.6-1.2,2.9-2.6,4.1-4.1
		C634.5,875.7,630.3,875.7,626.5,874.7z"/>
	<path class="st1" d="M288.4,878.4c-10.7,2.8-21.4,4.2-31.9,4.2c-2.9,0-5.8-0.1-8.6-0.3c3,1.1,5.9,2.1,8.7,2.8
		c9.8,2.4,20.9,2.2,33-0.6c5.3-1.2,10.7-2.9,16-5.1c4.9-2,10-4.1,14.9-6.2c10-4.2,20.4-8.6,30.8-12.1c9.5-3.2,19.2-5.4,28.8-6.5
		c16.5-2,33.4-1,50.3,2.9c8,1.8,16.2,4.5,24.5,7.8c1.9,0.8,3.7,1.5,5.5,2.3c8.3,3.5,16.1,6.9,25.2,6.7c5.1-0.1,10.2-1.3,15-3.5
		c0.1-0.1,0.2-0.2,0.3-0.2c7.1-3.5,10.8-15.5,10.2-21.9c-0.5-4.6-1.6-8.6-3.5-11.9c-4.8-8.4-14.9-13.6-24.6-12.6
		c-8.7,0.9-16.5,8.8-17,17.3c-0.3,4.9,1.2,9.5,3.9,12.4c2.3,2.4,5.5,3.7,9.4,3.7c0.3,0,0.5,0.1,0.7,0.1c3.5-1.1,6.6-3.1,7.7-6.2
		c0.8-2.2,0-5.5-1.7-7.3c-0.6-0.7-2.6-1.4-4.1-1.1c-0.9,0.2-1,0.6-1.1,0.8c-0.4,1-1.6,1.5-2.6,1c-1-0.4-1.5-1.6-1-2.6
		c0.7-1.7,2.1-2.8,4.1-3.1c2.6-0.5,6,0.5,7.7,2.3c2.7,2.8,3.8,7.7,2.6,11.3c-2.9,8.4-14.9,10.8-22.1,9.7c-5.8-0.9-10.9-3.5-15.9-6.1
		c-2-1-3.9-2-5.8-2.9c-9.4-4.2-16.7-7-23.8-8.9c-18.9-5.1-37.7-5.9-57.4-2.3c-14.9,2.7-27.4,10.3-40.7,18.3
		C314.2,867.6,302.1,874.8,288.4,878.4z"/>
</g>
<g class="st0">
	<path class="st1" d="M1290,1095.7c-6.9-2-12.5-6.2-17.9-10.4c-3.6-2.8-7-5.3-10.7-7.3c-9.7-5.2-18.8-7.1-26.9-5.8
		c-5.2,0.9-10.2,4.1-16.2,10.6c-0.1,0.1-0.1,0.1-0.2,0.1c-0.4,2.1-1.5,4.1-3.2,5.4c-1.8,1.5-4.1,2-6.3,1.6c-2.8-0.6-4.5-2.4-4.3-4.8
		c0.1-1.1,1-1.9,2.1-1.9c1.1,0.1,1.9,1,1.9,2.1c0,0.3,0.6,0.6,1.1,0.7c1.4,0.3,2.4-0.3,3.1-0.8c1.2-0.9,1.9-2.5,1.9-4
		c0-3.2-1.3-5.7-4-7.4c-4.3-2.7-11.6-2.8-16.5-0.3c-4.1,2.1-7.6,5.6-11.2,9.3c-2.6,2.7-5.4,5.5-8.4,7.7c-7.9,5.7-16.3,8.7-25,8.8
		c-9.9,0.1-18.2-3.3-26.8-7.1c-1.8-0.8-3.6-1.5-5.4-2.3c-8.1-3.3-16.1-5.8-23.9-7.6c-16.4-3.8-32.9-4.7-48.9-2.8
		c-9.4,1.1-18.9,3.3-28.1,6.3c-10.3,3.5-20.6,7.8-30.5,12c-4.9,2.1-10,4.2-15,6.2c-5.6,2.2-11.1,4-16.6,5.3
		c-6.8,1.6-13.4,2.4-19.6,2.4c-5.4,0-10.5-0.6-15.3-1.8c0,0-0.1,0-0.1,0c15.2,6.1,30.2,8,45.7,6c15.3-2.1,30.8-6.4,45.8-10.7
		c6.8-1.9,13.9-3.9,20.9-5.7c42.4-10.7,74.2-8.1,97.3,7.8c17.3,11.9,36.1,22.9,58.3,14.8c7.8-2.8,14.3-7.5,21.2-12.5
		c4.9-3.5,9.9-7.1,15.4-10c13.2-7,29.7-7.8,45.1-2.3c1.1,0.4,2.2,0.8,3.3,1.2c8.9,3.3,18.2,6.8,25.8,1c1.6-1.2,2.9-2.6,4.1-4.1
		C1298.1,1096.8,1293.8,1096.8,1290,1095.7z"/>
	<path class="st1" d="M951.9,1099.5c-10.7,2.8-21.4,4.2-31.9,4.2c-2.9,0-5.8-0.1-8.6-0.3c3,1.1,5.9,2.1,8.7,2.8
		c9.8,2.4,20.9,2.2,33-0.6c5.3-1.2,10.7-2.9,16-5.1c4.9-2,10-4.1,14.9-6.2c10-4.2,20.4-8.6,30.8-12.1c9.5-3.2,19.2-5.4,28.8-6.5
		c16.5-2,33.4-1,50.3,2.9c8,1.8,16.2,4.5,24.5,7.8c1.9,0.8,3.7,1.5,5.5,2.3c8.3,3.5,16.1,6.9,25.2,6.7c5.1-0.1,10.2-1.3,15-3.5
		c0.1-0.1,0.2-0.2,0.3-0.2c7.1-3.5,10.8-15.5,10.2-21.9c-0.5-4.6-1.6-8.6-3.5-11.9c-4.8-8.4-14.9-13.6-24.6-12.6
		c-8.7,0.9-16.5,8.8-17,17.3c-0.3,4.9,1.2,9.5,3.9,12.4c2.3,2.4,5.5,3.7,9.4,3.7c0.3,0,0.5,0.1,0.7,0.1c3.5-1.1,6.6-3.1,7.7-6.2
		c0.8-2.2,0-5.5-1.7-7.3c-0.6-0.7-2.6-1.4-4.1-1.1c-0.9,0.2-1,0.6-1.1,0.8c-0.4,1-1.6,1.5-2.6,1c-1-0.4-1.5-1.6-1-2.6
		c0.7-1.7,2.1-2.8,4.1-3.1c2.6-0.5,6,0.5,7.7,2.3c2.7,2.8,3.8,7.7,2.6,11.3c-2.9,8.4-14.9,10.8-22.1,9.7c-5.8-0.9-10.9-3.5-15.9-6.1
		c-2-1-3.9-2-5.8-2.9c-9.4-4.2-16.7-7-23.8-8.9c-18.9-5.1-37.7-5.9-57.4-2.3c-14.9,2.7-27.4,10.3-40.7,18.3
		C977.7,1088.7,965.6,1095.9,951.9,1099.5z"/>
</g>
<g class="st0">
	<path class="st1" d="M1057.6,992.9c-6.9-2-12.5-6.2-17.9-10.4c-3.6-2.8-7-5.3-10.7-7.3c-9.7-5.2-18.8-7.1-26.9-5.8
		c-5.2,0.9-10.2,4.1-16.2,10.6c-0.1,0.1-0.1,0.1-0.2,0.1c-0.4,2.1-1.5,4.1-3.2,5.4c-1.8,1.5-4.1,2-6.3,1.6c-2.8-0.6-4.5-2.4-4.3-4.8
		c0.1-1.1,1-1.9,2.1-1.9c1.1,0.1,1.9,1,1.9,2.1c0,0.3,0.6,0.6,1.1,0.7c1.4,0.3,2.4-0.3,3.1-0.8c1.2-0.9,1.9-2.5,1.9-4
		c0-3.2-1.3-5.7-4-7.4c-4.3-2.7-11.6-2.8-16.5-0.3c-4.1,2.1-7.6,5.6-11.2,9.3c-2.6,2.7-5.4,5.5-8.4,7.7c-7.9,5.7-16.3,8.7-25,8.8
		c-9.9,0.1-18.2-3.3-26.8-7.1c-1.8-0.8-3.6-1.5-5.4-2.3c-8.1-3.3-16.1-5.8-23.9-7.6c-16.4-3.8-32.9-4.7-48.9-2.8
		c-9.4,1.1-18.9,3.3-28.1,6.3c-10.3,3.5-20.6,7.8-30.5,12c-4.9,2.1-10,4.2-15,6.2c-5.6,2.2-11.1,4-16.6,5.3
		c-6.8,1.6-13.4,2.4-19.6,2.4c-5.4,0-10.5-0.6-15.3-1.8c0,0-0.1,0-0.1,0c15.2,6.1,30.2,8,45.7,6c15.3-2.1,30.8-6.4,45.8-10.7
		c6.8-1.9,13.9-3.9,20.9-5.7c42.4-10.7,74.2-8.1,97.3,7.8c17.3,11.9,36.1,22.9,58.3,14.8c7.8-2.8,14.3-7.5,21.2-12.5
		c4.9-3.5,9.9-7.1,15.4-10c13.2-7,29.7-7.8,45.1-2.3c1.1,0.4,2.2,0.8,3.3,1.2c8.9,3.3,18.2,6.8,25.8,1c1.6-1.2,2.9-2.6,4.1-4.1
		C1065.7,993.9,1061.4,994,1057.6,992.9z"/>
	<path class="st1" d="M719.5,996.6c-10.7,2.8-21.4,4.2-31.9,4.2c-2.9,0-5.8-0.1-8.6-0.3c3,1.1,5.9,2.1,8.7,2.8
		c9.8,2.4,20.9,2.2,33-0.6c5.3-1.2,10.7-2.9,16-5.1c4.9-2,10-4.1,14.9-6.2c10-4.2,20.4-8.6,30.8-12.1c9.5-3.2,19.2-5.4,28.8-6.5
		c16.5-2,33.4-1,50.3,2.9c8,1.8,16.2,4.5,24.5,7.8c1.9,0.8,3.7,1.5,5.5,2.3c8.3,3.5,16.1,6.9,25.2,6.7c5.1-0.1,10.2-1.3,15-3.5
		c0.1-0.1,0.2-0.2,0.3-0.2c7.1-3.5,10.8-15.5,10.2-21.9c-0.5-4.6-1.6-8.6-3.5-11.9c-4.8-8.4-14.9-13.6-24.6-12.6
		c-8.7,0.9-16.5,8.8-17,17.3c-0.3,4.9,1.2,9.5,3.9,12.4c2.3,2.4,5.5,3.7,9.4,3.7c0.3,0,0.5,0.1,0.7,0.1c3.5-1.1,6.6-3.1,7.7-6.2
		c0.8-2.2,0-5.5-1.7-7.3c-0.6-0.7-2.6-1.4-4.1-1.1c-0.9,0.2-1,0.6-1.1,0.8c-0.4,1-1.6,1.5-2.6,1c-1-0.4-1.5-1.6-1-2.6
		c0.7-1.7,2.1-2.8,4.1-3.1c2.6-0.5,6,0.5,7.7,2.3c2.7,2.8,3.8,7.7,2.6,11.3c-2.9,8.4-14.9,10.8-22.1,9.7c-5.8-0.9-10.9-3.5-15.9-6.1
		c-2-1-3.9-2-5.8-2.9c-9.4-4.2-16.7-7-23.8-8.9c-18.9-5.1-37.7-5.9-57.4-2.3c-14.9,2.7-27.4,10.3-40.7,18.3
		C745.3,985.8,733.2,993.1,719.5,996.6z"/>
</g>
<g class="st0">
	<path class="st1" d="M1293.8,874.7c-6.9-2-12.5-6.2-17.9-10.4c-3.6-2.8-7-5.3-10.7-7.3c-9.7-5.2-18.8-7.1-26.9-5.8
		c-5.2,0.9-10.2,4.1-16.2,10.6c-0.1,0.1-0.1,0.1-0.2,0.1c-0.4,2.1-1.5,4.1-3.2,5.4c-1.8,1.5-4.1,2-6.3,1.6c-2.8-0.6-4.5-2.4-4.3-4.8
		c0.1-1.1,1-1.9,2.1-1.9c1.1,0.1,1.9,1,1.9,2.1c0,0.3,0.6,0.6,1.1,0.7c1.4,0.3,2.4-0.3,3.1-0.8c1.2-0.9,1.9-2.5,1.9-4
		c0-3.2-1.3-5.7-4-7.4c-4.3-2.7-11.6-2.8-16.5-0.3c-4.1,2.1-7.6,5.6-11.2,9.3c-2.6,2.7-5.4,5.5-8.4,7.7c-7.9,5.7-16.3,8.7-25,8.8
		c-9.9,0.1-18.2-3.3-26.8-7.1c-1.8-0.8-3.6-1.5-5.4-2.3c-8.1-3.3-16.1-5.8-23.9-7.6c-16.4-3.8-32.9-4.7-48.9-2.8
		c-9.4,1.1-18.9,3.3-28.1,6.3c-10.3,3.5-20.6,7.8-30.5,12c-4.9,2.1-10,4.2-15,6.2c-5.6,2.2-11.1,4-16.6,5.3
		c-6.8,1.6-13.4,2.4-19.6,2.4c-5.4,0-10.5-0.6-15.3-1.8c0,0-0.1,0-0.1,0c15.2,6.1,30.2,8,45.7,6c15.3-2.1,30.8-6.4,45.8-10.7
		c6.8-1.9,13.9-3.9,20.9-5.7c42.4-10.7,74.2-8.1,97.3,7.8c17.3,11.9,36.1,22.9,58.3,14.8c7.8-2.8,14.3-7.5,21.2-12.5
		c4.9-3.5,9.9-7.1,15.4-10c13.2-7,29.7-7.8,45.1-2.3c1.1,0.4,2.2,0.8,3.3,1.2c8.9,3.3,18.2,6.8,25.8,1c1.6-1.2,2.9-2.6,4.1-4.1
		C1301.9,875.7,1297.6,875.7,1293.8,874.7z"/>
	<path class="st1" d="M955.8,878.4c-10.7,2.8-21.4,4.2-31.9,4.2c-2.9,0-5.8-0.1-8.6-0.3c3,1.1,5.9,2.1,8.7,2.8
		c9.8,2.4,20.9,2.2,33-0.6c5.3-1.2,10.7-2.9,16-5.1c4.9-2,10-4.1,14.9-6.2c10-4.2,20.4-8.6,30.8-12.1c9.5-3.2,19.2-5.4,28.8-6.5
		c16.5-2,33.4-1,50.3,2.9c8,1.8,16.2,4.5,24.5,7.8c1.9,0.8,3.7,1.5,5.5,2.3c8.3,3.5,16.1,6.9,25.2,6.7c5.1-0.1,10.2-1.3,15-3.5
		c0.1-0.1,0.2-0.2,0.3-0.2c7.1-3.5,10.8-15.5,10.2-21.9c-0.5-4.6-1.6-8.6-3.5-11.9c-4.8-8.4-14.9-13.6-24.6-12.6
		c-8.7,0.9-16.5,8.8-17,17.3c-0.3,4.9,1.2,9.5,3.9,12.4c2.3,2.4,5.5,3.7,9.4,3.7c0.3,0,0.5,0.1,0.7,0.1c3.5-1.1,6.6-3.1,7.7-6.2
		c0.8-2.2,0-5.5-1.7-7.3c-0.6-0.7-2.6-1.4-4.1-1.1c-0.9,0.2-1,0.6-1.1,0.8c-0.4,1-1.6,1.5-2.6,1c-1-0.4-1.5-1.6-1-2.6
		c0.7-1.7,2.1-2.8,4.1-3.1c2.6-0.5,6,0.5,7.7,2.3c2.7,2.8,3.8,7.7,2.6,11.3c-2.9,8.4-14.9,10.8-22.1,9.7c-5.8-0.9-10.9-3.5-15.9-6.1
		c-2-1-3.9-2-5.8-2.9c-9.4-4.2-16.7-7-23.8-8.9c-18.9-5.1-37.7-5.9-57.4-2.3c-14.9,2.7-27.4,10.3-40.7,18.3
		C981.5,867.6,969.5,874.8,955.8,878.4z"/>
</g>
<g class="st0">
	<path class="st1" d="M1957.3,1095.7c-6.9-2-12.5-6.2-17.9-10.4c-3.6-2.8-7-5.3-10.7-7.3c-9.7-5.2-18.8-7.1-26.9-5.8
		c-5.2,0.9-10.2,4.1-16.2,10.6c-0.1,0.1-0.1,0.1-0.2,0.1c-0.4,2.1-1.5,4.1-3.2,5.4c-1.8,1.5-4.1,2-6.3,1.6c-2.8-0.6-4.5-2.4-4.3-4.8
		c0.1-1.1,1-1.9,2.1-1.9c1.1,0.1,1.9,1,1.9,2.1c0,0.3,0.6,0.6,1.1,0.7c1.4,0.3,2.4-0.3,3.1-0.8c1.2-0.9,1.9-2.5,1.9-4
		c0-3.2-1.3-5.7-4-7.4c-4.3-2.7-11.6-2.8-16.5-0.3c-4.1,2.1-7.6,5.6-11.2,9.3c-2.6,2.7-5.4,5.5-8.4,7.7c-7.9,5.7-16.3,8.7-25,8.8
		c-9.9,0.1-18.2-3.3-26.8-7.1c-1.8-0.8-3.6-1.5-5.4-2.3c-8.1-3.3-16.1-5.8-23.9-7.6c-16.4-3.8-32.9-4.7-48.9-2.8
		c-9.4,1.1-18.9,3.3-28.1,6.3c-10.3,3.5-20.6,7.8-30.5,12c-4.9,2.1-10,4.2-15,6.2c-5.6,2.2-11.1,4-16.6,5.3
		c-6.8,1.6-13.4,2.4-19.6,2.4c-5.4,0-10.5-0.6-15.3-1.8c0,0-0.1,0-0.1,0c15.2,6.1,30.2,8,45.7,6c15.3-2.1,30.8-6.4,45.8-10.7
		c6.8-1.9,13.9-3.9,20.9-5.7c42.4-10.7,74.2-8.1,97.3,7.8c17.3,11.9,36.1,22.9,58.3,14.8c7.8-2.8,14.3-7.5,21.2-12.5
		c4.9-3.5,9.9-7.1,15.4-10c13.2-7,29.7-7.8,45.1-2.3c1.1,0.4,2.2,0.8,3.3,1.2c8.9,3.3,18.2,6.8,25.8,1c1.6-1.2,2.9-2.6,4.1-4.1
		C1965.4,1096.8,1961.1,1096.8,1957.3,1095.7z"/>
	<path class="st1" d="M1619.3,1099.5c-10.7,2.8-21.4,4.2-31.9,4.2c-2.9,0-5.8-0.1-8.6-0.3c3,1.1,5.9,2.1,8.7,2.8
		c9.8,2.4,20.9,2.2,33-0.6c5.3-1.2,10.7-2.9,16-5.1c4.9-2,10-4.1,14.9-6.2c10-4.2,20.4-8.6,30.8-12.1c9.5-3.2,19.2-5.4,28.8-6.5
		c16.5-2,33.4-1,50.3,2.9c8,1.8,16.2,4.5,24.5,7.8c1.9,0.8,3.7,1.5,5.5,2.3c8.3,3.5,16.1,6.9,25.2,6.7c5.1-0.1,10.2-1.3,15-3.5
		c0.1-0.1,0.2-0.2,0.3-0.2c7.1-3.5,10.8-15.5,10.2-21.9c-0.5-4.6-1.6-8.6-3.5-11.9c-4.8-8.4-14.9-13.6-24.6-12.6
		c-8.7,0.9-16.5,8.8-17,17.3c-0.3,4.9,1.2,9.5,3.9,12.4c2.3,2.4,5.5,3.7,9.4,3.7c0.3,0,0.5,0.1,0.7,0.1c3.5-1.1,6.6-3.1,7.7-6.2
		c0.8-2.2,0-5.5-1.7-7.3c-0.6-0.7-2.6-1.4-4.1-1.1c-0.9,0.2-1,0.6-1.1,0.8c-0.4,1-1.6,1.5-2.6,1c-1-0.4-1.5-1.6-1-2.6
		c0.7-1.7,2.1-2.8,4.1-3.1c2.6-0.5,6,0.5,7.7,2.3c2.7,2.8,3.8,7.7,2.6,11.3c-2.9,8.4-14.9,10.8-22.1,9.7c-5.8-0.9-10.9-3.5-15.9-6.1
		c-2-1-3.9-2-5.8-2.9c-9.4-4.2-16.7-7-23.8-8.9c-18.9-5.1-37.7-5.9-57.4-2.3c-14.9,2.7-27.4,10.3-40.7,18.3
		C1645.1,1088.7,1633,1095.9,1619.3,1099.5z"/>
</g>
<g class="st0">
	<path class="st1" d="M1961.1,874.7c-6.9-2-12.5-6.2-17.9-10.4c-3.6-2.8-7-5.3-10.7-7.3c-9.7-5.2-18.8-7.1-26.9-5.8
		c-5.2,0.9-10.2,4.1-16.2,10.6c-0.1,0.1-0.1,0.1-0.2,0.1c-0.4,2.1-1.5,4.1-3.2,5.4c-1.8,1.5-4.1,2-6.3,1.6c-2.8-0.6-4.5-2.4-4.3-4.8
		c0.1-1.1,1-1.9,2.1-1.9c1.1,0.1,1.9,1,1.9,2.1c0,0.3,0.6,0.6,1.1,0.7c1.4,0.3,2.4-0.3,3.1-0.8c1.2-0.9,1.9-2.5,1.9-4
		c0-3.2-1.3-5.7-4-7.4c-4.3-2.7-11.6-2.8-16.5-0.3c-4.1,2.1-7.6,5.6-11.2,9.3c-2.6,2.7-5.4,5.5-8.4,7.7c-7.9,5.7-16.3,8.7-25,8.8
		c-9.9,0.1-18.2-3.3-26.8-7.1c-1.8-0.8-3.6-1.5-5.4-2.3c-8.1-3.3-16.1-5.8-23.9-7.6c-16.4-3.8-32.9-4.7-48.9-2.8
		c-9.4,1.1-18.9,3.3-28.1,6.3c-10.3,3.5-20.6,7.8-30.5,12c-4.9,2.1-10,4.2-15,6.2c-5.6,2.2-11.1,4-16.6,5.3
		c-6.8,1.6-13.4,2.4-19.6,2.4c-5.4,0-10.5-0.6-15.3-1.8c0,0-0.1,0-0.1,0c15.2,6.1,30.2,8,45.7,6c15.3-2.1,30.8-6.4,45.8-10.7
		c6.8-1.9,13.9-3.9,20.9-5.7c42.4-10.7,74.2-8.1,97.3,7.8c17.3,11.9,36.1,22.9,58.3,14.8c7.8-2.8,14.3-7.5,21.2-12.5
		c4.9-3.5,9.9-7.1,15.4-10c13.2-7,29.7-7.8,45.1-2.3c1.1,0.4,2.2,0.8,3.3,1.2c8.9,3.3,18.2,6.8,25.8,1c1.6-1.2,2.9-2.6,4.1-4.1
		C1969.2,875.7,1964.9,875.7,1961.1,874.7z"/>
	<path class="st1" d="M1623.1,878.4c-10.7,2.8-21.4,4.2-31.9,4.2c-2.9,0-5.8-0.1-8.6-0.3c3,1.1,5.9,2.1,8.7,2.8
		c9.8,2.4,20.9,2.2,33-0.6c5.3-1.2,10.7-2.9,16-5.1c4.9-2,10-4.1,14.9-6.2c10-4.2,20.4-8.6,30.8-12.1c9.5-3.2,19.2-5.4,28.8-6.5
		c16.5-2,33.4-1,50.3,2.9c8,1.8,16.2,4.5,24.5,7.8c1.9,0.8,3.7,1.5,5.5,2.3c8.3,3.5,16.1,6.9,25.2,6.7c5.1-0.1,10.2-1.3,15-3.5
		c0.1-0.1,0.2-0.2,0.3-0.2c7.1-3.5,10.8-15.5,10.2-21.9c-0.5-4.6-1.6-8.6-3.5-11.9c-4.8-8.4-14.9-13.6-24.6-12.6
		c-8.7,0.9-16.5,8.8-17,17.3c-0.3,4.9,1.2,9.5,3.9,12.4c2.3,2.4,5.5,3.7,9.4,3.7c0.3,0,0.5,0.1,0.7,0.1c3.5-1.1,6.6-3.1,7.7-6.2
		c0.8-2.2,0-5.5-1.7-7.3c-0.6-0.7-2.6-1.4-4.1-1.1c-0.9,0.2-1,0.6-1.1,0.8c-0.4,1-1.6,1.5-2.6,1c-1-0.4-1.5-1.6-1-2.6
		c0.7-1.7,2.1-2.8,4.1-3.1c2.6-0.5,6,0.5,7.7,2.3c2.7,2.8,3.8,7.7,2.6,11.3c-2.9,8.4-14.9,10.8-22.1,9.7c-5.8-0.9-10.9-3.5-15.9-6.1
		c-2-1-3.9-2-5.8-2.9c-9.4-4.2-16.7-7-23.8-8.9c-18.9-5.1-37.7-5.9-57.4-2.3c-14.9,2.7-27.4,10.3-40.7,18.3
		C1648.9,867.6,1636.8,874.8,1623.1,878.4z"/>
</g>
<g class="st0">
	<path class="st1" d="M1391.9,468.2c6.8,1.9,12.4,6.2,17.7,10.3c3.6,2.7,6.9,5.3,10.6,7.3c9.7,5.1,18.6,7.1,26.7,5.7
		c5.2-0.9,10.1-4.1,16-10.5c0.1-0.1,0.1-0.1,0.2-0.1c0.4-2.1,1.5-4,3.2-5.3c1.8-1.5,4-2,6.3-1.6c2.7,0.6,4.4,2.4,4.3,4.7
		c-0.1,1.1-1,1.9-2.1,1.8c-1.1-0.1-1.9-1-1.8-2.1c0-0.3-0.6-0.6-1.1-0.7c-1.4-0.3-2.4,0.3-3,0.8c-1.1,0.9-1.9,2.5-1.9,4
		c0,3.2,1.3,5.7,4,7.4c4.3,2.7,11.5,2.8,16.4,0.3c4.1-2.1,7.5-5.6,11.1-9.2c2.6-2.7,5.3-5.4,8.4-7.6c7.8-5.7,16.2-8.6,24.8-8.8
		c9.9-0.1,18,3.3,26.6,7c1.8,0.8,3.6,1.5,5.4,2.3c8,3.2,16,5.8,23.7,7.6c16.3,3.8,32.6,4.7,48.5,2.8c9.3-1.1,18.7-3.2,27.8-6.3
		c10.2-3.4,20.4-7.8,30.3-11.9c4.9-2.1,9.9-4.2,14.8-6.2c5.5-2.2,11.1-4,16.5-5.2c6.8-1.6,13.3-2.4,19.4-2.4
		c5.3,0,10.4,0.6,15.2,1.8c0,0,0.1,0,0.1,0c-15.1-6-30-8-45.3-5.9c-15.2,2-30.6,6.4-45.4,10.6c-6.8,1.9-13.8,3.9-20.7,5.6
		c-42,10.6-73.6,8.1-96.6-7.7c-17.2-11.8-35.8-22.7-57.8-14.7c-7.7,2.8-14.2,7.5-21,12.4c-4.8,3.5-9.8,7.1-15.2,9.9
		c-13.1,6.9-29.4,7.7-44.7,2.3c-1.1-0.4-2.1-0.8-3.2-1.2c-8.9-3.3-18-6.7-25.5-1c-1.6,1.2-2.9,2.6-4.1,4
		C1383.9,467.2,1388.1,467.2,1391.9,468.2z"/>
	<path class="st1" d="M1727.3,464.5c10.6-2.8,21.3-4.1,31.7-4.1c2.9,0,5.7,0.1,8.6,0.3c-2.9-1.1-5.8-2.1-8.6-2.8
		c-9.7-2.4-20.7-2.2-32.8,0.6c-5.2,1.2-10.6,2.9-15.9,5.1c-4.9,2-9.9,4.1-14.8,6.2c-9.9,4.2-20.2,8.6-30.6,12
		c-9.4,3.1-19,5.3-28.6,6.5c-16.3,2-33.1,1-49.9-2.9c-7.9-1.8-16.1-4.4-24.3-7.8c-1.9-0.7-3.7-1.5-5.5-2.3c-8.2-3.5-16-6.8-25-6.7
		c-5.1,0.1-10.1,1.3-14.9,3.5c-0.1,0.1-0.2,0.2-0.3,0.2c-7,3.5-10.7,15.4-10.1,21.7c0.4,4.5,1.6,8.5,3.5,11.8
		c4.7,8.3,14.8,13.5,24.4,12.5c8.6-0.9,16.3-8.7,16.8-17.2c0.3-4.8-1.2-9.5-3.9-12.3c-2.3-2.4-5.4-3.6-9.3-3.6
		c-0.3,0-0.5-0.1-0.7-0.1c-3.5,1.1-6.6,3.1-7.6,6.1c-0.8,2.2,0,5.5,1.7,7.2c0.6,0.6,2.6,1.4,4.1,1.1c0.9-0.2,1-0.6,1.1-0.7
		c0.4-1,1.6-1.5,2.6-1c1,0.4,1.5,1.6,1,2.6c-0.7,1.6-2.1,2.7-4,3.1c-2.6,0.5-6-0.5-7.7-2.3c-2.7-2.8-3.8-7.6-2.5-11.2
		c2.9-8.4,14.7-10.7,21.9-9.6c5.7,0.9,10.8,3.5,15.8,6.1c2,1,3.9,2,5.8,2.9c9.3,4.2,16.6,6.9,23.6,8.8c18.8,5.1,37.4,5.8,56.9,2.2
		c14.8-2.7,27.2-10.2,40.4-18.1C1701.7,475.2,1713.7,468,1727.3,464.5z"/>
</g>
<g class="st0">
	<path class="st1" d="M1622.5,570.2c6.8,1.9,12.4,6.2,17.7,10.3c3.6,2.7,6.9,5.3,10.6,7.3c9.7,5.1,18.6,7.1,26.7,5.7
		c5.2-0.9,10.1-4.1,16-10.5c0.1-0.1,0.1-0.1,0.2-0.1c0.4-2.1,1.5-4,3.2-5.3c1.8-1.5,4-2,6.3-1.6c2.7,0.6,4.4,2.4,4.3,4.7
		c-0.1,1.1-1,1.9-2.1,1.8c-1.1-0.1-1.9-1-1.8-2.1c0-0.3-0.6-0.6-1.1-0.7c-1.4-0.3-2.4,0.3-3,0.8c-1.1,0.9-1.9,2.5-1.9,4
		c0,3.2,1.3,5.7,4,7.4c4.3,2.7,11.5,2.8,16.4,0.3c4.1-2.1,7.5-5.6,11.1-9.2c2.6-2.7,5.3-5.4,8.4-7.6c7.8-5.7,16.2-8.6,24.8-8.8
		c9.9-0.1,18,3.3,26.6,7c1.8,0.8,3.6,1.5,5.4,2.3c8,3.2,16,5.8,23.7,7.6c16.3,3.8,32.6,4.7,48.5,2.8c9.3-1.1,18.7-3.2,27.8-6.3
		c10.2-3.4,20.4-7.8,30.3-11.9c4.9-2.1,9.9-4.2,14.8-6.2c5.5-2.2,11.1-4,16.5-5.2c6.8-1.6,13.3-2.4,19.4-2.4
		c5.3,0,10.4,0.6,15.2,1.8c0,0,0.1,0,0.1,0c-15.1-6-30-8-45.3-5.9c-15.2,2-30.6,6.4-45.4,10.6c-6.8,1.9-13.8,3.9-20.7,5.6
		c-42,10.6-73.6,8.1-96.6-7.7c-17.2-11.8-35.8-22.7-57.8-14.7c-7.7,2.8-14.2,7.5-21,12.4c-4.8,3.5-9.8,7.1-15.2,9.9
		c-13.1,6.9-29.4,7.7-44.7,2.3c-1.1-0.4-2.1-0.8-3.2-1.2c-8.9-3.3-18-6.7-25.5-1c-1.6,1.2-2.9,2.6-4.1,4
		C1614.4,569.2,1618.7,569.2,1622.5,570.2z"/>
	<path class="st1" d="M1957.8,566.5c10.6-2.8,21.3-4.1,31.7-4.1c2.9,0,5.7,0.1,8.6,0.3c-2.9-1.1-5.8-2.1-8.6-2.8
		c-9.7-2.4-20.7-2.2-32.8,0.6c-5.2,1.2-10.6,2.9-15.9,5.1c-4.9,2-9.9,4.1-14.8,6.2c-9.9,4.2-20.2,8.6-30.6,12
		c-9.4,3.1-19,5.3-28.6,6.5c-16.3,2-33.1,1-49.9-2.9c-7.9-1.8-16.1-4.4-24.3-7.8c-1.9-0.7-3.7-1.5-5.5-2.3c-8.2-3.5-16-6.8-25-6.7
		c-5.1,0.1-10.1,1.3-14.9,3.5c-0.1,0.1-0.2,0.2-0.3,0.2c-7,3.5-10.7,15.4-10.1,21.7c0.4,4.5,1.6,8.5,3.5,11.8
		c4.7,8.3,14.8,13.5,24.4,12.5c8.6-0.9,16.3-8.7,16.8-17.2c0.3-4.8-1.2-9.5-3.9-12.3c-2.3-2.4-5.4-3.6-9.3-3.6
		c-0.3,0-0.5-0.1-0.7-0.1c-3.5,1.1-6.6,3.1-7.6,6.1c-0.8,2.2,0,5.5,1.7,7.2c0.6,0.6,2.6,1.4,4.1,1.1c0.9-0.2,1-0.6,1.1-0.7
		c0.4-1,1.6-1.5,2.6-1c1,0.4,1.5,1.6,1,2.6c-0.7,1.6-2.1,2.7-4,3.1c-2.6,0.5-6-0.5-7.7-2.3c-2.7-2.8-3.8-7.6-2.5-11.2
		c2.9-8.4,14.7-10.7,21.9-9.6c5.7,0.9,10.8,3.5,15.8,6.1c2,1,3.9,2,5.8,2.9c9.3,4.2,16.6,6.9,23.6,8.8c18.8,5.1,37.4,5.8,56.9,2.2
		c14.8-2.7,27.2-10.2,40.4-18.1C1932.2,577.3,1944.2,570.1,1957.8,566.5z"/>
</g>
<g class="st0">
	<path class="st1" d="M1388.1,687.5c6.8,1.9,12.4,6.2,17.7,10.3c3.6,2.7,6.9,5.3,10.6,7.3c9.7,5.1,18.6,7.1,26.7,5.7
		c5.2-0.9,10.1-4.1,16-10.5c0.1-0.1,0.1-0.1,0.2-0.1c0.4-2.1,1.5-4,3.2-5.3c1.8-1.5,4-2,6.3-1.6c2.7,0.6,4.4,2.4,4.3,4.7
		c-0.1,1.1-1,1.9-2.1,1.8c-1.1-0.1-1.9-1-1.8-2.1c0-0.3-0.6-0.6-1.1-0.7c-1.4-0.3-2.4,0.3-3,0.8c-1.1,0.9-1.9,2.5-1.9,4
		c0,3.2,1.3,5.7,4,7.4c4.3,2.7,11.5,2.8,16.4,0.3c4.1-2.1,7.5-5.6,11.1-9.2c2.6-2.7,5.3-5.4,8.4-7.6c7.8-5.7,16.2-8.6,24.8-8.8
		c9.9-0.1,18,3.3,26.6,7c1.8,0.8,3.6,1.5,5.4,2.3c8,3.2,16,5.8,23.7,7.6c16.3,3.8,32.6,4.7,48.5,2.8c9.3-1.1,18.7-3.2,27.8-6.3
		c10.2-3.4,20.4-7.8,30.3-11.9c4.9-2.1,9.9-4.2,14.8-6.2c5.5-2.2,11.1-4,16.5-5.2c6.8-1.6,13.3-2.4,19.4-2.4
		c5.3,0,10.4,0.6,15.2,1.8c0,0,0.1,0,0.1,0c-15.1-6-30-8-45.3-5.9c-15.2,2-30.6,6.4-45.4,10.6c-6.8,1.9-13.8,3.9-20.7,5.6
		c-42,10.6-73.6,8.1-96.6-7.7c-17.2-11.8-35.8-22.7-57.8-14.7c-7.7,2.8-14.2,7.5-21,12.4c-4.8,3.5-9.8,7.1-15.2,9.9
		c-13.1,6.9-29.4,7.7-44.7,2.3c-1.1-0.4-2.1-0.8-3.2-1.2c-8.9-3.3-18-6.7-25.5-1c-1.6,1.2-2.9,2.6-4.1,4
		C1380.1,686.5,1384.4,686.5,1388.1,687.5z"/>
	<path class="st1" d="M1723.5,683.8c10.6-2.8,21.3-4.1,31.7-4.1c2.9,0,5.7,0.1,8.6,0.3c-2.9-1.1-5.8-2.1-8.6-2.8
		c-9.7-2.4-20.7-2.2-32.8,0.6c-5.2,1.2-10.6,2.9-15.9,5.1c-4.9,2-9.9,4.1-14.8,6.2c-9.9,4.2-20.2,8.6-30.6,12
		c-9.4,3.1-19,5.3-28.6,6.5c-16.3,2-33.1,1-49.9-2.9c-7.9-1.8-16.1-4.4-24.3-7.8c-1.9-0.7-3.7-1.5-5.5-2.3c-8.2-3.5-16-6.8-25-6.7
		c-5.1,0.1-10.1,1.3-14.9,3.5c-0.1,0.1-0.2,0.2-0.3,0.2c-7,3.5-10.7,15.4-10.1,21.7c0.4,4.5,1.6,8.5,3.5,11.8
		c4.7,8.3,14.8,13.5,24.4,12.5c8.6-0.9,16.3-8.7,16.8-17.2c0.3-4.8-1.2-9.5-3.9-12.3c-2.3-2.4-5.4-3.6-9.3-3.6
		c-0.3,0-0.5-0.1-0.7-0.1c-3.5,1.1-6.6,3.1-7.6,6.1c-0.8,2.2,0,5.5,1.7,7.2c0.6,0.6,2.6,1.4,4.1,1.1c0.9-0.2,1-0.6,1.1-0.7
		c0.4-1,1.6-1.5,2.6-1c1,0.4,1.5,1.6,1,2.6c-0.7,1.6-2.1,2.7-4,3.1c-2.6,0.5-6-0.5-7.7-2.3c-2.7-2.8-3.8-7.6-2.5-11.2
		c2.9-8.4,14.7-10.7,21.9-9.6c5.7,0.9,10.8,3.5,15.8,6.1c2,1,3.9,2,5.8,2.9c9.3,4.2,16.6,6.9,23.6,8.8c18.8,5.1,37.4,5.8,56.9,2.2
		c14.8-2.7,27.2-10.2,40.4-18.1C1697.9,694.5,1709.9,687.4,1723.5,683.8z"/>
</g>
<g class="st0">
	<path class="st1" d="M729.9,468.2c6.8,1.9,12.4,6.2,17.7,10.3c3.6,2.7,6.9,5.3,10.6,7.3c9.7,5.1,18.6,7.1,26.7,5.7
		c5.2-0.9,10.1-4.1,16-10.5c0.1-0.1,0.1-0.1,0.2-0.1c0.4-2.1,1.5-4,3.2-5.3c1.8-1.5,4-2,6.3-1.6c2.7,0.6,4.4,2.4,4.3,4.7
		c-0.1,1.1-1,1.9-2.1,1.8c-1.1-0.1-1.9-1-1.8-2.1c0-0.3-0.6-0.6-1.1-0.7c-1.4-0.3-2.4,0.3-3,0.8c-1.1,0.9-1.9,2.5-1.9,4
		c0,3.2,1.3,5.7,4,7.4c4.3,2.7,11.5,2.8,16.4,0.3c4.1-2.1,7.5-5.6,11.1-9.2c2.6-2.7,5.3-5.4,8.4-7.6c7.8-5.7,16.2-8.6,24.8-8.8
		c9.9-0.1,18,3.3,26.6,7c1.8,0.8,3.6,1.5,5.4,2.3c8,3.2,16,5.8,23.7,7.6c16.3,3.8,32.6,4.7,48.5,2.8c9.3-1.1,18.7-3.2,27.8-6.3
		c10.2-3.4,20.4-7.8,30.3-11.9c4.9-2.1,9.9-4.2,14.8-6.2c5.5-2.2,11.1-4,16.5-5.2c6.8-1.6,13.3-2.4,19.4-2.4
		c5.3,0,10.4,0.6,15.2,1.8c0,0,0.1,0,0.1,0c-15.1-6-30-8-45.3-5.9c-15.2,2-30.6,6.4-45.4,10.6c-6.8,1.9-13.8,3.9-20.7,5.6
		c-42,10.6-73.6,8.1-96.6-7.7C872.6,444.8,854,434,832,442c-7.7,2.8-14.2,7.5-21,12.4c-4.8,3.5-9.8,7.1-15.2,9.9
		c-13.1,6.9-29.4,7.7-44.7,2.3c-1.1-0.4-2.1-0.8-3.2-1.2c-8.9-3.3-18-6.7-25.5-1c-1.6,1.2-2.9,2.6-4.1,4
		C721.9,467.2,726.2,467.2,729.9,468.2z"/>
	<path class="st1" d="M1065.3,464.5c10.6-2.8,21.3-4.1,31.7-4.1c2.9,0,5.7,0.1,8.6,0.3c-2.9-1.1-5.8-2.1-8.6-2.8
		c-9.7-2.4-20.7-2.2-32.8,0.6c-5.2,1.2-10.6,2.9-15.9,5.1c-4.9,2-9.9,4.1-14.8,6.2c-9.9,4.2-20.2,8.6-30.6,12
		c-9.4,3.1-19,5.3-28.6,6.5c-16.3,2-33.1,1-49.9-2.9c-7.9-1.8-16.1-4.4-24.3-7.8c-1.9-0.7-3.7-1.5-5.5-2.3c-8.2-3.5-16-6.8-25-6.7
		c-5.1,0.1-10.1,1.3-14.9,3.5c-0.1,0.1-0.2,0.2-0.3,0.2c-7,3.5-10.7,15.4-10.1,21.7c0.4,4.5,1.6,8.5,3.5,11.8
		c4.7,8.3,14.8,13.5,24.4,12.5c8.6-0.9,16.3-8.7,16.8-17.2c0.3-4.8-1.2-9.5-3.9-12.3c-2.3-2.4-5.4-3.6-9.3-3.6
		c-0.3,0-0.5-0.1-0.7-0.1c-3.5,1.1-6.6,3.1-7.6,6.1c-0.8,2.2,0,5.5,1.7,7.2c0.6,0.6,2.6,1.4,4.1,1.1c0.9-0.2,1-0.6,1.1-0.7
		c0.4-1,1.6-1.5,2.6-1c1,0.4,1.5,1.6,1,2.6c-0.7,1.6-2.1,2.7-4,3.1c-2.6,0.5-6-0.5-7.7-2.3c-2.7-2.8-3.8-7.6-2.5-11.2
		c2.9-8.4,14.7-10.7,21.9-9.6c5.7,0.9,10.8,3.5,15.8,6.1c2,1,3.9,2,5.8,2.9c9.3,4.2,16.6,6.9,23.6,8.8c18.8,5.1,37.4,5.8,56.9,2.2
		c14.8-2.7,27.2-10.2,40.4-18.1C1039.7,475.2,1051.7,468,1065.3,464.5z"/>
</g>
<g class="st0">
	<path class="st1" d="M960.5,570.2c6.8,1.9,12.4,6.2,17.7,10.3c3.6,2.7,6.9,5.3,10.6,7.3c9.7,5.1,18.6,7.1,26.7,5.7
		c5.2-0.9,10.1-4.1,16-10.5c0.1-0.1,0.1-0.1,0.2-0.1c0.4-2.1,1.5-4,3.2-5.3c1.8-1.5,4-2,6.3-1.6c2.7,0.6,4.4,2.4,4.3,4.7
		c-0.1,1.1-1,1.9-2.1,1.8c-1.1-0.1-1.9-1-1.8-2.1c0-0.3-0.6-0.6-1.1-0.7c-1.4-0.3-2.4,0.3-3,0.8c-1.1,0.9-1.9,2.5-1.9,4
		c0,3.2,1.3,5.7,4,7.4c4.3,2.7,11.5,2.8,16.4,0.3c4.1-2.1,7.5-5.6,11.1-9.2c2.6-2.7,5.3-5.4,8.4-7.6c7.8-5.7,16.2-8.6,24.8-8.8
		c9.9-0.1,18,3.3,26.6,7c1.8,0.8,3.6,1.5,5.4,2.3c8,3.2,16,5.8,23.7,7.6c16.3,3.8,32.6,4.7,48.5,2.8c9.3-1.1,18.7-3.2,27.8-6.3
		c10.2-3.4,20.4-7.8,30.3-11.9c4.9-2.1,9.9-4.2,14.8-6.2c5.5-2.2,11.1-4,16.5-5.2c6.8-1.6,13.3-2.4,19.4-2.4
		c5.3,0,10.4,0.6,15.2,1.8c0,0,0.1,0,0.1,0c-15.1-6-30-8-45.3-5.9c-15.2,2-30.6,6.4-45.4,10.6c-6.8,1.9-13.8,3.9-20.7,5.6
		c-42,10.6-73.6,8.1-96.6-7.7c-17.2-11.8-35.8-22.7-57.8-14.7c-7.7,2.8-14.2,7.5-21,12.4c-4.8,3.5-9.8,7.1-15.2,9.9
		c-13.1,6.9-29.4,7.7-44.7,2.3c-1.1-0.4-2.1-0.8-3.2-1.2c-8.9-3.3-18-6.7-25.5-1c-1.6,1.2-2.9,2.6-4.1,4
		C952.4,569.2,956.7,569.2,960.5,570.2z"/>
	<path class="st1" d="M1295.8,566.5c10.6-2.8,21.3-4.1,31.7-4.1c2.9,0,5.7,0.1,8.6,0.3c-2.9-1.1-5.8-2.1-8.6-2.8
		c-9.7-2.4-20.7-2.2-32.8,0.6c-5.2,1.2-10.6,2.9-15.9,5.1c-4.9,2-9.9,4.1-14.8,6.2c-9.9,4.2-20.2,8.6-30.6,12
		c-9.4,3.1-19,5.3-28.6,6.5c-16.3,2-33.1,1-49.9-2.9c-7.9-1.8-16.1-4.4-24.3-7.8c-1.9-0.7-3.7-1.5-5.5-2.3c-8.2-3.5-16-6.8-25-6.7
		c-5.1,0.1-10.1,1.3-14.9,3.5c-0.1,0.1-0.2,0.2-0.3,0.2c-7,3.5-10.7,15.4-10.1,21.7c0.4,4.5,1.6,8.5,3.5,11.8
		c4.7,8.3,14.8,13.5,24.4,12.5c8.6-0.9,16.3-8.7,16.8-17.2c0.3-4.8-1.2-9.5-3.9-12.3c-2.3-2.4-5.4-3.6-9.3-3.6
		c-0.3,0-0.5-0.1-0.7-0.1c-3.5,1.1-6.6,3.1-7.6,6.1c-0.8,2.2,0,5.5,1.7,7.2c0.6,0.6,2.6,1.4,4.1,1.1c0.9-0.2,1-0.6,1.1-0.7
		c0.4-1,1.6-1.5,2.6-1c1,0.4,1.5,1.6,1,2.6c-0.7,1.6-2.1,2.7-4,3.1c-2.6,0.5-6-0.5-7.7-2.3c-2.7-2.8-3.8-7.6-2.5-11.2
		c2.9-8.4,14.7-10.7,21.9-9.6c5.7,0.9,10.8,3.5,15.8,6.1c2,1,3.9,2,5.8,2.9c9.3,4.2,16.6,6.9,23.6,8.8c18.8,5.1,37.4,5.8,56.9,2.2
		c14.8-2.7,27.2-10.2,40.4-18.1C1270.2,577.3,1282.2,570.1,1295.8,566.5z"/>
</g>
<g class="st0">
	<path class="st1" d="M726.1,687.5c6.8,1.9,12.4,6.2,17.7,10.3c3.6,2.7,6.9,5.3,10.6,7.3c9.7,5.1,18.6,7.1,26.7,5.7
		c5.2-0.9,10.1-4.1,16-10.5c0.1-0.1,0.1-0.1,0.2-0.1c0.4-2.1,1.5-4,3.2-5.3c1.8-1.5,4-2,6.3-1.6c2.7,0.6,4.4,2.4,4.3,4.7
		c-0.1,1.1-1,1.9-2.1,1.8c-1.1-0.1-1.9-1-1.8-2.1c0-0.3-0.6-0.6-1.1-0.7c-1.4-0.3-2.4,0.3-3,0.8c-1.1,0.9-1.9,2.5-1.9,4
		c0,3.2,1.3,5.7,4,7.4c4.3,2.7,11.5,2.8,16.4,0.3c4.1-2.1,7.5-5.6,11.1-9.2c2.6-2.7,5.3-5.4,8.4-7.6c7.8-5.7,16.2-8.6,24.8-8.8
		c9.9-0.1,18,3.3,26.6,7c1.8,0.8,3.6,1.5,5.4,2.3c8,3.2,16,5.8,23.7,7.6c16.3,3.8,32.6,4.7,48.5,2.8c9.3-1.1,18.7-3.2,27.8-6.3
		c10.2-3.4,20.4-7.8,30.3-11.9c4.9-2.1,9.9-4.2,14.8-6.2c5.5-2.2,11.1-4,16.5-5.2c6.8-1.6,13.3-2.4,19.4-2.4
		c5.3,0,10.4,0.6,15.2,1.8c0,0,0.1,0,0.1,0c-15.1-6-30-8-45.3-5.9c-15.2,2-30.6,6.4-45.4,10.6c-6.8,1.9-13.8,3.9-20.7,5.6
		c-42,10.6-73.6,8.1-96.6-7.7c-17.2-11.8-35.8-22.7-57.8-14.7c-7.7,2.8-14.2,7.5-21,12.4c-4.8,3.5-9.8,7.1-15.2,9.9
		c-13.1,6.9-29.4,7.7-44.7,2.3c-1.1-0.4-2.1-0.8-3.2-1.2c-8.9-3.3-18-6.7-25.5-1c-1.6,1.2-2.9,2.6-4.1,4
		C718.1,686.5,722.4,686.5,726.1,687.5z"/>
	<path class="st1" d="M1061.5,683.8c10.6-2.8,21.3-4.1,31.7-4.1c2.9,0,5.7,0.1,8.6,0.3c-2.9-1.1-5.8-2.1-8.6-2.8
		c-9.7-2.4-20.7-2.2-32.8,0.6c-5.2,1.2-10.6,2.9-15.9,5.1c-4.9,2-9.9,4.1-14.8,6.2c-9.9,4.2-20.2,8.6-30.6,12
		c-9.4,3.1-19,5.3-28.6,6.5c-16.3,2-33.1,1-49.9-2.9c-7.9-1.8-16.1-4.4-24.3-7.8c-1.9-0.7-3.7-1.5-5.5-2.3c-8.2-3.5-16-6.8-25-6.7
		c-5.1,0.1-10.1,1.3-14.9,3.5c-0.1,0.1-0.2,0.2-0.3,0.2c-7,3.5-10.7,15.4-10.1,21.7c0.4,4.5,1.6,8.5,3.5,11.8
		c4.7,8.3,14.8,13.5,24.4,12.5c8.6-0.9,16.3-8.7,16.8-17.2c0.3-4.8-1.2-9.5-3.9-12.3c-2.3-2.4-5.4-3.6-9.3-3.6
		c-0.3,0-0.5-0.1-0.7-0.1c-3.5,1.1-6.6,3.1-7.6,6.1c-0.8,2.2,0,5.5,1.7,7.2c0.6,0.6,2.6,1.4,4.1,1.1c0.9-0.2,1-0.6,1.1-0.7
		c0.4-1,1.6-1.5,2.6-1c1,0.4,1.5,1.6,1,2.6c-0.7,1.6-2.1,2.7-4,3.1c-2.6,0.5-6-0.5-7.7-2.3c-2.7-2.8-3.8-7.6-2.5-11.2
		c2.9-8.4,14.7-10.7,21.9-9.6c5.7,0.9,10.8,3.5,15.8,6.1c2,1,3.9,2,5.8,2.9c9.3,4.2,16.6,6.9,23.6,8.8c18.8,5.1,37.4,5.8,56.9,2.2
		c14.8-2.7,27.2-10.2,40.4-18.1C1035.9,694.5,1047.9,687.4,1061.5,683.8z"/>
</g>
<g class="st0">
	<path class="st1" d="M67.9,468.2c6.8,1.9,12.4,6.2,17.7,10.3c3.6,2.7,6.9,5.3,10.6,7.3c9.7,5.1,18.6,7.1,26.7,5.7
		c5.2-0.9,10.1-4.1,16-10.5c0.1-0.1,0.1-0.1,0.2-0.1c0.4-2.1,1.5-4,3.2-5.3c1.8-1.5,4-2,6.3-1.6c2.7,0.6,4.4,2.4,4.3,4.7
		c-0.1,1.1-1,1.9-2.1,1.8c-1.1-0.1-1.9-1-1.8-2.1c0-0.3-0.6-0.6-1.1-0.7c-1.4-0.3-2.4,0.3-3,0.8c-1.1,0.9-1.9,2.5-1.9,4
		c0,3.2,1.3,5.7,4,7.4c4.3,2.7,11.5,2.8,16.4,0.3c4.1-2.1,7.5-5.6,11.1-9.2c2.6-2.7,5.3-5.4,8.4-7.6c7.8-5.7,16.2-8.6,24.8-8.8
		c9.9-0.1,18,3.3,26.6,7c1.8,0.8,3.6,1.5,5.4,2.3c8,3.2,16,5.8,23.7,7.6c16.3,3.8,32.6,4.7,48.5,2.8c9.3-1.1,18.7-3.2,27.8-6.3
		c10.2-3.4,20.4-7.8,30.3-11.9c4.9-2.1,9.9-4.2,14.8-6.2c5.5-2.2,11.1-4,16.5-5.2c6.8-1.6,13.3-2.4,19.4-2.4
		c5.3,0,10.4,0.6,15.2,1.8c0,0,0.1,0,0.1,0c-15.1-6-30-8-45.3-5.9c-15.2,2-30.6,6.4-45.4,10.6c-6.8,1.9-13.8,3.9-20.7,5.6
		c-42,10.6-73.6,8.1-96.6-7.7C210.7,444.8,192,434,170,442c-7.7,2.8-14.2,7.5-21,12.4c-4.8,3.5-9.8,7.1-15.2,9.9
		c-13.1,6.9-29.4,7.7-44.7,2.3c-1.1-0.4-2.1-0.8-3.2-1.2c-8.9-3.3-18-6.7-25.5-1c-1.6,1.2-2.9,2.6-4.1,4
		C59.9,467.2,64.2,467.2,67.9,468.2z"/>
	<path class="st1" d="M403.3,464.5c10.6-2.8,21.3-4.1,31.7-4.1c2.9,0,5.7,0.1,8.6,0.3c-2.9-1.1-5.8-2.1-8.6-2.8
		c-9.7-2.4-20.7-2.2-32.8,0.6c-5.2,1.2-10.6,2.9-15.9,5.1c-4.9,2-9.9,4.1-14.8,6.2c-9.9,4.2-20.2,8.6-30.6,12
		c-9.4,3.1-19,5.3-28.6,6.5c-16.3,2-33.1,1-49.9-2.9c-7.9-1.8-16.1-4.4-24.3-7.8c-1.9-0.7-3.7-1.5-5.5-2.3c-8.2-3.5-16-6.8-25-6.7
		c-5.1,0.1-10.1,1.3-14.9,3.5c-0.1,0.1-0.2,0.2-0.3,0.2c-7,3.5-10.7,15.4-10.1,21.7c0.4,4.5,1.6,8.5,3.5,11.8
		c4.7,8.3,14.8,13.5,24.4,12.5c8.6-0.9,16.3-8.7,16.8-17.2c0.3-4.8-1.2-9.5-3.9-12.3c-2.3-2.4-5.4-3.6-9.3-3.6
		c-0.3,0-0.5-0.1-0.7-0.1c-3.5,1.1-6.6,3.1-7.6,6.1c-0.8,2.2,0,5.5,1.7,7.2c0.6,0.6,2.6,1.4,4.1,1.1c0.9-0.2,1-0.6,1.1-0.7
		c0.4-1,1.6-1.5,2.6-1c1,0.4,1.5,1.6,1,2.6c-0.7,1.6-2.1,2.7-4,3.1c-2.6,0.5-6-0.5-7.7-2.3c-2.7-2.8-3.8-7.6-2.5-11.2
		c2.9-8.4,14.7-10.7,21.9-9.6c5.7,0.9,10.8,3.5,15.8,6.1c2,1,3.9,2,5.8,2.9c9.3,4.2,16.6,6.9,23.6,8.8c18.8,5.1,37.4,5.8,56.9,2.2
		c14.8-2.7,27.2-10.2,40.4-18.1C377.7,475.2,389.7,468,403.3,464.5z"/>
</g>
<g class="st0">
	<path class="st1" d="M413.9,557c6.8,1.9,12.4,6.2,17.7,10.3c3.6,2.7,6.9,5.3,10.6,7.3c9.7,5.1,18.6,7.1,26.7,5.7
		c5.2-0.9,10.1-4.1,16-10.5c0.1-0.1,0.1-0.1,0.2-0.1c0.4-2.1,1.5-4,3.2-5.3c1.8-1.5,4-2,6.3-1.6c2.7,0.6,4.4,2.4,4.3,4.7
		c-0.1,1.1-1,1.9-2.1,1.8c-1.1-0.1-1.9-1-1.8-2.1c0-0.3-0.6-0.6-1.1-0.7c-1.4-0.3-2.4,0.3-3,0.8c-1.1,0.9-1.9,2.5-1.9,4
		c0,3.2,1.3,5.7,4,7.4c4.3,2.7,11.5,2.8,16.4,0.3c4.1-2.1,7.5-5.6,11.1-9.2c2.6-2.7,5.3-5.4,8.4-7.6c7.8-5.7,16.2-8.6,24.8-8.8
		c9.9-0.1,18,3.3,26.6,7c1.8,0.8,3.6,1.5,5.4,2.3c8,3.2,16,5.8,23.7,7.6c16.3,3.8,32.6,4.7,48.5,2.8c9.3-1.1,18.7-3.2,27.8-6.3
		c10.2-3.4,20.4-7.8,30.3-11.9c4.9-2.1,9.9-4.2,14.8-6.2c5.5-2.2,11.1-4,16.5-5.2c6.8-1.6,13.3-2.4,19.4-2.4
		c5.3,0,10.4,0.6,15.2,1.8c0,0,0.1,0,0.1,0c-15.1-6-30-8-45.3-5.9c-15.2,2-30.6,6.4-45.4,10.6c-6.8,1.9-13.8,3.9-20.7,5.6
		c-42,10.6-73.6,8.1-96.6-7.7c-17.2-11.8-35.8-22.7-57.8-14.7c-7.7,2.8-14.2,7.5-21,12.4c-4.8,3.5-9.8,7.1-15.2,9.9
		c-13.1,6.9-29.4,7.7-44.7,2.3c-1.1-0.4-2.1-0.8-3.2-1.2c-8.9-3.3-18-6.7-25.5-1c-1.6,1.2-2.9,2.6-4.1,4
		C405.9,556,410.1,556,413.9,557z"/>
	<path class="st1" d="M749.2,553.3c10.6-2.8,21.3-4.1,31.7-4.1c2.9,0,5.7,0.1,8.6,0.3c-2.9-1.1-5.8-2.1-8.6-2.8
		c-9.7-2.4-20.7-2.2-32.8,0.6c-5.2,1.2-10.6,2.9-15.9,5.1c-4.9,2-9.9,4.1-14.8,6.2c-9.9,4.2-20.2,8.6-30.6,12
		c-9.4,3.1-19,5.3-28.6,6.5c-16.3,2-33.1,1-49.9-2.9c-7.9-1.8-16.1-4.4-24.3-7.8c-1.9-0.7-3.7-1.5-5.5-2.3c-8.2-3.5-16-6.8-25-6.7
		c-5.1,0.1-10.1,1.3-14.9,3.5c-0.1,0.1-0.2,0.2-0.3,0.2c-7,3.5-10.7,15.4-10.1,21.7c0.4,4.5,1.6,8.5,3.5,11.8
		c4.7,8.3,14.8,13.5,24.4,12.5c8.6-0.9,16.3-8.7,16.8-17.2c0.3-4.8-1.2-9.5-3.9-12.3c-2.3-2.4-5.4-3.6-9.3-3.6
		c-0.3,0-0.5-0.1-0.7-0.1c-3.5,1.1-6.6,3.1-7.6,6.1c-0.8,2.2,0,5.5,1.7,7.2c0.6,0.6,2.6,1.4,4.1,1.1c0.9-0.2,1-0.6,1.1-0.7
		c0.4-1,1.6-1.5,2.6-1c1,0.4,1.5,1.6,1,2.6c-0.7,1.6-2.1,2.7-4,3.1c-2.6,0.5-6-0.5-7.7-2.3c-2.7-2.8-3.8-7.6-2.5-11.2
		c2.9-8.4,14.7-10.7,21.9-9.6c5.7,0.9,10.8,3.5,15.8,6.1c2,1,3.9,2,5.8,2.9c9.3,4.2,16.6,6.9,23.6,8.8c18.8,5.1,37.4,5.8,56.9,2.2
		c14.8-2.7,27.2-10.2,40.4-18.1C723.6,564,735.6,556.8,749.2,553.3z"/>
</g>
<g class="st0">
	<path class="st1" d="M909.6,208.7c2.8-1.1,5.8-0.9,8.7-0.5c-1-0.4-2-0.9-3-1.3c-0.4-0.2-0.9-0.4-1.3-0.6c-3.8-1.7-7.5-3.1-11.3-1.8
		c-4.5,1.5-8.4,5.3-11.4,8.3c-0.1,0.1-0.2,0.2-0.3,0.4c-0.2,0.3-0.4,0.6-0.7,0.8c-5.5,5.1-16.6,10.5-24.3,4.6
		c-2.5-1.9-4.3-4.5-5.8-6.8c-4.5-6.9-9.9-13-18.3-10.3c-0.2,0.1-0.4,0.2-0.6,0.3c-0.3,0.1-0.6,0.3-0.9,0.4c-0.1,0-0.3,0.1-0.4,0.2
		c-1.1,0.4-1.9,0.7-2.6,0.6c-0.5-0.1-0.9-0.4-1.1-0.8c-0.6-1.4,0.7-2.5,1.3-3.1c0.1-0.1,0.2-0.2,0.3-0.3c0.4-0.4,0.9-0.8,1.3-1.1
		c0.5-0.4,1-0.8,1.3-1.2c3-4.6,3-9.1,0.2-13.1c-4.3-6.1-14.8-9.8-22.8-7.9c-3.9,0.9-8.8,3.4-9.9,10.4l-0.8,5.1
		c-0.1,0.7-0.8,1.2-1.5,1.1c-0.7-0.1-1.2-0.8-1.1-1.5c0.7-4.4,1.4-9.4-0.1-13.7c-0.9-2.8-2.9-5.5-5.9-8.4
		c-10.8-10.4-27.2-14.7-41.7-10.9c-6.8,1.8-12.4,5.4-17.6,11.4c-3.3,3.9-7.3,9.1-8.8,15.2c-2.1,8.9,1.6,18.9,9.2,25
		c7.1,5.7,17.2,7.8,26.9,5.7c2.8-0.6,5.3-1.5,7.4-2.7c1.2-1,2.6-2,4.1-2.9c0.3-0.3,0.6-0.6,0.9-0.8c6.2-6.5,5.3-16.8,0.9-22.6
		c-3.9-5.2-9.6-6.3-15.8-3.1c-1.9,1-4.2,3.1-4.6,5.5c-0.2,1.2,0.1,2.3,1.1,3.3c0.5,0.5,0.5,1.4-0.1,1.9c-0.5,0.5-1.4,0.5-1.9-0.1
		c-1.5-1.6-2.1-3.5-1.7-5.6c0.6-3.3,3.4-6.1,6-7.4c7.3-3.8,14.5-2.4,19.2,3.9c4.4,5.8,5.7,15.5,1.4,22.8c4.2-1.3,9.1-1.8,14.8-1
		c5.9,0.8,13.8,4.3,16.6,11.8c3,8-1.8,16.4-7.9,20.2c-4,2.5-9.6,3.1-13.7,1.4c-3.1-1.3-5.1-3.7-5.9-6.9c-1.2-5.1,1.9-10.3,6.6-11.4
		c2.6-0.6,5.1-0.2,6.5,1c0.8,0.7,1.7,1.9,1.6,4c-0.1,1.3-0.8,2.6-2,3.4c-1.1,0.7-2.3,0.9-3.4,0.5c-0.7-0.2-1.1-1-0.8-1.7
		c0.2-0.7,1-1.1,1.7-0.8c0.4,0.2,0.9-0.1,1-0.2c0.5-0.3,0.8-0.8,0.8-1.3c0-0.8-0.2-1.4-0.7-1.8c-0.8-0.7-2.5-0.9-4.2-0.5
		c-3.7,0.9-5.3,4.9-4.6,8.2c0.5,2.4,2,4.1,4.3,5c3.3,1.4,7.9,0.9,11.2-1.2c5.2-3.3,9.3-10.3,6.8-17c-2.4-6.3-9.3-9.4-14.4-10
		c-7.6-1-13.7,0.4-18.2,2.9c-1.2,1-2.5,2-4,2.8c-2.6,2.3-4.5,5-5.7,7.8c-3.6,8.5-1.4,20.2,4.6,28.4c0.1,0,0.2,0.1,0.3,0.2
		c0.4,0.2,0.6,0.6,0.6,1c1.5,1.8,3.1,3.5,5,4.8c8,5.8,21.2,7.2,29.4,3c5.8-2.9,10.5-8.2,13.6-15c-1.5-0.5-2.8-1.1-4-1.9
		c-2.9-2-4.7-5.2-4.7-8.4c0-0.7,0.6-1.3,1.3-1.3c0,0,0,0,0,0c0.7,0,1.3,0.6,1.3,1.3c0,2.3,1.4,4.6,3.5,6.2c1.9,1.3,4.5,2.1,7.5,2.2
		c6.4,0.3,12.3-2.4,18.6-8.4c0.5-0.5,1.4-0.5,1.9,0.1c0.5,0.5,0.5,1.4-0.1,1.9c-6.5,6.2-13,9.2-19.7,9.2c-0.3,0-0.6,0-0.9,0
		c-0.7,0-1.4-0.1-2.1-0.2c-1,4.4,3.5,8.7,6.5,10.7c4.9,3.2,11.8,3.7,17.9,1.4c5.6-2.2,10.5-7.1,13.7-14c-2-2.3-2.9-5.4-2.6-8.1
		c0.4-3.4,2.9-7.2,8.6-7.3c0.7,0,3.2,0.1,5.1,2.1c1.6,1.7,2.2,4.1,1.9,7.2c-0.1,0.7-0.7,1.3-1.5,1.2c-0.7-0.1-1.3-0.7-1.2-1.5
		c0.2-2.3-0.2-4-1.2-5.1c-0.9-1-2.2-1.3-3-1.3c-4.9,0.1-5.9,3.5-6,4.9c-0.4,3.2,1.6,7.1,5.6,8.2c5.2,1.4,13.4-0.5,17-5.3
		c0.8-1.1,0.7-2,0.5-3.4c-0.2-1.1-0.4-2.4,0-3.8c0.9-3.6,4.2-3.4,6.1-3.3c0.6,0,1.2,0,1.9,0.1c0.5,0,1,0.1,1.3,0
		c2.7-0.8,3.3-3.4,4.1-7.2c0.2-1,0.4-2,0.6-2.9C902.5,213.4,905.3,210.4,909.6,208.7z"/>
	<path class="st1" d="M767.4,220.8c0.6-1.4,1.4-2.9,2.4-4.3c-0.9,0.3-1.8,0.5-2.7,0.7c-10.5,2.3-21.4,0-29.1-6.2
		c-4.2-3.4-7.4-7.9-9.1-12.8c-6.8,0.1-12.8,2-16.9,5.3c-5.3,4.2-10,12.5-8.9,20.1c0.5,3.5,2.4,6.8,5.2,9c3.9,3.1,11.5,4,16.5,1.9
		c3.1-1.3,4.9-3.5,5.2-6.6c0.4-4-2.5-6.7-5.3-7.6c-2.5-0.7-5.7-0.2-7.5,3.3c-0.3,0.7-1.1,0.9-1.8,0.6c-0.7-0.3-0.9-1.1-0.6-1.8
		c2.1-4.1,6.3-5.9,10.7-4.6c3.9,1.1,7.8,4.9,7.2,10.4c-0.4,4-2.8,7.1-6.8,8.8c-2.2,0.9-4.8,1.4-7.4,1.4c-4.4,0-8.9-1.3-11.9-3.6
		c-3.3-2.6-5.6-6.5-6.2-10.7c-0.2-1.5-0.2-3.1-0.1-4.6c-5.5-3.8-13.4-3.7-18.8,0.3c-2.3,1.7-4,4.1-5.7,6.7c-2.2,3.3-4.5,6.6-8.3,8.5
		c-1.9,0.9-4,1.2-5.9,1.3c-3.2,0.3-5.3-0.7-7.5-1.6c-0.9-0.4-1.7-0.8-2.7-1.1c-0.4-0.1-0.7-0.3-1.1-0.4c-0.9-0.3-1.6-0.6-2.4-0.7
		c-1.5,0-2.6,0.1-3.8,0.4c-0.1,0-0.2,0.1-0.3,0.1c3.8,1.3,5.7,5.5,6.7,7.9c2.5,5.6,5.3,9.2,11.1,9.5c5.4,0.3,9.5-2.4,13.9-5.3
		c2.3-1.5,4.8-3.1,7.4-4.2c0.7-0.3,1.4-0.5,2.1-0.7c0.2-0.2,0.4-0.3,0.7-0.3c1-0.2,2-0.3,3-0.3c6.1-0.3,11.6,2.7,17,5.6
		c4.2,2.3,8.4,4.6,12.8,5.2c6.7,1,13.3-0.8,17.6-4.7c0.6-0.5,1.4-0.5,1.9,0.1c0.5,0.6,0.5,1.4-0.1,1.9c-4,3.7-9.8,5.7-15.8,5.7
		c-1.3,0-2.7-0.1-4-0.3c-4.8-0.7-9.3-3.1-13.6-5.5c0.9,0.8,1.7,1.6,2.4,2.4c1.2,1.2,2.4,2.4,3.4,3.3c0.6,0.5,1.2,1,1.7,1.5
		c4.5,4,7.8,6.8,13.8,7.9c3.8,0.7,8.1,0.3,11.7-1.2c3.7-1.5,5.8-4,8.3-6.9c0.4-0.5,0.9-1,1.3-1.6c0,0,0,0,0,0
		c0.5-0.6,1.3-0.6,1.9-0.1c0.4,0.3,0.5,0.8,0.4,1.3c0.5,0.7,2.2,2,3.9,3.2c6.9,4.6,14.4,0.5,18.9-5.4
		C765.6,242.9,763.4,230.3,767.4,220.8z"/>
</g>
<g class="st0">
	<path class="st1" d="M372.7,729.6c2.8-1.1,5.8-0.9,8.7-0.5c-1-0.4-2-0.9-3-1.3c-0.4-0.2-0.9-0.4-1.3-0.6c-3.8-1.7-7.5-3.1-11.3-1.8
		c-4.5,1.5-8.4,5.3-11.4,8.3c-0.1,0.1-0.2,0.2-0.3,0.4c-0.2,0.3-0.4,0.6-0.7,0.8c-5.5,5.1-16.6,10.5-24.3,4.6
		c-2.5-1.9-4.3-4.5-5.8-6.8c-4.5-6.9-9.9-13-18.3-10.3c-0.2,0.1-0.4,0.2-0.6,0.3c-0.3,0.1-0.6,0.3-0.9,0.4c-0.1,0-0.3,0.1-0.4,0.2
		c-1.1,0.4-1.9,0.7-2.6,0.6c-0.5-0.1-0.9-0.4-1.1-0.8c-0.6-1.4,0.7-2.5,1.3-3.1c0.1-0.1,0.2-0.2,0.3-0.3c0.4-0.4,0.9-0.8,1.3-1.1
		c0.5-0.4,1-0.8,1.3-1.2c3-4.6,3-9.1,0.2-13.1c-4.3-6.1-14.8-9.8-22.8-7.9c-3.9,0.9-8.8,3.4-9.9,10.4l-0.8,5.1
		c-0.1,0.7-0.8,1.2-1.5,1.1c-0.7-0.1-1.2-0.8-1.1-1.5c0.7-4.4,1.4-9.4-0.1-13.7c-0.9-2.8-2.9-5.5-5.9-8.4
		c-10.8-10.4-27.2-14.7-41.7-10.9c-6.8,1.8-12.4,5.4-17.6,11.4c-3.3,3.9-7.3,9.1-8.8,15.2c-2.1,8.9,1.6,18.9,9.2,25
		c7.1,5.7,17.2,7.8,26.9,5.7c2.8-0.6,5.3-1.5,7.4-2.7c1.2-1,2.6-2,4.1-2.9c0.3-0.3,0.6-0.6,0.9-0.8c6.2-6.5,5.3-16.8,0.9-22.6
		c-3.9-5.2-9.6-6.3-15.8-3.1c-1.9,1-4.2,3.1-4.6,5.5c-0.2,1.2,0.1,2.3,1.1,3.3c0.5,0.5,0.5,1.4-0.1,1.9c-0.5,0.5-1.4,0.5-1.9-0.1
		c-1.5-1.6-2.1-3.5-1.7-5.6c0.6-3.3,3.4-6.1,6-7.4c7.3-3.8,14.5-2.4,19.2,3.9c4.4,5.8,5.7,15.5,1.4,22.8c4.2-1.3,9.1-1.8,14.8-1
		c5.9,0.8,13.8,4.3,16.6,11.8c3,8-1.8,16.4-7.9,20.2c-4,2.5-9.6,3.1-13.7,1.4c-3.1-1.3-5.1-3.7-5.9-6.9c-1.2-5.1,1.9-10.3,6.6-11.4
		c2.6-0.6,5.1-0.2,6.5,1c0.8,0.7,1.7,1.9,1.6,4c-0.1,1.3-0.8,2.6-2,3.4c-1.1,0.7-2.3,0.9-3.4,0.5c-0.7-0.2-1.1-1-0.8-1.7
		c0.2-0.7,1-1.1,1.7-0.8c0.4,0.2,0.9-0.1,1-0.2c0.5-0.3,0.8-0.8,0.8-1.3c0-0.8-0.2-1.4-0.7-1.8c-0.8-0.7-2.5-0.9-4.2-0.5
		c-3.7,0.9-5.3,4.9-4.6,8.2c0.5,2.4,2,4.1,4.3,5c3.3,1.4,7.9,0.9,11.2-1.2c5.2-3.3,9.3-10.3,6.8-17c-2.4-6.3-9.3-9.4-14.4-10
		c-7.6-1-13.7,0.4-18.2,2.9c-1.2,1-2.5,2-4,2.8c-2.6,2.3-4.5,5-5.7,7.8c-3.6,8.5-1.4,20.2,4.6,28.4c0.1,0,0.2,0.1,0.3,0.2
		c0.4,0.2,0.6,0.6,0.6,1c1.5,1.8,3.1,3.5,5,4.8c8,5.8,21.2,7.2,29.4,3c5.8-2.9,10.5-8.2,13.6-15c-1.5-0.5-2.8-1.1-4-1.9
		c-2.9-2-4.7-5.2-4.7-8.4c0-0.7,0.6-1.3,1.3-1.3c0,0,0,0,0,0c0.7,0,1.3,0.6,1.3,1.3c0,2.3,1.4,4.6,3.5,6.2c1.9,1.3,4.5,2.1,7.5,2.2
		c6.4,0.3,12.3-2.4,18.6-8.4c0.5-0.5,1.4-0.5,1.9,0.1c0.5,0.5,0.5,1.4-0.1,1.9c-6.5,6.2-13,9.2-19.7,9.2c-0.3,0-0.6,0-0.9,0
		c-0.7,0-1.4-0.1-2.1-0.2c-1,4.4,3.5,8.7,6.5,10.7c4.9,3.2,11.8,3.7,17.9,1.4c5.6-2.2,10.5-7.1,13.7-14c-2-2.3-2.9-5.4-2.6-8.1
		c0.4-3.4,2.9-7.2,8.6-7.3c0.7,0,3.2,0.1,5.1,2.1c1.6,1.7,2.2,4.1,1.9,7.2c-0.1,0.7-0.7,1.3-1.5,1.2c-0.7-0.1-1.3-0.7-1.2-1.5
		c0.2-2.3-0.2-4-1.2-5.1c-0.9-1-2.2-1.3-3-1.3c-4.9,0.1-5.9,3.5-6,4.9c-0.4,3.2,1.6,7.1,5.6,8.2c5.2,1.4,13.4-0.5,17-5.3
		c0.8-1.1,0.7-2,0.5-3.4c-0.2-1.1-0.4-2.4,0-3.8c0.9-3.6,4.2-3.4,6.1-3.3c0.6,0,1.2,0,1.9,0.1c0.5,0,1,0.1,1.3,0
		c2.7-0.8,3.3-3.4,4.1-7.2c0.2-1,0.4-2,0.6-2.9C365.6,734.3,368.4,731.3,372.7,729.6z"/>
	<path class="st1" d="M230.5,741.7c0.6-1.4,1.4-2.9,2.4-4.3c-0.9,0.3-1.8,0.5-2.7,0.7c-10.5,2.3-21.4,0-29.1-6.2
		c-4.2-3.4-7.4-7.9-9.1-12.8c-6.8,0.1-12.8,2-16.9,5.3c-5.3,4.2-10,12.5-8.9,20.1c0.5,3.5,2.4,6.8,5.2,9c3.9,3.1,11.5,4,16.5,1.9
		c3.1-1.3,4.9-3.5,5.2-6.6c0.4-4-2.5-6.7-5.3-7.6c-2.5-0.7-5.7-0.2-7.5,3.3c-0.3,0.7-1.1,0.9-1.8,0.6c-0.7-0.3-0.9-1.1-0.6-1.8
		c2.1-4.1,6.3-5.9,10.7-4.6c3.9,1.1,7.8,4.9,7.2,10.4c-0.4,4-2.8,7.1-6.8,8.8c-2.2,0.9-4.8,1.4-7.4,1.4c-4.4,0-8.9-1.3-11.9-3.6
		c-3.3-2.6-5.6-6.5-6.2-10.7c-0.2-1.5-0.2-3.1-0.1-4.6c-5.5-3.8-13.4-3.7-18.8,0.3c-2.3,1.7-4,4.1-5.7,6.7c-2.2,3.3-4.5,6.6-8.3,8.5
		c-1.9,0.9-4,1.2-5.9,1.3c-3.2,0.3-5.3-0.7-7.5-1.6c-0.9-0.4-1.7-0.8-2.7-1.1c-0.4-0.1-0.7-0.3-1.1-0.4c-0.9-0.3-1.6-0.6-2.4-0.7
		c-1.5,0-2.6,0.1-3.8,0.4c-0.1,0-0.2,0.1-0.3,0.1c3.8,1.3,5.7,5.5,6.7,7.9c2.5,5.6,5.3,9.2,11.1,9.5c5.4,0.3,9.5-2.4,13.9-5.3
		c2.3-1.5,4.8-3.1,7.4-4.2c0.7-0.3,1.4-0.5,2.1-0.7c0.2-0.2,0.4-0.3,0.7-0.3c1-0.2,2-0.3,3-0.3c6.1-0.3,11.6,2.7,17,5.6
		c4.2,2.3,8.4,4.6,12.8,5.2c6.7,1,13.3-0.8,17.6-4.7c0.6-0.5,1.4-0.5,1.9,0.1c0.5,0.6,0.5,1.4-0.1,1.9c-4,3.7-9.8,5.7-15.8,5.7
		c-1.3,0-2.7-0.1-4-0.3c-4.8-0.7-9.3-3.1-13.6-5.5c0.9,0.8,1.7,1.6,2.4,2.4c1.2,1.2,2.4,2.4,3.4,3.3c0.6,0.5,1.2,1,1.7,1.5
		c4.5,4,7.8,6.8,13.8,7.9c3.8,0.7,8.1,0.3,11.7-1.2c3.7-1.5,5.8-4,8.3-6.9c0.4-0.5,0.9-1,1.3-1.6c0,0,0,0,0,0
		c0.5-0.6,1.3-0.6,1.9-0.1c0.4,0.3,0.5,0.8,0.4,1.3c0.5,0.7,2.2,2,3.9,3.2c6.9,4.6,14.4,0.5,18.9-5.4
		C228.7,763.8,226.5,751.2,230.5,741.7z"/>
</g>
<g class="st0">
	<path class="st1" d="M-266.8,721.2c2.6-1.1,5.5-0.8,8.3-0.5c-1-0.4-1.9-0.8-2.8-1.3c-0.4-0.2-0.8-0.4-1.2-0.6
		c-3.6-1.6-7.1-3-10.7-1.7c-4.2,1.5-8,5-10.8,7.9c-0.1,0.1-0.2,0.2-0.3,0.4c-0.2,0.2-0.4,0.5-0.7,0.8c-5.3,4.8-15.7,9.9-23.1,4.4
		c-2.4-1.8-4.1-4.3-5.5-6.4c-4.3-6.6-9.4-12.3-17.4-9.8c-0.2,0.1-0.4,0.2-0.6,0.3c-0.3,0.1-0.5,0.3-0.8,0.3c-0.1,0-0.3,0.1-0.4,0.2
		c-1,0.4-1.8,0.7-2.5,0.6c-0.4-0.1-0.8-0.4-1-0.8c-0.5-1.3,0.6-2.4,1.3-3c0.1-0.1,0.2-0.2,0.3-0.2c0.4-0.4,0.8-0.8,1.2-1.1
		c0.5-0.4,0.9-0.7,1.2-1.1c2.8-4.4,2.9-8.7,0.2-12.5c-4.1-5.8-14-9.3-21.7-7.5c-3.7,0.9-8.4,3.3-9.4,9.9l-0.8,4.9
		c-0.1,0.7-0.8,1.2-1.5,1.1c-0.7-0.1-1.2-0.8-1.1-1.4c0.6-4.2,1.3-8.9-0.1-13c-0.9-2.6-2.7-5.3-5.6-8c-10.3-9.9-25.8-13.9-39.6-10.4
		c-6.5,1.7-11.8,5.1-16.7,10.8c-3.2,3.7-7,8.7-8.3,14.4c-2,8.4,1.5,17.9,8.7,23.7c6.8,5.4,16.3,7.4,25.5,5.4c2.6-0.6,5-1.5,7.1-2.6
		c1.2-1,2.4-1.9,3.9-2.7c0.3-0.3,0.6-0.5,0.8-0.8c5.9-6.1,5-15.9,0.8-21.5c-3.7-4.9-9.1-6-15-2.9c-1.8,0.9-3.9,3-4.3,5.2
		c-0.2,1.2,0.1,2.2,1,3.1c0.5,0.5,0.5,1.3-0.1,1.8c-0.5,0.5-1.3,0.5-1.8-0.1c-1.4-1.5-2-3.3-1.6-5.3c0.5-3.1,3.2-5.7,5.7-7
		c6.9-3.6,13.7-2.2,18.2,3.7c4.1,5.5,5.4,14.7,1.3,21.7c4-1.2,8.6-1.7,14.1-1c5.6,0.7,13.1,4.1,15.8,11.1c2.8,7.6-1.7,15.5-7.5,19.2
		c-3.8,2.4-9.1,3-13,1.4c-2.9-1.2-4.8-3.5-5.6-6.6c-1.1-4.8,1.8-9.8,6.2-10.8c2.5-0.6,4.8-0.2,6.2,0.9c0.8,0.6,1.6,1.8,1.5,3.8
		c-0.1,1.3-0.8,2.5-1.9,3.2c-1,0.7-2.2,0.9-3.3,0.5c-0.7-0.2-1-1-0.8-1.6c0.2-0.7,1-1,1.6-0.8c0.4,0.1,0.8-0.1,1-0.2
		c0.4-0.3,0.7-0.8,0.8-1.2c0-0.8-0.2-1.4-0.6-1.7c-0.8-0.6-2.3-0.8-4-0.4c-3.5,0.8-5,4.7-4.3,7.8c0.5,2.3,1.9,3.9,4,4.8
		c3.1,1.3,7.5,0.8,10.6-1.2c4.9-3.1,8.8-9.8,6.5-16.1c-2.2-6-8.8-8.9-13.7-9.5c-7.2-0.9-13,0.3-17.3,2.7c-1.1,1-2.4,1.9-3.8,2.7
		c-2.5,2.2-4.3,4.8-5.4,7.4c-3.4,8.1-1.3,19.2,4.4,27c0.1,0,0.2,0.1,0.3,0.2c0.3,0.2,0.5,0.6,0.6,1c1.4,1.7,3,3.3,4.7,4.5
		c7.6,5.5,20.1,6.8,27.9,2.9c5.5-2.8,10-7.8,12.9-14.2c-1.4-0.4-2.7-1-3.8-1.8c-2.7-1.9-4.4-4.9-4.4-7.9c0-0.7,0.6-1.3,1.3-1.3
		c0,0,0,0,0,0c0.7,0,1.3,0.6,1.3,1.3c0,2.2,1.3,4.4,3.3,5.8c1.8,1.3,4.3,2,7.1,2.1c6,0.2,11.7-2.3,17.7-8c0.5-0.5,1.3-0.5,1.8,0
		c0.5,0.5,0.5,1.3,0,1.8c-6.2,5.9-12.3,8.7-18.7,8.7c-0.3,0-0.6,0-0.8,0c-0.7,0-1.4-0.1-2-0.2c-0.9,4.2,3.3,8.3,6.2,10.1
		c4.7,3,11.2,3.5,17,1.3c5.3-2,9.9-6.8,13-13.3c-1.9-2.2-2.7-5.1-2.4-7.6c0.4-3.3,2.7-6.8,8.2-6.9c0.7,0,3,0.1,4.8,2
		c1.5,1.6,2.1,3.9,1.8,6.8c-0.1,0.7-0.7,1.2-1.4,1.2c-0.7-0.1-1.2-0.7-1.2-1.4c0.2-2.2-0.2-3.8-1.2-4.8c-0.9-0.9-2.1-1.2-2.9-1.2
		c-4.7,0.1-5.6,3.3-5.7,4.7c-0.4,3,1.5,6.8,5.3,7.8c4.9,1.3,12.7-0.4,16.1-5c0.8-1.1,0.7-1.9,0.5-3.2c-0.2-1.1-0.3-2.2,0-3.6
		c0.9-3.4,4-3.2,5.8-3.1c0.6,0,1.2,0,1.8,0.1c0.5,0,1,0.1,1.2,0c2.5-0.8,3.2-3.2,3.8-6.9c0.2-1,0.3-1.9,0.6-2.7
		C-273.5,725.7-270.9,722.9-266.8,721.2z"/>
	<path class="st1" d="M-401.7,732.7c0.6-1.4,1.3-2.7,2.2-4c-0.8,0.3-1.7,0.5-2.6,0.7c-10,2.2-20.3,0-27.6-5.9c-4-3.2-7-7.5-8.7-12.2
		c-6.4,0.1-12.1,1.9-16.1,5c-5,4-9.5,11.8-8.4,19c0.5,3.3,2.3,6.4,4.9,8.5c3.7,3,10.9,3.8,15.7,1.8c3-1.3,4.6-3.4,4.9-6.3
		c0.4-3.8-2.3-6.4-5-7.2c-2.3-0.7-5.4-0.2-7.1,3.1c-0.3,0.6-1.1,0.9-1.7,0.6c-0.6-0.3-0.9-1.1-0.6-1.7c2-3.9,5.9-5.6,10.1-4.4
		c3.7,1.1,7.4,4.6,6.9,9.9c-0.4,3.8-2.7,6.8-6.5,8.4c-2.1,0.9-4.5,1.3-7,1.3c-4.2,0-8.5-1.2-11.3-3.4c-3.1-2.5-5.3-6.2-5.9-10.2
		c-0.2-1.5-0.2-2.9-0.1-4.4c-5.2-3.7-12.7-3.5-17.9,0.3c-2.2,1.6-3.8,3.9-5.4,6.3c-2.1,3.1-4.2,6.3-7.9,8.1
		c-1.8,0.9-3.7,1.1-5.6,1.3c-3.1,0.2-5-0.6-7.1-1.6c-0.8-0.4-1.6-0.7-2.6-1.1c-0.4-0.1-0.7-0.3-1.1-0.4c-0.8-0.3-1.5-0.6-2.3-0.6
		c-1.4,0-2.5,0.1-3.6,0.4c-0.1,0-0.2,0-0.2,0.1c3.6,1.3,5.4,5.3,6.4,7.5c2.4,5.3,5,8.7,10.6,9c5.1,0.3,9-2.3,13.2-5
		c2.2-1.5,4.5-3,7.1-4c0.7-0.3,1.4-0.5,2-0.7c0.2-0.2,0.4-0.3,0.6-0.3c1-0.2,1.9-0.3,2.9-0.3c5.8-0.3,11,2.6,16.1,5.4
		c3.9,2.1,8,4.4,12.1,5c6.4,0.9,12.6-0.7,16.7-4.5c0.5-0.5,1.3-0.4,1.8,0.1c0.5,0.5,0.4,1.3-0.1,1.8c-3.8,3.5-9.3,5.4-15,5.4
		c-1.3,0-2.5-0.1-3.8-0.3c-4.5-0.7-8.8-3-12.9-5.2c0.8,0.8,1.6,1.6,2.3,2.3c1.1,1.2,2.2,2.3,3.2,3.1c0.6,0.5,1.1,1,1.7,1.4
		c4.3,3.8,7.4,6.5,13.1,7.5c3.6,0.7,7.7,0.2,11.1-1.1c3.5-1.4,5.5-3.8,7.9-6.5c0.4-0.5,0.8-1,1.3-1.5c0,0,0,0,0,0
		c0.5-0.5,1.3-0.6,1.8-0.1c0.4,0.3,0.5,0.8,0.4,1.2c0.5,0.6,2,1.9,3.7,3c6.5,4.3,13.7,0.5,17.9-5.1
		C-403.4,753.6-405.5,741.7-401.7,732.7z"/>
</g>
<g class="st0">
	<path class="st1" d="M1606.7,968.1c2.8-1.1,5.8-0.9,8.7-0.5c-1-0.4-2-0.9-3-1.3c-0.4-0.2-0.9-0.4-1.3-0.6
		c-3.8-1.7-7.5-3.1-11.3-1.8c-4.5,1.5-8.4,5.3-11.4,8.3c-0.1,0.1-0.2,0.2-0.3,0.4c-0.2,0.3-0.4,0.6-0.7,0.8
		c-5.5,5.1-16.6,10.5-24.3,4.6c-2.5-1.9-4.3-4.5-5.8-6.8c-4.5-6.9-9.9-13-18.3-10.3c-0.2,0.1-0.4,0.2-0.6,0.3
		c-0.3,0.1-0.6,0.3-0.9,0.4c-0.1,0-0.3,0.1-0.4,0.2c-1.1,0.4-1.9,0.7-2.6,0.6c-0.5-0.1-0.9-0.4-1.1-0.8c-0.6-1.4,0.7-2.5,1.3-3.1
		c0.1-0.1,0.2-0.2,0.3-0.3c0.4-0.4,0.9-0.8,1.3-1.1c0.5-0.4,1-0.8,1.3-1.2c3-4.6,3-9.1,0.2-13.1c-4.3-6.1-14.8-9.8-22.8-7.9
		c-3.9,0.9-8.8,3.4-9.9,10.4l-0.8,5.1c-0.1,0.7-0.8,1.2-1.5,1.1c-0.7-0.1-1.2-0.8-1.1-1.5c0.7-4.4,1.4-9.4-0.1-13.7
		c-0.9-2.8-2.9-5.5-5.9-8.4c-10.8-10.4-27.2-14.7-41.7-10.9c-6.8,1.8-12.4,5.4-17.6,11.4c-3.3,3.9-7.3,9.1-8.8,15.2
		c-2.1,8.9,1.6,18.9,9.2,25c7.1,5.7,17.2,7.8,26.9,5.7c2.8-0.6,5.3-1.5,7.4-2.7c1.2-1,2.6-2,4.1-2.9c0.3-0.3,0.6-0.6,0.9-0.8
		c6.2-6.5,5.3-16.8,0.9-22.6c-3.9-5.2-9.6-6.3-15.8-3.1c-1.9,1-4.2,3.1-4.6,5.5c-0.2,1.2,0.1,2.3,1.1,3.3c0.5,0.5,0.5,1.4-0.1,1.9
		c-0.5,0.5-1.4,0.5-1.9-0.1c-1.5-1.6-2.1-3.5-1.7-5.6c0.6-3.3,3.4-6.1,6-7.4c7.3-3.8,14.5-2.4,19.2,3.9c4.4,5.8,5.7,15.5,1.4,22.8
		c4.2-1.3,9.1-1.8,14.8-1c5.9,0.8,13.8,4.3,16.6,11.8c3,8-1.8,16.4-7.9,20.2c-4,2.5-9.6,3.1-13.7,1.4c-3.1-1.3-5.1-3.7-5.9-6.9
		c-1.2-5.1,1.9-10.3,6.6-11.4c2.6-0.6,5.1-0.2,6.5,1c0.8,0.7,1.7,1.9,1.6,4c-0.1,1.3-0.8,2.6-2,3.4c-1.1,0.7-2.3,0.9-3.4,0.5
		c-0.7-0.2-1.1-1-0.8-1.7c0.2-0.7,1-1.1,1.7-0.8c0.4,0.2,0.9-0.1,1-0.2c0.5-0.3,0.8-0.8,0.8-1.3c0-0.8-0.2-1.4-0.7-1.8
		c-0.8-0.7-2.5-0.9-4.2-0.5c-3.7,0.9-5.3,4.9-4.6,8.2c0.5,2.4,2,4.1,4.3,5c3.3,1.4,7.9,0.9,11.2-1.2c5.2-3.3,9.3-10.3,6.8-17
		c-2.4-6.3-9.3-9.4-14.4-10c-7.6-1-13.7,0.4-18.2,2.9c-1.2,1-2.5,2-4,2.8c-2.6,2.3-4.5,5-5.7,7.8c-3.6,8.5-1.4,20.2,4.6,28.4
		c0.1,0,0.2,0.1,0.3,0.2c0.4,0.2,0.6,0.6,0.6,1c1.5,1.8,3.1,3.5,5,4.8c8,5.8,21.2,7.2,29.4,3c5.8-2.9,10.5-8.2,13.6-15
		c-1.5-0.5-2.8-1.1-4-1.9c-2.9-2-4.7-5.2-4.7-8.4c0-0.7,0.6-1.3,1.3-1.3c0,0,0,0,0,0c0.7,0,1.3,0.6,1.3,1.3c0,2.3,1.4,4.6,3.5,6.2
		c1.9,1.3,4.5,2.1,7.5,2.2c6.4,0.3,12.3-2.4,18.6-8.4c0.5-0.5,1.4-0.5,1.9,0.1c0.5,0.5,0.5,1.4-0.1,1.9c-6.5,6.2-13,9.2-19.7,9.2
		c-0.3,0-0.6,0-0.9,0c-0.7,0-1.4-0.1-2.1-0.2c-1,4.4,3.5,8.7,6.5,10.7c4.9,3.2,11.8,3.7,17.9,1.4c5.6-2.2,10.5-7.1,13.7-14
		c-2-2.3-2.9-5.4-2.6-8.1c0.4-3.4,2.9-7.2,8.6-7.3c0.7,0,3.2,0.1,5.1,2.1c1.6,1.7,2.2,4.1,1.9,7.2c-0.1,0.7-0.7,1.3-1.5,1.2
		c-0.7-0.1-1.3-0.7-1.2-1.5c0.2-2.3-0.2-4-1.2-5.1c-0.9-1-2.2-1.3-3-1.3c-4.9,0.1-5.9,3.5-6,4.9c-0.4,3.2,1.6,7.1,5.6,8.2
		c5.2,1.4,13.4-0.5,17-5.3c0.8-1.1,0.7-2,0.5-3.4c-0.2-1.1-0.4-2.4,0-3.8c0.9-3.6,4.2-3.4,6.1-3.3c0.6,0,1.2,0,1.9,0.1
		c0.5,0,1,0.1,1.3,0c2.7-0.8,3.3-3.4,4.1-7.2c0.2-1,0.4-2,0.6-2.9C1599.6,972.8,1602.4,969.9,1606.7,968.1z"/>
	<path class="st1" d="M1464.4,980.3c0.6-1.4,1.4-2.9,2.4-4.3c-0.9,0.3-1.8,0.5-2.7,0.7c-10.5,2.3-21.4,0-29.1-6.2
		c-4.2-3.4-7.4-7.9-9.1-12.8c-6.8,0.1-12.8,2-16.9,5.3c-5.3,4.2-10,12.5-8.9,20.1c0.5,3.5,2.4,6.8,5.2,9c3.9,3.1,11.5,4,16.5,1.9
		c3.1-1.3,4.9-3.5,5.2-6.6c0.4-4-2.5-6.7-5.3-7.6c-2.5-0.7-5.7-0.2-7.5,3.3c-0.3,0.7-1.1,0.9-1.8,0.6c-0.7-0.3-0.9-1.1-0.6-1.8
		c2.1-4.1,6.3-5.9,10.7-4.6c3.9,1.1,7.8,4.9,7.2,10.4c-0.4,4-2.8,7.1-6.8,8.8c-2.2,0.9-4.8,1.4-7.4,1.4c-4.4,0-8.9-1.3-11.9-3.6
		c-3.3-2.6-5.6-6.5-6.2-10.7c-0.2-1.5-0.2-3.1-0.1-4.6c-5.5-3.8-13.4-3.7-18.8,0.3c-2.3,1.7-4,4.1-5.7,6.7c-2.2,3.3-4.5,6.6-8.3,8.5
		c-1.9,0.9-4,1.2-5.9,1.3c-3.2,0.3-5.3-0.7-7.5-1.6c-0.9-0.4-1.7-0.8-2.7-1.1c-0.4-0.1-0.7-0.3-1.1-0.4c-0.9-0.3-1.6-0.6-2.4-0.7
		c-1.5,0-2.6,0.1-3.8,0.4c-0.1,0-0.2,0.1-0.3,0.1c3.8,1.3,5.7,5.5,6.7,7.9c2.5,5.6,5.3,9.2,11.1,9.5c5.4,0.3,9.5-2.4,13.9-5.3
		c2.3-1.5,4.8-3.1,7.4-4.2c0.7-0.3,1.4-0.5,2.1-0.7c0.2-0.2,0.4-0.3,0.7-0.3c1-0.2,2-0.3,3-0.3c6.1-0.3,11.6,2.7,17,5.6
		c4.2,2.3,8.4,4.6,12.8,5.2c6.7,1,13.3-0.8,17.6-4.7c0.6-0.5,1.4-0.5,1.9,0.1c0.5,0.6,0.5,1.4-0.1,1.9c-4,3.7-9.8,5.7-15.8,5.7
		c-1.3,0-2.7-0.1-4-0.3c-4.8-0.7-9.3-3.1-13.6-5.5c0.9,0.8,1.7,1.6,2.4,2.4c1.2,1.2,2.4,2.4,3.4,3.3c0.6,0.5,1.2,1,1.7,1.5
		c4.5,4,7.8,6.8,13.8,7.9c3.8,0.7,8.1,0.3,11.7-1.2c3.7-1.5,5.8-4,8.3-6.9c0.4-0.5,0.9-1,1.3-1.6c0,0,0,0,0,0
		c0.5-0.6,1.3-0.6,1.9-0.1c0.4,0.3,0.5,0.8,0.4,1.3c0.5,0.7,2.2,2,3.9,3.2c6.9,4.6,14.4,0.5,18.9-5.4
		C1462.7,1002.3,1460.4,989.7,1464.4,980.3z"/>
</g>
</svg>
