<?xml version="1.0" encoding="utf-8"?>
<!-- Generator: Adobe Illustrator 21.1.0, SVG Export Plug-In . SVG Version: 6.00 Build 0)  -->
<svg version="1.1" xmlns="http://www.w3.org/2000/svg" xmlns:xlink="http://www.w3.org/1999/xlink" x="0px" y="0px"
	 viewBox="0 0 1200 1200" style="enable-background:new 0 0 1200 1200;" xml:space="preserve">
<style type="text/css">
	.st0{fill:#E23B3B;}
	.st1{fill:#D6D6D6;}
</style>
<g id="Background">
</g>
<g id="Graphic_elements">
	<g>
		
			<image style="overflow:visible;opacity:0.75;" width="3588" height="3589" xlink:href="C246A4C0.png"  transform="matrix(0.24 0 0 0.24 194.0494 129.24)">
		</image>
		<g>
			<circle class="st0" cx="614.6" cy="559.8" r="385.5"/>
		</g>
	</g>
	<g>
		<path class="st1" d="M1125.6,151.9c-3.7-2.5-8.1-4.4-13.1-5.8c-10.2-2.8-20.8-2.3-30,1.4c-10,3.9-17.1,11.3-19.6,20.2
			c-1.7,6.3-0.1,12.6,4.5,17.9c1.1,1.2,2.2,2.4,3.5,3.6c3.1,3.1,6.4,6.3,8.3,10.6c2.7,6.1,1.4,13.9-3.4,21c-0.1,0.2-0.3,0.4-0.5,0.5
			c0,0,0,0,0.1,0.1c3.3,4.4,4.7,10.1,3.9,15.5c-1.2,7.2-6.1,12.7-14.6,16.2c-0.4,0.2-0.8,0.2-1.2,0.2c-1.4,0-2.7-0.9-3.1-2.3
			c-0.5-1.6,0.4-3.4,2-4c7.2-3,10.6-7.3,10.7-13.2c0-1.8-0.3-3.6-1-5.2c-1.8-4.5-5.6-7.4-9.9-7.9c-7-0.8-12.5,4.5-18.3,10.1
			c-2.5,2.4-5.1,4.9-7.8,6.9c-7.5,5.3-16.1,7.2-23.2,5.1c-8.2-2.4-12.7-8.4-12.5-16.4c0.4-10.9,9.8-22.4,20-24.7
			c4.1-0.9,6.7-2.2,7.3-3.7c1-2.5-2.3-7.6-5.3-12.1c-3.2-4.9-6.6-10.1-7.3-15.3c-0.5-3.9-0.6-7.9-0.8-11.9
			c-0.4-15.2-1.3-23.9-14.9-25c-7-0.6-13.7,3.5-20.2,7.5c-3.1,1.9-6.4,3.9-9.6,5.3c-5,2.2-9.2,1.5-13.4,0.8
			c-1.4-0.2-2.8-0.5-4.3-0.6c-4.4-0.3-10.7-0.5-15.5,2.2c-4.2,2.4-6.9,5.8-8,10.3c-2.3,9.3,2.2,21.1,7.2,28.9
			c8.8,13.9,22.9,18.7,36.4,13.1c3.7-1.6,6.7-4.6,8-8.4c0.6-1.8,1.1-3.6,1.2-5.5c0.3-3.9-2.2-11.1-6.6-15.8c-1.6-1.8-4.2-3.9-7-4
			c-3.2-0.1-5.6,0.7-6.6,2.1c-1.4,2-0.7,5.4,0.2,8c0.5,1.5,0,3.1-1.3,3.9c-1.9,1.1-4.1,0.2-4.8-1.7c-2.1-6-1.9-10.7,0.6-14.1
			c2.3-3.2,6.6-5,12.1-4.8c4.1,0.1,8.1,2.2,11.7,6.1c5.2,5.7,8.7,14.4,8.3,20.7c-0.9,13.7-13.6,27.1-27.2,28.5
			c-14.2,1.5-28-6.4-37.2-12.5c-1.1-0.7-2.3-1.5-3.4-2.3c-12.2-8.3-24.9-16.8-39-11.5l-0.6,0.2c-3.2,1.2-8.1,3.1-12.4-0.6
			c-2.1-1.8-4.1-3.7-6.1-5.5c-5.5-5.2-11.3-10.5-18.1-13.1c-25.1-9.6-50.7-6.8-70.2,7.7c-5.7,4.2-10.3,9.6-15.1,15.4
			c-7.1,8.5-14.5,17.2-25.7,21.7c-5.7,2.3-11.5,2.8-17.1,3.3c-5,0.4-9.8,0.9-14.3,2.5c-11.4,4.1-19.1,13.8-21.7,27.1
			c-2.5,12.9,0.2,24.7,8.4,37.2c3.9,6,8.6,12.8,14.1,18.6l1.1,1.2c8.8,9.3,17.8,18.8,22,31.4c0.5,1.5,0.9,3,1.4,4.5
			c3.6,11.6,7.3,23.5,19.1,26.5c5.5,1.4,11.5,0.9,16.5,0.2c3-0.4,6.3-1,9.7-1.7c9.2-1.8,19.5-3.9,28.3-1.9c3.8,0.9,8.8,2.2,13.4,4.8
			c21.3,12.1,54.9,6.1,70.5-12.6c2-2.4,3.6-5.2,5.3-8.1c1.8-3.2,3.7-6.4,6.3-9.4c4.1-4.8,8.5-5.7,12.9-6.7c1.5-0.3,3-0.7,4.5-1.1
			c6.1-1.9,12.3-5.4,16.5-9.3c4.8-4.6,6.5-11.1,4.8-19.5c-0.9-4.4-2.5-8.4-4.3-12.6c-2.7-6.6-5.6-13.4-5.2-21.6
			c0.1-1.5,0.2-3,0.3-4.5c0.7-11,1.3-19.7-6.2-27.9c-6.3-6.9-16.5-9.7-27.1-7.5c-2.5,0.5-4.8,1.3-7.1,2.1
			c-6.7,2.3-13.6,4.8-22.1-2.1c-9.8-7.9-21.9-16.1-37.3-16.1c-10.5,0-18.9,1.5-25.6,4.7c-7.7,3.7-12.2,9.6-17.3,16.5
			c-1,1.4-2,2.7-3.1,4.1c-5.8,7.5-14.4,8.8-21.9,9.9c-7.1,1.1-13.2,2-17.2,7.1c-0.8,1.1-1.5,2.5-2.1,4.6c-3.5,11.5-1,22.5,8.1,35.4
			c4.5,6.4,5.5,13.7,6.4,20.6c1.2,9,2.2,16.8,10.6,21.7c9.3,5.4,20.5,2.1,31.4-1.2c2.3-0.7,4.5-1.4,6.7-1.9
			c7.1-1.9,15.5-3.2,23.9,1.3l2.3,1.2c5.2,2.8,10.6,5.7,16.2,6.7c8.1,1.4,15.9-1.8,21.9-9.1c2.3-2.9,4.2-6,5.9-9.1
			c4.7-8.3,9.6-16.8,23.9-16c3.4,0.2,6.5-1,8.8-3.2c2.5-2.5,3.7-6,3.5-9.8c-0.4-6.9-3.9-13.9-9.3-18.7c-3.4-3-8.5-4-13.9-5.1
			c-6.7-1.3-13.7-2.6-17.9-8.3c-1.1-1.5-2-3.1-2.8-4.4c-1.5-2.5-2.6-4.5-5-6.1c-5.2-3.3-11.7-4.5-17.8-3.2c-4.2,0.9-7,3.2-10.3,5.9
			c-2.4,1.9-4.8,3.9-7.9,5.5c-4.6,2.4-8.8,2.8-12.9,3.2c-2,0.2-4,0.4-6.2,0.9c-6.4,1.3-12.4,6.1-11.3,12.9
			c1.6,9.7,19.9,17.2,31.9,15.5c8.6-1.2,8.1-6,7.9-7.6c-0.1-0.8-0.7-1.7-1.5-2.2c-0.3-0.2-1.1-0.6-1.9-0.4c-1.1,0.3-2.3,0.2-3.1-0.5
			c-2.1-2-1.2-5,1.1-5.7c2.4-0.8,5.1-0.4,7.4,1.1c2.5,1.6,4.1,4.2,4.5,6.9c1,8-4.1,13.5-13.5,14.9c-13.8,2-36.9-6.1-39.3-20.9
			c-1.7-10.8,7-18.4,16.5-20.3c2.4-0.5,4.6-0.7,6.8-0.9c3.8-0.4,7.1-0.7,10.5-2.5c2.5-1.3,4.6-3,6.7-4.8c3.6-3,7.3-6,13.1-7.2
			c7.8-1.7,16.1-0.2,22.7,4.1c3.8,2.4,5.5,5.4,7.2,8.3c0.8,1.3,1.5,2.5,2.4,3.8c2.7,3.6,8.1,4.6,13.9,5.7c6.1,1.2,12.4,2.4,17.1,6.6
			c6.7,6,10.9,14.5,11.4,23.2c0.4,5.6-1.6,11-5.4,14.8c-3.6,3.6-8.5,5.5-13.8,5.2c-10.3-0.6-13.3,4.7-17.9,12.7
			c-1.9,3.3-3.8,6.7-6.5,10c-7.5,9.2-17.5,13.2-28,11.3c-6.7-1.2-12.5-4.3-18.2-7.4l-2.3-1.2c-6.4-3.4-13-2.4-19.1-0.7
			c-2.1,0.6-4.3,1.2-6.5,1.9c-11.7,3.5-24.9,7.5-36.6,0.6c-11.2-6.6-12.5-17.2-13.8-26.5c-0.8-6.5-1.6-12.6-5.2-17.7
			c-10.4-14.7-13.2-27.4-9-41c0.6-2,1.5-4.5,3.3-6.8c5.7-7.2,14-8.4,21.4-9.5c6.9-1,13.5-2,17.7-7.4c1-1.4,2.1-2.7,3-4
			c5.4-7.3,10.5-14.1,19.7-18.5c7.6-3.6,16.9-5.4,28.4-5.4c17.4,0,30.7,8.9,41.4,17.5c5.7,4.6,9.5,3.3,15.8,1c2.4-0.8,5-1.8,8-2.4
			c12.9-2.6,25.3,0.9,33.2,9.5c9.5,10.3,8.7,21.2,8,32.8c-0.1,1.5-0.2,2.9-0.3,4.4c-0.4,6.8,2.1,12.6,4.7,18.7
			c1.8,4.4,3.7,8.9,4.7,13.9c2.1,10.6-0.3,19.4-6.8,25.5c-4.9,4.6-12,8.7-19.1,10.8c-1.8,0.6-3.5,0.9-5.1,1.3
			c-4,0.9-6.6,1.5-9.3,4.6c-0.2,0.2-0.4,0.5-0.6,0.8c10.7-2.7,18.8,3.3,26.1,8.7c6,4.4,11.7,8.6,18.6,8.6c6.8,0.1,12.7-2.9,17-8.7
			c1.4-1.9,2.4-3.3,3.1-5.1l0.4-1c0.6-1.4,1.1-2.7,1.2-3.8c0-0.6,0-1.3,0-2c-0.1-1.6-0.1-3.4,0.3-5.2c1.7-6.6,9-8.3,14.4-9.4
			c1.5-0.3,2.9-0.6,4-1c4.9-1.7,10.8-6.3,12.5-11.7c0.9-3,0.5-5.7-1.4-8.3c-2.3-3.2-5.6-4.1-9.8-5.2c-1.7-0.4-3.4-0.9-5.2-1.6
			c-7.8-2.9-14.4-8.8-17.6-15.8c-4.3-9.4-1.7-18.6,6.6-23.4c8.3-4.8,21.3-3.9,28.5,6.1c2.4,3.3,3.5,6.7,3.2,9.9
			c-0.2,3.2-2,8.7-11,10.1c-1.8,0.3-3.5-0.9-3.7-2.7c-0.3-1.8,0.9-3.5,2.7-3.7c5.3-0.8,5.4-3.2,5.5-4.1c0.2-2.1-1-4.2-2-5.6
			c-5.1-7-14.1-7.7-19.9-4.3c-5.3,3.1-6.8,8.7-3.9,15c2.5,5.4,7.8,10.2,13.9,12.4c1.5,0.5,3,0.9,4.6,1.4c3.8,1,8,2.2,11.4,5.5
			c0.3,0.1,0.5,0.3,0.8,0.5c6.9,5.8,20.6,14.8,34.9,9.6c8.8-3.2,12.2-11,16-20c3.4-7.8,6.8-15.9,14.4-21.3c4.4-3.2,9.3-4.1,14.1-5.1
			c2.4-0.5,4.7-0.9,6.9-1.7c14.3-4.8,24.1-18.2,25.5-34.8c0.7-7.9-0.6-16-3.6-23.4c-1.6-3.8-4-7.2-6.7-10.7
			c-3.8-5.1-7.7-10.4-9.1-17.6c-1.8-9.7,3.7-18.2,13.6-20.8c8-2.1,15.4,0.6,22.6,3.3c4.3,1.6,8.4,3.1,12.5,3.5
			c0.8,0.1,1.6,0.1,2.4,0.1c-6.6-1.4-12.2-5-17.5-8.6L1125.6,151.9z"/>
	</g>
	<g>
		<path class="st1" d="M181.4,762.7c0.2,3.9,0.8,7.7,1.7,11.6c1,4.3,2.1,8.7,2.1,13.6c0,4.4,1,9.3-0.6,14l-0.4,1.1
			c-0.3,0.9-0.7,1.9-1.1,2.9c11-3.1,22.6-4.4,34.3-3.4c3.8,0.3,7.6,1.3,11.2,2.2c4.2,1,8.2,2.1,11.9,2c4.2,0,8.4-1.5,13-3
			c3.1-1.1,6.4-2.2,9.7-2.8c29.1-5.6,62.1,2.7,86.1,21.8c4.2,3.3,8.7,7.7,12.7,12.7c-1.5-3.3-2.6-6.7-3.4-10.2
			c-2.8-12.3,0.9-25.5,9.8-34.6c8.9-9.1,21.6-12.8,34.9-10.1c5,1,8.9-2.1,14.9-7.3c4.3-3.8,9.3-8.1,15.5-9.8
			c17.1-4.7,35.9-1.1,47.8,9.3c5.6,4.9,12.7,12.9,14.1,23.3c1.3,9.7-3.4,19.1-12.6,25.1c-11.2,7.3-25.9,7.7-36.6,1.1
			c-4.4-2.8-9-8.2-9.1-14.1c-0.1-3.8,1.7-7.1,5.1-9.4c1.8-1.2,4.4-0.8,5.6,1.1c1.2,1.9,0.8,4.4-1.1,5.6c-1.4,0.9-1.6,1.8-1.5,2.5
			c0,2.3,2.4,5.5,5.3,7.3c9.3,5.8,20.7,3.7,27.9-1c6.6-4.3,9.9-10.5,9-17.1c-1.1-7.8-6.8-14.3-11.4-18.3
			c-9.9-8.6-25.8-11.6-40.3-7.6c-4.5,1.2-8.3,4.6-12.3,8.1c-5.9,5.1-12.6,11-21.8,9.1c-10.7-2.2-20.5,0.6-27.5,7.8
			c-6.9,7.1-9.9,17.5-7.7,27.1c3.5,15.1,14.4,28.5,29.2,35.8c7.7,3.8,16.6,6,25.6,6.4c3.6,0.1,7,0,10.3-0.2c5.4-0.3,11-0.6,17.2,0.5
			l0.6,0.1c11.9,2.2,22.1,4,33.9,1.6c19.6-4.1,37.5-17.8,46.6-35.8c7.4-14.6,8.1-29.9,2-43.1c-2.2-4.9-6.9-9.5-11.4-13.9
			c-7.1-7-14.5-14.3-14.5-24.2c0-22.4-16.5-44.3-43-57.1c-17-8.3-39.8-10-59.4-4.4c-12,3.4-22,10-31.4,20.9
			c-2.2,2.6-4.3,5.5-6.5,8.6c-5.8,8.3-12.4,17.6-23.3,21.5c-9,3.2-17.7,2.2-26.2,1.2c-4.6-0.5-8.9-1-13.2-0.9
			c-13.3,0.4-28.4,9-35.1,20c-2.8,4.5-5.3,11.5-1.6,19.2c1,2,0.1,4.4-1.9,5.4c-2,1-4.4,0.1-5.4-1.9c-4.1-8.6-3.4-18.1,1.9-27
			c8.1-13.4,25.7-23.4,41.8-23.9c4.9-0.1,9.7,0.4,14.4,0.9c7.9,0.9,15.3,1.7,22.6-0.8c8.5-3,14-10.9,19.4-18.5
			c0.8-1.1,1.6-2.2,2.4-3.2c-0.1-0.2-0.4-0.3-0.7-0.3c-3.7-0.1-7.4,0.4-11.1-0.2c-5.6-0.9-11.4-3.2-16.8-5.2
			c-11.4-4.1-21.8-5.2-33.7-2.7c-5.9,1.2-11.6,3.1-17,5.7c-2.8,1.4-5.6,2.9-8.2,4.6c-2.7,1.8-4.1,3.2-5.9,5.7
			c-3.4,4.7-9.3,4.6-13.6,4.5c-0.7,0-1.4,0-2.1,0c-2.3,0-4.3-1-6.5-1.5c-2.5-0.6-5.1-0.9-7.7-1.1c-4.5-0.3-9.1-0.3-13.6,0.1
			c-7.4,0.6-14.7,2.3-21.4,5.5c-6.9,3.3-13.7,8.4-17.5,15.1c-2.5,4.4-3.8,9.2-4.3,14.1C181.3,757.5,181.2,760.1,181.4,762.7z"/>
		<path class="st1" d="M675.9,1062.5c3.1-1.8,6.1-3.6,9.2-5.3c10.7-6,22.2-12.3,34.8-16.6c6.9-2.3,17.3-5.3,27-5.9
			c-10.9-1.8-23.5,0-30.6,1.3c-6.3,1.2-12.6,2.8-19.3,4.6c-13.2,3.5-26.9,7.1-40.9,6.6c-22.8-0.8-38.7-12.8-41.4-31.3
			c-0.1-0.4,0-0.8,0-1.1c-2.8,0.4-5.6,0.6-8.5,0.6c-7.5,0-14.9-1.3-20.2-3c-4.8-1.6-14.2-6.4-15.1-13.2c-0.3-2,0-5.9,5.1-9.3
			c5-3.2,11.7-1.6,15.3-0.3c2.1,0.7,3.2,3.1,2.5,5.2c-0.7,2.1-3.1,3.2-5.2,2.5c-3.5-1.3-6.8-1.5-8.2-0.5c-1.1,0.7-1.5,1.3-1.5,1.4
			c0,1.3,4.5,4.9,9.6,6.6c10,3.3,28.2,4.2,35.2-1.8c2.5-2.1,3.3-4.9,2.7-8.7c-0.4-2.5-2-4.9-4.2-6.6c-0.3-0.2-1.2-0.6-1.9-0.9
			c-3.3-1.4-7.8-3.4-7.5-7.8c0.1-1.6,0.4-3.1,0.8-4.5c0.8-3.6,1-5.2-0.4-6.7c-3.8-4.1-7.6-4-11.8-3.9l-0.8,0
			c-3.1,0.1-6.2,1.1-9.5,2.1c-3,1-6.2,2-9.6,2.3c-6.5,0.7-12.2-0.2-16.9-2.7c-3.7,11.9-15.9,20.3-30.7,20.3c-2.2,0-4-1.8-4-4
			c0-2.2,1.8-4,4-4c12.8,0,23-8,23.7-18.5c0.7-10.2-8.9-20.3-20.4-21.6c-9.7-1.1-20,3.6-30,8.2c-4.3,2-8.4,3.8-12.4,5.3
			c-12.3,4.3-32.9,4-46.2-4.1c-6.8-4.1-10.9-10-11.9-16.8c-0.7-5.3,0.2-9.8,2.3-13.6c-13.9,5.5-24.9,12.9-27.2,23.9
			c-3,14.6,3.4,24.1,20.8,31c6.6,2.6,13.2,3.6,19.2,2.8c2.2-0.3,4.2,1.3,4.5,3.5c0.3,2.2-1.3,4.2-3.5,4.5c-1.7,0.2-3.4,0.3-5.1,0.3
			c-5.9,0-12.1-1.2-18.2-3.6c-21.2-8.4-29.6-21.5-25.8-40.2c4.4-21.3,29.7-30.7,57-37.5c11.4-4,25.3-6.3,38.5-8.5
			c16.2-2.7,31.6-5.3,38.3-10.2c9-6.5,10.8-15.2,4.8-23.8c-1.3-1.8-0.8-4.3,1-5.6c9.9-7.1,15.3-18,14.8-30
			c-0.5-11.4-6.2-22-15.5-29.1c3.4,13.2,1.6,27.5-5.3,41.1c-10.2,20.2-30.2,35.5-52.1,40.1c-4.6,1-8.9,1.3-13.2,1.3
			c-8.1,0-15.8-1.4-23.8-2.9l-0.6-0.1c-5.3-1-10.1-0.7-15.3-0.4c-3.5,0.2-7.1,0.4-11.1,0.2c-10.1-0.4-20.1-2.9-28.9-7.2
			c-8.2-4-15.4-9.8-21.1-16.6c2.3,5.1,3.8,10.5,4.1,16c0.4,9.2-3,17.4-9.8,23.9c-0.1,0.1-11.4,10.1-20.1,13.5
			c8,16.8,6.6,31.7-4,45.4c-19.2,24.8-57.9,25.7-82.7,12.4c-5.3-2.8-14.7-9-19.2-18.7c-1.6-3.6-2.1-6.2-2.5-8.2
			c-0.1-0.7-0.3-1.6-0.4-1.8c-0.1-0.1-0.9-0.7-5.4-1.5c-3-0.6-5.9-1-8.7-1.4c-11.7-1.7-22.8-3.4-32.7-14
			c-14.9-15.9-17.1-38.1-5.4-55.3c13-19,35.9-27.2,59.9-21.4c1.8,0.4,3.3,0.9,4.8,1.3c4.4,1.2,7.3,2,12.2,1.4
			c1.8-0.2,3.7-0.8,5.6-1.3c3.9-1.1,8.2-2.4,13.4-1.2c9.2,2.1,18.1,7.8,26.5,16.9c3.4,3.7,7.7,8.9,9.9,15.1c2.4,6.8,1.5,14-2.4,20.4
			c-5,8-14.4,13.7-24.6,14.9c-10.9,1.3-20.4-4.7-24.6-10.8c-3-4.4-3.7-9.1-1.7-12.9c1.6-3.1,5.7-6.8,15.7-6.8c2.2,0,4,1.8,4,4
			c0,2.2-1.8,4-4,4c-5.4,0-7.9,1.3-8.6,2.5c-0.5,1-0.1,2.7,1.2,4.6c3,4.3,9.8,8.3,17,7.4c7.8-0.9,15-5.2,18.7-11.2
			c1.8-3,3.6-7.7,1.6-13.4c-1.3-3.8-3.9-7.6-8.2-12.3c-7.3-7.9-14.8-12.8-22.3-14.5c-3.1-0.7-6,0.1-9.3,1.1
			c-2.1,0.6-4.4,1.3-6.9,1.6c-6.5,0.8-10.6-0.3-15.4-1.7c-1.4-0.4-2.8-0.8-4.5-1.2c-20.6-4.9-40.3,2-51.3,18.1
			c-9.5,13.9-7.7,32.1,4.6,45.2c8,8.5,16.8,9.8,28,11.5c2.9,0.4,5.9,0.9,9,1.4c9.3,1.7,11.3,4.1,12.3,9.9c0.3,1.7,0.6,3.6,1.8,6.2
			c2.5,5.5,8.2,11,15.7,15c22,11.8,56.4,10.6,72.5-10.2c9.7-12.5,9.8-25.9,0.3-42.2c0,0,0,0,0,0c0,0,0,0,0,0
			c-1.1-1.9-0.5-4.4,1.5-5.5c1.4-0.8,3.1-0.7,4.4,0.2c4-0.9,15.3-9.2,18.7-12.3c5.1-4.9,7.6-10.8,7.3-17.7
			c-0.6-13.7-11.9-28.6-22.8-37.2c-22.3-17.6-52.8-25.4-79.6-20.2c-2.8,0.5-5.6,1.5-8.6,2.5c-4.9,1.7-10,3.4-15.5,3.5
			c-4.6,0-9.4-1.1-13.9-2.3c-3.5-0.9-6.8-1.7-10-2c-12.9-1.1-25.8,0.8-37.8,5.2c-0.7,0.7-1.6,1.1-2.6,1.1c-0.1,0-0.1,0-0.2,0
			c-15.8,6.4-29.9,17.3-40.3,31.7c-16.1,22.5-19.8,49.4-9.9,71.9c8.7,19.8,27.2,27,52.2,31.7c11.3,2.1,11.3,11.3,11.4,17.3
			c0,1.8,0,3.6,0.3,5.1c1.5,10.3,4.7,17.8,10,23.5c19.5,20.9,64.8,20.2,90.8,12.9c2.5-0.7,5-1.4,7.4-2.1
			c19.8-5.8,42.2-12.4,61.4,4.4c1.7,1.5,1.8,4,0.4,5.7c-1.5,1.7-4,1.9-5.7,0.4c-13-11.4-27.8-9.8-43.5-5.6
			c10.2,4.2,18.5,13,23.1,23.1c10.4,22.9,24.1,30.6,44.3,25c14.5-4,27-13.5,39.1-22.6c18.5-13.9,37.6-28.4,64.7-25.2
			c15.2,1.7,27.8,10.6,31.9,22.5c3.6,10.2,7.7,16.3,18.5,17c9.4,0.6,19.3-2.9,29.8-6.6c17.4-6.2,37.1-13.2,54.3,2.4
			c1.7,1.5,1.8,4.1,0.3,5.7c-1.5,1.7-4.1,1.8-5.7,0.3c-13.5-12.3-28.6-6.9-46.1-0.7c-1.3,0.5-2.6,0.9-3.9,1.4
			c7.3,2.7,13,7.1,19,11.6c4.3,3.3,8.8,6.7,14.2,9.7c8.4,4.6,17.7,6.9,26.9,6.5C640.8,1083,658.7,1072.6,675.9,1062.5z"/>
	</g>
</g>
</svg>
